<svg xmlns="http://www.w3.org/2000/svg" viewBox="0 0 380 50"><defs><style>.cls-1{fill:#666}.cls-2{fill:url(#名称未設定グラデーション_8)}.cls-3{fill:#fff}</style><linearGradient id="名称未設定グラデーション_8" x1="190" y1="2" x2="190" y2="25" gradientUnits="userSpaceOnUse"><stop offset="0" stop-color="#666"/><stop offset="1" stop-color="#9e9e9e"/></linearGradient></defs><title>addcart</title><g id="レイヤー_2" data-name="レイヤー 2"><g id="レイヤー_1-2" data-name="レイヤー 1"><rect class="cls-1" width="380" height="50" rx="6" ry="6"/><path class="cls-1" d="M2 25v19a4 4 0 0 0 4 4h368a4 4 0 0 0 4-4V25z"/><path class="cls-2" d="M378 6a4 4 0 0 0-4-4H6a4 4 0 0 0-4 4v19h376z"/><path class="cls-3" d="M148.13 19a2.5 2.5 0 0 0-.18 1.07c0 1.81-.22 4.27-.38 5.33-.42 2.77-1 3.43-2.9 3.43a12.22 12.22 0 0 1-2-.18 4.83 4.83 0 0 0-.37-2 8.31 8.31 0 0 0 2.11.37c.69 0 .93-.35 1.18-1.75a35.89 35.89 0 0 0 .35-5.12h-3.73A11.72 11.72 0 0 1 141 24.7a11.73 11.73 0 0 1-4.32 4.43 6.32 6.32 0 0 0-1.44-1.7 9 9 0 0 0 4.16-4 8.22 8.22 0 0 0 .82-2.79c0-.22.06-.38.08-.5h-2.66a11.31 11.31 0 0 0-1.73.08v-2a9.2 9.2 0 0 0 1.78.13h2.8c0-.61.08-1.54.08-2V16a3.12 3.12 0 0 0 0-.62h2.14a4.77 4.77 0 0 0-.06.5v.3c0 .34 0 .34-.06 1.17 0 .35 0 .5-.06 1h3.55a3.23 3.23 0 0 0 1.26-.14zm3.01 2.21a15.75 15.75 0 0 0 2.59.11h8.53a15.75 15.75 0 0 0 2.59-.11v2.22a17.56 17.56 0 0 0-2.61-.08h-8.5a17.57 17.57 0 0 0-2.61.08zm19.1 7.97a10.78 10.78 0 0 0 .1-1.79V17.13a10.28 10.28 0 0 0-.1-1.63h2.19a10.73 10.73 0 0 0-.06 1.68v3a47.07 47.07 0 0 1 7.27 3.38l-1.12 1.89a37.88 37.88 0 0 0-5.67-3.06 5.33 5.33 0 0 1-.54-.27 8.29 8.29 0 0 1 .06 1.09v4.23a17.66 17.66 0 0 0 .06 1.78zm14.05-.18c0-.29 0-.38-.08-.75a27.92 27.92 0 0 1-.42-4.79 30.72 30.72 0 0 1 .66-6.26 10.47 10.47 0 0 0 .24-1.49l2.11.22a22.11 22.11 0 0 0-1 4.79 26.72 26.72 0 0 0-.24 3.54v.88a16.32 16.32 0 0 1 .83-2.11l1.28.58a13.15 13.15 0 0 0-1.42 4.85v.43zm6.82-6.32a3.62 3.62 0 0 0-1.14 2.3c0 .91.88 1.39 2.54 1.39a11.23 11.23 0 0 0 3.81-.61l.16 2a5.37 5.37 0 0 0-.66.1 19.75 19.75 0 0 1-3.31.3c-2 0-3.27-.45-4-1.39a2.68 2.68 0 0 1-.48-1.57 5.23 5.23 0 0 1 1.47-3.3zm-2.64-5.3a11.57 11.57 0 0 0 3 .26 17.65 17.65 0 0 0 4.35-.43l.1 1.94-1.14.14a28.7 28.7 0 0 1-3.43.19 18.93 18.93 0 0 1-2.88-.18zm14.53.12c-.43 0-.91 0-1.54.08v-1.92a9.84 9.84 0 0 0 1.5.08h2.54a8.8 8.8 0 0 0 1.46-.08 7.57 7.57 0 0 0 0 1 12.4 12.4 0 0 0 1.72 6.34 13 13 0 0 0 2.56 3.07 11.49 11.49 0 0 0 2.37 1.73 6.79 6.79 0 0 0-1.36 1.81 16.13 16.13 0 0 1-3.89-3.76 12.21 12.21 0 0 1-1.41-2.37 10.33 10.33 0 0 1-.82-2.27 13.42 13.42 0 0 1-2.29 4.79 16 16 0 0 1-4 3.62 4.49 4.49 0 0 0-1.28-1.62 12.64 12.64 0 0 0 3.22-2.51 11.85 11.85 0 0 0 2.74-4.74 12.64 12.64 0 0 0 .48-3.25zm16.31 3.42a11.75 11.75 0 0 1 2-1.67 5.73 5.73 0 0 1 3.38-1.5 2.06 2.06 0 0 1 2.24 2.13 11.45 11.45 0 0 1-.4 2.45 20.25 20.25 0 0 0-.67 3.6c0 .51.24.8.66.8a1.61 1.61 0 0 0 1.12-.82 7.88 7.88 0 0 0 .93-1.83 7.77 7.77 0 0 0 1.02 1.92 7.27 7.27 0 0 1-1.12 1.58 3.1 3.1 0 0 1-2.37 1.15 2.38 2.38 0 0 1-1.38-.42 2.28 2.28 0 0 1-.83-2 16.13 16.13 0 0 1 .66-4 10.14 10.14 0 0 0 .34-2c0-.38-.22-.59-.66-.59a3.83 3.83 0 0 0-2 .86 18.2 18.2 0 0 0-2.91 2.61v3.53a21.63 21.63 0 0 0 .08 2.64h-2.06a14 14 0 0 0 .11-2.54v-2.14A12.49 12.49 0 0 1 216.3 26a9.09 9.09 0 0 0-.74.91l-.93-1.9a7.17 7.17 0 0 0 1-.91c1.5-1.49 1.5-1.49 1.81-1.82v-2.4a20.61 20.61 0 0 0-2.45.22l-.1-1.81a5.08 5.08 0 0 0 .66 0c.3 0 1.18 0 1.94-.1v-1.92a5.34 5.34 0 0 0 0-.9h2a2.25 2.25 0 0 0-.06.59v.61c0 .32 0 .45-.06 1.42l.19-.06.59.67a2.68 2.68 0 0 0-.46.48 1.46 1.46 0 0 0-.22.29c-.06.1-.1.13-.19.26v1.23zm17.03.93a7.81 7.81 0 0 1 3.36-.74c2.74 0 4.5 1.41 4.5 3.6a3.91 3.91 0 0 1-2.2 3.55 7.92 7.92 0 0 1-3.87.91 5.41 5.41 0 0 1-3.11-.74 2.28 2.28 0 0 1-1-1.84c0-1.33 1.15-2.29 2.75-2.29a3.45 3.45 0 0 1 2.77 1.31 4.32 4.32 0 0 1 .74 1.44c1.33-.5 1.9-1.18 1.9-2.32s-1.23-2.06-3.17-2.06a9.86 9.86 0 0 0-6.59 2.69l-1.09-1.73a14.39 14.39 0 0 0 2.26-1.5 53.36 53.36 0 0 0 4.85-4.13l.29-.29c-.61.08-1.63.14-4.53.27a5.37 5.37 0 0 0-.77.08l-.08-1.92a14.42 14.42 0 0 0 1.89.1c1.36 0 3.31-.08 4.87-.19a2.36 2.36 0 0 0 1-.21l1 1.41a3.45 3.45 0 0 0-.83.66c-.8.74-2 1.78-2.51 2.24-.29.24-1.44 1.1-1.76 1.31a6.52 6.52 0 0 1-.66.42zm.48 4c-.58 0-.94.29-.94.74 0 .64.72 1 1.9 1a4.3 4.3 0 0 0 .83-.06c-.29-1.11-.89-1.69-1.79-1.69z"/></g></g></svg>