<svg xmlns="http://www.w3.org/2000/svg" viewBox="0 0 220 50"><defs><style>.cls-1{fill:#a9aaab}.cls-2{fill:#9b9c9d}.cls-3{fill:#fff}</style></defs><title>fb</title><g id="レイヤー_2" data-name="レイヤー 2"><g id="レイヤー_1-2" data-name="レイヤー 1"><path class="cls-1" d="M0 0h220v50H0z"/><path class="cls-2" d="M0 25h220v25H0z"/><path class="cls-3" d="M86.69 22.81a10.12 10.12 0 0 0-1.42.09v-1.75a9.9 9.9 0 0 0 1.41.09h.61v-.79c0-1.86.95-2.73 3-2.73a5.41 5.41 0 0 1 1.86.3l-.4 1.57a2.48 2.48 0 0 0-1.33-.36c-.87 0-1.17.36-1.17 1.39v.62h.71a16.59 16.59 0 0 0 1.69-.09v1.75a12.82 12.82 0 0 0-1.65-.09h-.73v5.09a14.79 14.79 0 0 0 .1 1.95h-2.18a16.07 16.07 0 0 0 .1-1.95v-5.09zm12.21 6.06a3.25 3.25 0 0 1-1.59.95 5.34 5.34 0 0 1-1.39.18c-1.83 0-2.92-.95-2.92-2.52A2.66 2.66 0 0 1 94.67 25a11.36 11.36 0 0 1 4.23-.6v-.76c0-.87-.58-1.32-1.73-1.32a2.71 2.71 0 0 0-1.56.43 1.63 1.63 0 0 0-.6 1l-1.92-.34a3.13 3.13 0 0 1 1.18-1.67 4.49 4.49 0 0 1 2.88-.74 3.9 3.9 0 0 1 3 .88 2.52 2.52 0 0 1 .71 2.07v4a12 12 0 0 0 .12 1.88h-2zm0-3.12c-2.87.06-4 .56-4 1.73 0 .7.52 1.14 1.36 1.14a3 3 0 0 0 2.08-.79 1.79 1.79 0 0 0 .54-1.32zm9.8-1.63a2.71 2.71 0 0 0-.46-.92 1.89 1.89 0 0 0-1.54-.69c-1.47 0-2.38 1.15-2.38 3s.93 3 2.44 3a2 2 0 0 0 1.73-.84 2.1 2.1 0 0 0 .3-.75l1.86.38a4.2 4.2 0 0 1-.63 1.28 3.9 3.9 0 0 1-3.3 1.51c-2.64 0-4.35-1.79-4.35-4.56a4.85 4.85 0 0 1 1.27-3.46 4.11 4.11 0 0 1 3-1.14 3.88 3.88 0 0 1 3.36 1.66 5 5 0 0 1 .52 1.1zm4.93 1.88a2.79 2.79 0 0 0 .55 1.68 2.52 2.52 0 0 0 3.67.09 2.18 2.18 0 0 0 .44-.78l1.77.57a4.21 4.21 0 0 1-.92 1.38 4.26 4.26 0 0 1-3.09 1.16c-2.65 0-4.33-1.77-4.33-4.57S113.39 21 116 21a3.81 3.81 0 0 1 3.73 2.37 6.17 6.17 0 0 1 .44 2.28v.42zm4.57-1.49a2.36 2.36 0 0 0-.66-1.44 2.14 2.14 0 0 0-1.62-.6 2.25 2.25 0 0 0-2.25 2zm3.44 5.33a15.79 15.79 0 0 0 .1-2v-7.92a17.57 17.57 0 0 0-.1-2h2.11a15.26 15.26 0 0 0-.1 2v2.63a3.5 3.5 0 0 1 3.06-1.55c2.52 0 4 1.64 4 4.42a4.9 4.9 0 0 1-1.22 3.58 3.84 3.84 0 0 1-2.88 1.08 3.26 3.26 0 0 1-3-1.48v1.27zm4.84-7.23a2.68 2.68 0 0 0-2 .83 3.23 3.23 0 0 0-.73 2.08 3.13 3.13 0 0 0 1 2.37 2.62 2.62 0 0 0 1.58.55c1.51 0 2.49-1.17 2.49-3s-.95-2.82-2.33-2.82zm5.39 2.95a4.46 4.46 0 1 1 8.91 0 4.46 4.46 0 1 1-8.91 0zm1.94 0c0 1.84 1 3 2.52 3s2.52-1.12 2.52-3-.92-3-2.51-3-2.53 1.12-2.53 3zm8.11 0a4.46 4.46 0 1 1 8.91 0 4.46 4.46 0 1 1-8.91 0zm1.94 0c0 1.84 1 3 2.52 3s2.52-1.12 2.52-3-.92-3-2.51-3-2.53 1.12-2.53 3zm10.62-7.65a14.08 14.08 0 0 0-.1 2v4.94l2.25-2.24a6.92 6.92 0 0 0 1.19-1.33h2.8c-.85.76-.85.76-1.5 1.38l-2.13 2 2.54 3.46a11.5 11.5 0 0 0 1.36 1.74h-2.67a7.22 7.22 0 0 0-1-1.69l-1.62-2.37-1.23 1.2v1a10.87 10.87 0 0 0 .1 1.92h-2.11a14.63 14.63 0 0 0 .1-1.95v-8a13.73 13.73 0 0 0-.1-2zM37.44 16.9h3.35v-5.12h-4.88c-3.25 0-5.35 2.28-5.35 4.77v3.33h-3V25h3v13.21h6V25h3.64l.32-5.12h-4v-2.21c.01-.67.27-.77.92-.77z"/></g></g></svg>