<svg xmlns="http://www.w3.org/2000/svg" viewBox="0 0 57.63 133.17"><defs><style>.cls-1{fill-rule:evenodd}</style></defs><title>logo</title><g id="レイヤー_2" data-name="レイヤー 2"><path class="cls-1" d="M15.28 0a5.38 5.38 0 0 1 2.4 1.6c.32.36.19 1 .67 1.2s1.24 0 1.6.33a1.06 1.06 0 0 1-.27 1.13l-1.2.87.07.4.13.27c1.62 0 3.71 1.25 4.13 2.67-.39.3-1.6 2.81-2.2 2.73-.37.11-.49 0-.73.2-.73.37-.46 1.49-.53 2.33l-1.73 1.13v.2c1 .57 1.39.1 2.2.2a7.3 7.3 0 0 1 3 1.27 3.11 3.11 0 0 1-.8 2.8c-1.25-.22-3.48-1.52-4.4-1.33-.42 1.27-.22 3.59-1.67 4a17.08 17.08 0 0 0-1.53-1.8 20.2 20.2 0 0 0-1.13-1.8h-.33a7.16 7.16 0 0 1-1.68 1.6l-.28-.07c-.76-1.65-1.46-1.13-2.4-2.33l.07-.2c.92-1.43 2.73-1.12 2.93-3.47l-.2-.2c-.84.08-1.31.27-1.87-.2s-.32-.82-.47-1.47c-.49-2.12-.25-5 1.67-6.27l.33.07A3.16 3.16 0 0 0 12 7.27a2.42 2.42 0 0 0 1.93-.8l.15-.47c-1.22-.89-2.6-.51-3.4-1.8l.13-.47.4-.6c1.06 0 1.95.37 2.6-.07a2.72 2.72 0 0 1-.4-1.33A3.86 3.86 0 0 1 15.28 0zm1.93 2zm-5.13 3.13H12l-.07-.27c.15.14.07.03.15.27zm6.67 4.4a1.19 1.19 0 0 1-.8.2 7.62 7.62 0 0 1-.47-1.53l1.07-.67a1.66 1.66 0 0 1 .2 2zm-7.14-1.07l-.13.13V8.4zm-1.93 0v.2h-.2l.07-.2zm2.6.07zm.33.8a2 2 0 0 1-.07 1A3.82 3.82 0 0 0 14.48 12c.46.14.65 0 .93.27-.87.83-2.39.22-3.6.47l-.27-.33a6.44 6.44 0 0 1 .2-2.93l.4-.27zm-1.6.73zm6.87 1l.27.8-.47.07-.4-.27a1 1 0 0 1 .27-.67zm-1.73 4c-.15.68-1.14.52-2 .47l-.2-.53 1.2-.4a4.63 4.63 0 0 1 1 .46zm1.13 1.27c-.12.13 0 0-.2.13l.07-.13zm-1.2.87l.2.4c-.23 1.23-1.63-.07-2.2-.2l-.08-.27.2-.33c.8.09 1.31.42 1.88.4zm-3.27 0l.07.2c-.13-.12 0 0-.13-.2zm-1.2 1.6l.07-.13c-.03.07.06.04-.07.13zm3.8 4.67a1.35 1.35 0 0 1 .8.27c.26 1.39 2.24 1.45 2.93 2.47l.6 1.53c.63 1.79-3 4.2-2.27 5.73.93 0 1.84-.2 2.47-.27.11.88-2.29 2.18-3 2.67-1.23.85-3.51 2.9-4.6 3.33-.43.17-3.6-2.3-3.87-2.67.1-1 .87-1.73 1.2-2.53l.53-3.4c2.18-.83 2.47.84 3.73 1.53a.81.81 0 0 0 .87-.07c.15-.4.74-3.23.8-3.27a3.15 3.15 0 0 1-.07-.93c-.32-.95-.85-3.27-.4-4.33zm6.93 7a1.61 1.61 0 0 1 .93.13c1.69.62 1.46 6.06.47 7.4a3 3 0 0 1-1.73.93c-1.28-.86-1.45-2.2-2.27-3.47.45-1.16 1.33-.36 1.93-1.33.73-1.18-.15-2-.2-2.8.24-.4.53-.56.88-.87zm-7.93 2.6a2 2 0 0 1 .07.8l-.33.33-.2.13a.7.7 0 0 1-.33-.53c-.09-.33.19-.57.4-.8zm3.93 17c6.81 1.12 17.3 9.91 11.86 17.33-4.22.27-5.12-3.94-8.33-5.2l.13-.47c.51-.08.63-.4.6-1-1.24-1.84-1.61-4.17-3.2-5.67a4.28 4.28 0 0 0-.8-1.93c-.53-.56-1.31-.78-1.8-1.4a3 3 0 0 1 .67-1.53c.37-.01.65.03.88-.14zm-11.4.33c2.36.7 7.51 5 7.46 7.6 0 1.16.88 2.23.13 3.4-.55.85-2 1.13-2.8 1.73-2.64 1.94-2.92 3.35-7 4.2-2.15.45-5.66-1.5-4.53-3.47 2.79-.18 5.69-4.53 6.73-6.67l.2-2c.44-1.46-2.13-2.24-.18-4.8zM7 59.72l-.07.2v-.2zm15.13 14.6c2.52.16 6.47.5 8.26 2.2-.2.87.25 2.09-.2 2.87-.25.43-.7.28-1.07.47-3 1.53-4.49-2.75-7.93-2.07-2.4.47-4.63 2-6.53 3-1 .56-2.16.64-3.07 1.27l.53.67c.35.91-.58 1.76.13 2.4 2.42-.91 4.75-4.82 7.2-5.07 2.24 1.75 5.62 3.75 6.33 6.73.17.73-.6 1.49-.73 2.07l.07 3c-.25 3.1 2.16 4.85-1.33 6.73-.41.22-.5.72-1 .87.12 2.73-2.6 2.65-4.2 1.67l-3.67-3.4-.33-1.2-1.4-1.87c-.29-.73-1.1-2.26-.93-3.47.23-1.72 1.74-5 4.53-3.6l2.4 2.2c.41 0 .35.05.6-.13 0-1.9 0-6-1.67-6.6-1.29-.51-3 2.16-3.53 2.87l-2.4 1.73c-.67.68-.49 1.55-1 2.47l-.93 1.4-.47 2.93a11.82 11.82 0 0 1-2.4 5.07C5 99.51 4.84 97.69 4.08 96c-.32-.69-1.45-2.28-.67-3.27.43-.54 1-.65 1.27-1.4l.4-3.13c.54-1.12 2-2.8 1.33-4.4-3.08-.32-3.91-1.94-5.2-4.2-.31-.54-1.49-2-.73-2.67a17.16 17.16 0 0 0 5-.2c1-.22 1.43-1.21 2.53-1.27l3.6.8a12.69 12.69 0 0 0 3.07-1.07l1.67.07c2.04-.26 3.99-.26 5.8-.94zM11.08 86.18l.07.07c-.53 1.14-2.56 3.48-4.27 3.47l-.2-.4v-.07c.93-.33.64-1.13 1.33-1.53 1-.58 1.84-.93 2.73-1.53zm3.4 3.33a9 9 0 0 1 1.2 3.2c.61.37 1.8 1.22 2.8.87.29-.1.43-.32.87-.4A7.33 7.33 0 0 1 18 96.64c-2.44-.79-5.37-3.68-4.33-6.93l.27-.2zm-6.4 14.13l.6.07c.16.33.63.67.87 1.07l.33 1.33c.71 1.32 1.41 2.75 2.13 4.2a3.91 3.91 0 0 1 .07 3.07l-1 .4c-.67.39-3.93 3-4 3.73.61.48 1.73 3.27 1.73 3.27.13.16 0 0 .07.2 1.39-.93 1.38-3.32 2.67-4.33.2.08.08 0 .2.13.32 1.1-.4 3.78-.6 4.8 1-.17 5.35-3 4.87-4.27-.58-1.46-2.06-1.46-2.27-3.8l.13-.13s3.72.41 4.07.13.28-.47.27-.93c-1.25-2-3.26-.6-4.8-1.87a2.22 2.22 0 0 1 1.07-1.47l.13.07c.14-.15.34-.82.6-1.07.9-.88 2.51-.76 3.67-1.27 2-.87 4.08-3.31 6.93-1.87.82.41 1.88 2.22 2.73 2.87.7.53 1.91.9 2.27 1.73 1 2.91-4.41 3.05-5.6 4.53a6.78 6.78 0 0 1 .47 1.8c-.45.64-2.27 1.19-1.87 2.13a3.6 3.6 0 0 0 2.8-.53c.34-.32.1-.56.67-.73 1.48 2.15 5.51 0 4.8 5-.51.26-.82.87-1.47 1-2.3.47-4.53-.64-7-.33l-.13.33a16 16 0 0 1 .13 2.87l-.07 3.6a5.65 5.65 0 0 1-6.34 3.63c-1-.24-2.43.19-3.33-.4v-.07l.07-.13c.38-.71 1.72-.69 2.2-1.33.69-.92 3.49-6.48 2.67-7.46-.59-.86-2 .38-2.4.8-.22.23-.12.55-.4.73-1.21.8-3.44-.12-4.13-1l-.2-1.47-.53-.27-.4.27c-.16 2.2-1.21 7.36-2.6 8.13-.33-.14-1.09 0-1.27-.4a39.2 39.2 0 0 1-3.53-4.27c.15-1.3 2.29-3.11 1.67-3.93-.32-1-2.08-1.72-2.93-2.2-.44-2 .57-2.7 1.33-4.13C4.9 113.14 7.21 109 5.88 106a11.25 11.25 0 0 1 2.2-2.36zm15.8 7l.4.33c0 .86-.7.93-.87 1.8a2 2 0 0 1-1.67-1.67l.4-.33c.16-.16.29-.08.53-.2zm-5.2 7.53a1.88 1.88 0 0 1 .2 1.4c-.84.34-1.81.56-2.47.8l-.13-.13a4.06 4.06 0 0 1 2.13-2.07zM48 1.58a4 4 0 0 1 3.12 2.08 45.81 45.81 0 0 1 5.08.08c.49.18.71.7 1.35.92.1 1.11 0 1-.47 1.67a19.28 19.28 0 0 1-3.26-.67 22.93 22.93 0 0 0-8 .5l-.16.33c.3.37.76.73 1.1 1.08.51-.19.53-.14 1.08.08v-.24l-.25-.08c.55-.45 3.84-1.24 5.15-.75l1 .92-.06 1.08-1.68.67c0 .52-.17.47 0 .75.35.16.38.18.43.67l-.25.17-1.55.16c-.33 2 0 3.77 0 6.25a1.21 1.21 0 0 0-.49.67c-1.4-.18-3-.69-3.46-2.33 1.11.08 1.29.49 2.08-.08.22-.83.67-2.79 0-3.42l-2.09-.33C45.7 10.11 45 9 45.3 6.66c-2 .27-2.57.35-3.53-1.5-.21-.41-.43 0-.26-.58 2.3 0 3.69.28 5.57-.42-.11-.5.19-.61.74-.67-.1-.79-.26-1.39.18-1.91zm6 2.5l.09.25c.32 0 .11.09.33-.08zM48 7.5l.17.17zm1.86 1.25l.22-.75a4.75 4.75 0 0 0-2.82.58 1.18 1.18 0 0 0 .27 1.17 1.11 1.11 0 0 0 1-.17l.82-.75zm.41-.33zM47 14.49l-.83.17c0 .65-.14.52-.23 1.17l-1.41.33-.85-.92c.12-.54 0-.95.14-1.33l.42.08-.42-.33a2.19 2.19 0 0 0 .31-1.42c.35-.08.28-.1.5-.25l.67.33a3.78 3.78 0 0 0 .19 1.08l1.84.17V14c-.24.27-.23-.05-.33.49zm5.45-2.42c1.46.27 2 1.23 3.12 1.83v.25l-.33.08v.08l.25.08c.26 0 .15-.09.25.25-.35.28-.15.68-.15 1a3.68 3.68 0 0 1-2.49.33v-.42l.49-.5c-.36-1.05-1.06-1.7-1.1-2.97zm-8.22 1.17zm1 .75l-.17-.17zm9.75.33l-.17-.17zm-.41.58l.17.17zm-10.49.33l-.08-.15zm3.8 11.33a2.57 2.57 0 0 1-.88 1.92 2.36 2.36 0 0 1-2-.08 4.77 4.77 0 0 0-.12-2c-.26 0-.12.08-.33-.08.09-.52-.73-2-1.2-2 .05-1-.61-1.76 0-2.5l.49-.5-.18-.32c1-.64 1.63-1.47 2.71-2.08s5.16-.4 6.59.33c.25.88 2 1.31 2.3 2.5l-.26-.09c2.54 3.55-.63 7.4-3.84 8.08v-.5c1.1 0 1.13-2.07 2.12-2.25l-.34-.33c.9-1.43.45-4-.35-5.41-.38-.67-1.78-1.42-2.12-1.75-.24.22-1.29.07-1.67 0l-.08.08c.1.47-.22 2.14.38 2.58a24.21 24.21 0 0 0-.75 4.41zm4.28-7l-.08.17.25-.17zm-5.82 6.34c.24-1.63 2-4.43 1.05-5.83l-.66.08c-.24.64-.79.77-1.14 1.25a3.82 3.82 0 0 0 .25 4.5zm-1.94-5.41l-.08.25c.17-.15.06 0 .16-.25zm-.23.83c.13.16.15.15.34.25v-.25zm.67.08l.17.17zm9.59.33zM44.7 23l.17.08zm10.83.17l.17.25c-.11-.27 0-.11-.17-.26zm-8.15.5l-.08.17c.15-.12.04-.09.08-.18zm6.88 2.42zm-8.82.58zm8.16.08V27l.08-.25zM47 28l-.17-.17zm5.73 3.58a4.47 4.47 0 0 1 2.6 1.08c-.06.45.1.85.11 1.58-2.11 1.14-2.09-.65-3.38-2.33l.08-.25zm-5.73.57a1 1 0 0 1 .67.17 3.29 3.29 0 0 1 .86 1.58c-1.26 1.26-.74 3.55-.32 5l1.75.08v-.42c.74-.1 1.33-.28 1.83 0l.08-.42c.23.27.17.31.59.42l-.09-.42c.7.62.83.13 1.76.33a6.38 6.38 0 0 1 2.37 1.75c-.07 1 .86 2.64-.43 3.58-1.82 1.33-5 .55-5.45-1.83 1.38.21 1.8.94 3.51.58.08-.4.09-.42.41-.58-.33-.83.07-1.27-.7-1.83-1.14-1.73-3.77-.25-5.24.17l-.32.92L48 41a2.63 2.63 0 0 1-1.12 2.58 1.49 1.49 0 0 1-1.42-.08c.07-.37.13-.35-.26-.5-.44-.51-1.73-1.51-1-2.25.43-.49 1.13-.37 2.08-.33-.16-.56 0-.41.32-.83-.44-.35-.48-2.34-.64-3.08a3.85 3.85 0 0 1-1.67-.33 3.69 3.69 0 0 0-.6-1l.08-.42c3.79.04 1.97-.46 3.23-2.61zm8.09.67zm-.07.75l.09.17.08-.17zm-7.87 2.5zm0 .67l.09.17.08-.17zm.5.17l-.17-.17zm-.14 1.17c.17.17 0 .09.34.17zm4.35 1l.17.08zm.67.17l-.17-.17zm.5-.17l.17.17zm1.42 0l.34.17zm-.58.25zm-5.91.25zm6.75.08l-.08.08.17.17v-.25zm1 .08l.17.17zM44.38 41zm2.7 1.92zm7 .42l-.25-.17zm1.83-.17l.17.17zm-3.82.58l.17.08zm-.64 1.33c.54.23 1.08.29 1.35.75v.75c.91 0 1.57-.26 2.09.33l.09.25c-.62.38-1.5.45-1.9 1l.51.33c.16-.42.35-.31.83-.33.21.53.56.38.77.92-.55.19-1.7.66-2.15.75v.25l.09.17c1.29 0 2.55-.42 3.67.08.24.55.56.35.69 1.08h-.09c-1.34-.57-6.54-.19-8.65.75-.12-.33 0-.15-.25-.25.09.35.12.14-.07.5l-.75-.08a1.46 1.46 0 0 0-.84-.58l.08-.33c1.12 0 2.86-.22 3.48-.92v-.08c-.76-.1-1.36-.07-1.6-.83a9.75 9.75 0 0 0 2.41-.42l-.1-.67c-.78-.07-2 .26-2.6-.92l.08-.17 2.5-.17-.17-.42h.42c0-.7-.49-1.16-.44-1.33s.28-.26.55-.43zm-6.64.92c.79.07.81.26 1.43.58-.09-.22-.13-.14-.09-.33.24.27.25.38.68.5 0 .62 0 .11.18.83-.45.25-.59.77-1 1s-1 .26-1.41.5l-.34-.25a2 2 0 0 0 .74-1.1c-.15-.6-.4-1-.53-1.67zm0 .33c.15.17 0 .06.25.17zm9.84.83l-.16-.16zm-4.16.5l.17.17zm1.85.67c.15.17 0 .06.25.17zm-3.14 1.5l.17.08zm5.26.75l.17.08zm-9.24.25l.84.17.26.67c-.36 1-1.69 2.09-2.44 2.83h-.33c.16-.75.44-.81.47-1.67-.3-.31-.49-.28-.6-.83a5.89 5.89 0 0 0 1.81-1.19zm12.18 9.75l-2.84-.33V60l.41-.42-1.53-1.75c.28-.08.15.09.25-.25l.59.17-.09-.5a4.11 4.11 0 0 0-2.91.5l.18.83c-.56.14-2.69 3.37-3.88 1.83 0-.28.15-.08-.09-.33h-.08l.09.33h-.33l-.08-.08c.07-.62 2-1.13 2.55-1.67-.61-.47-1-.32-1.52-1.08l1-.33a9.73 9.73 0 0 1 0-3.91l-.34-.25.08-.25.17-.08.34.17a5.16 5.16 0 0 1 .92 1.07l-.15.75.93.5c.19-.51 1.59-.69 2-.92L54 55v.25c-.69.12-1.4.66-2.07.75.15.17 0 .06.25.17a5 5 0 0 0 2.16-.25c0-1.29.13-2.73-.48-3.25-.93-.6-2 .26-3.41.25l-.26-.42c.22-.23.17-.21.5-.17a5.28 5.28 0 0 1 5 .08c-.21.95.79 2.13.48 3.17a7.39 7.39 0 0 0-.7 2.5l.67.17c-.08.31-.16.24 0 .42a5.2 5.2 0 0 1 1.36 1.17c-.14.26-.12.25-.09.72zM48 52l-.17-.08zm-3.91.42zm2.25.25l.25.08.09.25c-.34.41-.15.47-.23 1l-.25-.08c.18 1.15-.87 4.66-1.41 4.66.25.63 0 .84-.22 1.58a.57.57 0 0 0-.33.08c-.75-.43-.75-1.16-1.2-1.75l.25.08a4 4 0 0 1 0-2.42h.08a1.15 1.15 0 0 0 .6.67h.25c.2-.63.65-.41.9-.83a18.84 18.84 0 0 0 1.23-3.35zm6.5.33l.84.17-.07.58c-.75.27-1.53.5-2.07.75a1.37 1.37 0 0 1-.77-.92c.81 0 1.68-.04 2.08-.58zm-8.66.25c.2.18 0 0 .25.08v-.08zm10.52 1.42l-.17-.08zm-4.82.5l-.17-.08zm.51.67l-.16.25.18.75 1.16-.17.24-.5v-.08l-1.16.33v-.58zm4.47 2.67l.09.17.08-.17zM44 58.64l-.17-.08zm-.33.17zm12.23 1.25l-.17-.17zm-7 0l.09.17.08-.17zm6.08.17l-.17-.17zm-7.17-.08c.15.17 0 .06.25.17zm4.74 8.41c-.2 1.61-2.88 4.63-4.34 4a.83.83 0 0 0-.1-.75c.77-1.15 2.27-1.86 2.52-3.5h-.23c-.34.58-.89.58-1.4.92l-.59-.42-.1-.83a7.35 7.35 0 0 0 2.13-6.08l.58-.25c-.26-.17-.13.08-.25-.25a5 5 0 0 1 1.42.42l.77 1c-.3.24-.09.4-.23.83l-.25-.17a3.51 3.51 0 0 1-1.28 2.83l.34.58c.9-1 4.61-1 5.16-.33.06.29.26.44.68.58-.14 3.56-.63 8.38-4.15 9.41A6.73 6.73 0 0 1 51.61 75a2.6 2.6 0 0 1-3.09-.33c.46-.58 1.5-.62 2-1.17a43.53 43.53 0 0 0 2.75-4.41l-.18-.5zM51.94 62l.09.17.08-.17zm-6.49.42a5.63 5.63 0 0 1 1.84.33 8.7 8.7 0 0 0 .13 2.58 1.86 1.86 0 0 1 1.43.58l-.23.92a3.8 3.8 0 0 0-1.65.67 2.61 2.61 0 0 0 .27 1.08c.35 0 .29-.13.5.17.17.58-.69 1.39-.88 1.92-.45 1.25.16 2 .31 2.92a6.64 6.64 0 0 1-.94 3.41l-.75-.17c-.83-2.06-2.56-1.53-2.91-4.25l.51.42.17-.08-.43-.67h1.08c.15-.64.38-.31.74-.67.94-.93 1-1.6.94-3.25a1.48 1.48 0 0 0-1.82.83c-1.46-.37-.71-2.09-.39-2.83a18.51 18.51 0 0 0 0-2.08l.83-.25.76.42c-.06.68-.3 1.4.12 1.92l.5-.17c-.32-.86.07-2.47 0-3.17h-.33zm.68.75L46 63zm-2.54 2v.17c.08-.18.08-.05 0-.2zm-.07.92l.17.17zm11.95 1.83c0-.35 0-.33-.18-.5l-.29-.37c-.3.17-.29 0-.41.33.36.24.25.43.88.51zm-1.5.17v.25h.25v-.08zm1.08 0c.17.25 0 .13.34.25v-.08zm.1.92c-.74.85-1.26 3.82-2.43 3.75a1.59 1.59 0 0 1-.31 1.33l.09.33a4.32 4.32 0 0 0 1.33-.08c.21-.92 1.83-3.62 1.4-5.33zm-.1 3.67l-.17-.17zm-10.23.75a1 1 0 0 0-.07.83h.33a1.67 1.67 0 0 1 .07-.75zm-.83.08zm.19 1.25l.26.33h.08c-.13-.39.02-.24-.33-.37zm.42 0l.25.25zm1 0l.17.08zm5.59.25l-.19-.13zm-6.19.62l-.17-.17zm1.09.58v.17c.04-.14.04-.02-.09-.16z" id="レイヤー_1-2" data-name="レイヤー 1"/></g></svg>