<svg xmlns="http://www.w3.org/2000/svg" viewBox="0 0 227.05 29.6"><defs><style>.cls-1{fill-rule:evenodd}</style></defs><title>logo_row</title><g id="レイヤー_2" data-name="レイヤー 2"><path class="cls-1" d="M150.3 7.22c6.81 1.12 17.3 9.91 11.86 17.33-4.22.27-5.12-3.94-8.33-5.2l.13-.47c.51-.08.63-.4.6-1-1.24-1.84-1.61-4.17-3.2-5.67a4.28 4.28 0 0 0-.8-1.93c-.53-.56-1.31-.78-1.8-1.4a3 3 0 0 1 .67-1.53c.36.01.64.05.87-.13zm-11.4.33c2.36.7 7.51 5 7.46 7.6 0 1.16.88 2.23.13 3.4-.55.85-2 1.13-2.8 1.73-2.64 1.94-2.92 3.35-7 4.2-2.15.45-5.66-1.5-4.53-3.47 2.79-.18 5.69-4.53 6.73-6.67l.2-2c.43-1.44-2.09-2.22-.19-4.78zm.07 9.33l-.07.2v-.2zM97.62 4.93a5.38 5.38 0 0 1 2.4 1.6c.32.36.19 1 .67 1.2s1.24 0 1.6.33A1.06 1.06 0 0 1 102 9.2l-1.2.87.07.4.13.27c1.62 0 3.71 1.25 4.13 2.67-.39.3-1.6 2.81-2.2 2.73-.37.11-.49 0-.73.2-.73.37-.46 1.49-.53 2.33L100 19.8v.2c1 .57 1.39.1 2.2.2a7.3 7.3 0 0 1 3 1.27 3.11 3.11 0 0 1-.8 2.8c-1.25-.22-3.48-1.52-4.4-1.33-.42 1.27-.22 3.59-1.67 4a17.08 17.08 0 0 0-1.53-1.8 20.2 20.2 0 0 0-1.13-1.8h-.33a7.16 7.16 0 0 1-1.67 1.6l-.27-.07c-.76-1.65-1.46-1.13-2.4-2.33l.07-.2c.92-1.43 2.73-1.12 2.93-3.47l-.2-.2c-.84.08-1.31.27-1.87-.2s-.32-.82-.47-1.47c-.49-2.12-.25-5 1.67-6.27l.33.07a3.16 3.16 0 0 0 .93 1.4 2.42 2.42 0 0 0 1.93-.8l.13-.47c-1.22-.89-2.6-.51-3.4-1.8l.13-.47.4-.6c1.06 0 1.95.37 2.6-.07a2.72 2.72 0 0 1-.4-1.33 3.86 3.86 0 0 1 1.84-1.73zm1.93 2zm-5.13 3.13h-.07l-.07-.27c.15.14.08.03.14.27zm6.67 4.4a1.19 1.19 0 0 1-.8.2 7.62 7.62 0 0 1-.47-1.53l1.07-.67a1.66 1.66 0 0 1 .2 2zM94 13.4l-.13.13v-.2zm-2 0v.2h-.2l.07-.2zm2.6.07zm.33.8a2 2 0 0 1-.07 1 3.82 3.82 0 0 0 1.93 1.67c.46.14.65 0 .93.27-.87.83-2.39.22-3.6.47l-.27-.33a6.44 6.44 0 0 1 .2-2.93l.4-.27zm-1.6.73zm6.87 1l.27.8-.47.07-.4-.27a1 1 0 0 1 .27-.67zm-1.73 4c-.15.68-1.14.52-2 .47l-.2-.53 1.2-.4a4.63 4.63 0 0 1 1.02.46zm1.13 1.27c-.12.13 0 0-.2.13l.07-.13zm-1.2.87l.2.4c-.23 1.23-1.63-.07-2.2-.2l-.07-.27.2-.33c.84.08 1.32.41 1.89.39zm-3.27 0l.07.2c-.13-.12 0 0-.13-.2zM94 23.73l.07-.13c-.07.07.01.04-.07.13zm20.44-16.34a1.35 1.35 0 0 1 .8.27c.26 1.39 2.24 1.45 2.93 2.47l.6 1.53c.63 1.79-3 4.2-2.27 5.73.93 0 1.84-.2 2.47-.27.11.88-2.29 2.18-3 2.67-1.23.85-3.51 2.9-4.6 3.33-.43.17-3.6-2.3-3.87-2.67.1-1 .87-1.73 1.2-2.53l.53-3.4c2.18-.83 2.47.84 3.73 1.53a.81.81 0 0 0 .87-.07c.15-.4.74-3.23.8-3.27a3.15 3.15 0 0 1-.07-.93c-.32-.95-.85-3.27-.4-4.33zm6.93 7a1.61 1.61 0 0 1 .93.13c1.69.62 1.46 6.06.47 7.4a3 3 0 0 1-1.73.93c-1.28-.86-1.45-2.2-2.27-3.47.45-1.16 1.33-.36 1.93-1.33.73-1.18-.15-2-.2-2.8.24-.39.57-.55.87-.86zM113.44 17a2 2 0 0 1 .07.8l-.33.33-.2.13a.7.7 0 0 1-.33-.53c-.09-.33.19-.57.4-.8zm73.9-14.81c2.52.16 6.47.5 8.26 2.2-.2.87.25 2.09-.2 2.87-.25.43-.7.28-1.07.47-3 1.53-4.49-2.75-7.93-2.07-2.4.47-4.63 2-6.53 3-1 .56-2.16.64-3.07 1.27l.53.67c.35.91-.58 1.76.13 2.4 2.42-.91 4.75-4.82 7.2-5.07 2.24 1.75 5.62 3.75 6.33 6.73.17.73-.6 1.49-.73 2.07l.07 3c-.25 3.1 2.16 4.85-1.33 6.73-.41.22-.5.72-1 .87.12 2.73-2.6 2.65-4.2 1.67l-3.67-3.4-.33-1.2-1.4-1.87c-.29-.73-1.1-2.26-.93-3.47.23-1.72 1.74-5 4.53-3.6l2.4 2.2c.41 0 .35.05.6-.13 0-1.9 0-6-1.67-6.6-1.29-.51-3 2.16-3.53 2.87l-2.4 1.73c-.67.68-.49 1.55-1 2.47l-.93 1.4-.47 2.92a11.82 11.82 0 0 1-2.4 5.07c-2.37 0-2.58-1.82-3.33-3.47-.32-.69-1.45-2.28-.67-3.27.43-.54 1-.65 1.27-1.4l.4-3.13c.54-1.12 2-2.8 1.33-4.4-3.08-.32-3.91-1.94-5.2-4.2-.31-.54-1.49-2-.73-2.67a17.16 17.16 0 0 0 5-.2c1-.22 1.43-1.21 2.53-1.27l3.6.8a12.69 12.69 0 0 0 3.07-1.07l1.67.07c2.04-.33 4-.26 5.8-.99zm-11.06 11.86l.07.07c-.53 1.14-2.56 3.48-4.27 3.47l-.2-.4v-.07c.93-.33.64-1.13 1.33-1.53 1-.58 1.84-.93 2.73-1.53zm3.4 3.33a9 9 0 0 1 1.2 3.2c.61.37 1.8 1.22 2.8.87.29-.1.43-.32.87-.4a7.33 7.33 0 0 1-1.33 3.47c-2.44-.79-5.37-3.68-4.33-6.93l.27-.2zM203 0l.6.07c.16.33.63.67.87 1.07l.33 1.33c.71 1.32 1.41 2.75 2.13 4.2a3.91 3.91 0 0 1 .07 3.06l-1 .4c-.67.39-3.93 3-4 3.73.61.48 1.73 3.27 1.73 3.27.13.16 0 0 .07.2 1.39-.93 1.38-3.32 2.67-4.33.2.08.08 0 .2.13.32 1.1-.4 3.78-.6 4.8 1-.17 5.35-3 4.87-4.27-.58-1.46-2.06-1.46-2.27-3.8l.13-.13s3.72.41 4.07.13.28-.47.27-.93c-1.25-2-3.26-.6-4.8-1.87a2.22 2.22 0 0 1 1.07-1.47l.13.07c.14-.15.34-.82.6-1.07.9-.88 2.51-.76 3.67-1.27 2-.87 4.08-3.31 6.93-1.87.82.41 1.88 2.22 2.73 2.87.7.53 1.91.9 2.27 1.73 1 2.91-4.41 3.05-5.6 4.53a6.78 6.78 0 0 1 .47 1.8c-.45.64-2.27 1.19-1.87 2.13a3.6 3.6 0 0 0 2.8-.53c.34-.32.1-.56.67-.73 1.48 2.15 5.51 0 4.8 5-.51.26-.82.87-1.47 1-2.3.47-4.53-.64-7-.33l-.13.33a16 16 0 0 1 .13 2.87l-.07 3.6a5.65 5.65 0 0 1-6.33 3.67c-1-.24-2.43.19-3.33-.4v-.07l.07-.13c.38-.71 1.72-.69 2.2-1.33.69-.92 3.49-6.48 2.67-7.46-.59-.86-2 .38-2.4.8-.22.23-.12.55-.4.73-1.21.8-3.44-.12-4.13-1l-.2-1.47-.62-.26-.4.27c-.16 2.2-1.21 7.36-2.6 8.13-.33-.14-1.09 0-1.27-.4a39.2 39.2 0 0 1-3.53-4.27c.15-1.3 2.29-3.11 1.67-3.93-.32-1-2.08-1.72-2.93-2.2-.44-2 .57-2.7 1.33-4.13 1.48-2.77 3.8-6.95 2.47-9.86A11.25 11.25 0 0 1 203 0zm15.8 7l.4.33c0 .86-.7.93-.87 1.8a2 2 0 0 1-1.67-1.67l.4-.33c.16-.16.29-.08.53-.2zm-5.2 7.53a1.88 1.88 0 0 1 .2 1.4c-.84.34-1.81.56-2.47.8l-.13-.13a4.06 4.06 0 0 1 2.13-2.07zm-143.43.72c-.17 1.56-2.78 4.47-4.17 3.86a.8.8 0 0 0-.09-.72c.74-1.11 2.19-1.79 2.43-3.37h-.24c-.33.56-.86.56-1.35.88l-.57-.4-.1-.8a7.08 7.08 0 0 0 2.06-5.86l.56-.24c-.25-.16-.13.08-.25-.24a4.86 4.86 0 0 1 1.37.4l.74 1c-.28.23-.09.39-.23.8l-.24-.16a3.38 3.38 0 0 1-1.23 2.73l.33.56c.87-.92 4.45-.95 5-.32.06.28.25.42.65.56-.14 3.43-.61 8.08-4 9.08a6.49 6.49 0 0 1-1.56-1.53 2.51 2.51 0 0 1-3-.32c.45-.56 1.45-.6 1.91-1.12a42 42 0 0 0 2.65-4.26l-.17-.48zm-.6-6.35l.08.16.08-.16zm-6.26.4a5.43 5.43 0 0 1 1.77.32 8.39 8.39 0 0 0 .13 2.49 1.79 1.79 0 0 1 1.38.56l-.22.88a3.66 3.66 0 0 0-1.59.64 2.51 2.51 0 0 0 .26 1c.34 0 .28-.12.49.16.16.56-.66 1.34-.85 1.85-.44 1.2.15 2 .29 2.81a6.4 6.4 0 0 1-.9 3.29l-.73-.16c-.8-2-2.47-1.48-2.81-4.1l.49.4.16-.08-.41-.64h1c.15-.62.36-.3.71-.64.9-.9.94-1.54.9-3.13a1.43 1.43 0 0 0-1.75.8c-1.41-.36-.69-2-.37-2.73a17.85 17.85 0 0 0 0-2l.8-.24.73.4c-.06.65-.29 1.35.12 1.85l.48-.16c-.31-.83.07-2.38 0-3.05h-.32zm.69.7l-.16-.16zm-2.49 2v.16c.08-.16.08-.06 0-.16zm-.06.88l.16.16zM73 14.61c0-.34 0-.32-.17-.48l-.33-.32c-.29.16-.28 0-.4.32.37.22.27.4.9.48zm-1.44.16V15h.24v-.08zm1 0c.16.24 0 .13.33.24v-.08zm.1.88c-.71.82-1.21 3.69-2.34 3.61a1.53 1.53 0 0 1-.3 1.29l.09.32a4.17 4.17 0 0 0 1.28-.08c.2-.89 1.76-3.49 1.35-5.14zm-.09 3.53l-.16-.18zm-9.87.72a.93.93 0 0 0-.07.8H63a1.61 1.61 0 0 1 0-.7zm-.8.08zm.18 1.2l.25.32h.08c-.12-.32.02-.18-.32-.3zm.4 0l.25.24zm1 0l.16.08zm5.39.24l-.16-.08zm-6 .64l-.16-.16zm1.06.56v.16c.07-.12.07.01-.05-.14zM6.35 8.79a3.87 3.87 0 0 1 3 2 44.18 44.18 0 0 1 4.9.08c.48.18.69.68 1.3.88.1 1.07 0 .92-.45 1.61a18.6 18.6 0 0 1-3.1-.64 22.12 22.12 0 0 0-7.7.48l-.15.32c.29.36.74.71 1.06 1 .49-.19.51-.14 1 .08v-.24L6 14.33c.53-.44 3.7-1.19 5-.72l1 .88-.06 1-1.67.64c0 .5-.16.45 0 .72.34.16.36.17.41.64l-.24.16-1.52.16c-.32 1.92 0 3.63 0 6a1.16 1.16 0 0 0-.47.64C7 24.36 5.41 23.86 5 22.28c1.07.08 1.25.48 2-.08.21-.8.64-2.69 0-3.29l-2-.32C4.09 17 3.44 16 3.71 13.69c-2 .26-2.47.34-3.4-1.45-.21-.4-.41 0-.25-.56 2.21 0 3.55.27 5.37-.4-.1-.48.19-.59.71-.64-.14-.78-.25-1.35.21-1.85zm5.83 2.41l.08.24c.3 0 .1.09.32-.08zm-5.64 3.45l-.16-.16zm1.63 1l.14-.65a4.58 4.58 0 0 0-2.72.56 1.14 1.14 0 0 0 .26 1.12 1.07 1.07 0 0 0 1-.16l.79-.72zm.4-.16zm-3.18 5.7l-.8.16c0 .62-.13.5-.22 1.12L3 22.84 2.18 22c.11-.52 0-.91.14-1.29l.4.08-.41-.32a2.12 2.12 0 0 0 .3-1.37c.34-.08.27-.09.48-.24l.65.32a3.65 3.65 0 0 0 .18 1l1.77.16v.4c-.26.26-.25-.03-.31.5zm5.26-2.33c1.41.26 1.89 1.19 3 1.77v.24l-.32.08v.08l.24.08c.25 0 .14-.09.25.24-.34.27-.15.66-.14 1a3.55 3.55 0 0 1-2.4.32v-.4l.47-.48c-.4-1.01-1.08-1.65-1.11-2.88zm-7.93 1zm.82.72l.16.16zm9.57.48l-.16-.16zm-.39.56l.16.16zm-10.3.18l.16.16zm18.1-1.89a2.48 2.48 0 0 1-.85 1.85 2.28 2.28 0 0 1-1.93-.08 4.6 4.6 0 0 0-.12-1.93c-.25 0-.11.08-.32-.08.09-.5-.71-1.93-1.16-1.93.05-.92-.58-1.7 0-2.41l.47-.48-.17-.32c1-.61 1.57-1.42 2.61-2s5-.38 6.35.32c.24.85 1.9 1.27 2.21 2.41l-.24-.08c2.45 3.43-.61 7.13-3.71 7.79v-.48c1.06 0 1.09-2 2-2.17l-.32-.32c.87-1.38.44-3.84-.34-5.22-.36-.64-1.72-1.37-2-1.69-.23.21-1.25.07-1.61 0l-.08.08c.1.46-.21 2.07.37 2.49a23.35 23.35 0 0 0-.72 4.26zm4.13-6.75l-.08.16.24-.16zM19 19.27c.23-1.57 1.92-4.27 1-5.62l-.64.08c-.23.61-.77.74-1.1 1.2a3.68 3.68 0 0 0 .24 4.34zM17.11 14l-.08.24c.16-.14.06 0 .16-.24zm-.23.8c.12.15.15.14.33.24v-.24zm.81.24l-.16-.16zm9.08.16zm-9.38 1.2l.16.08zm10.45.16l.17.24c-.11-.18-.01-.03-.17-.18zM20 17.1l-.08.16c.13-.1.03-.07.08-.16zm6.63 2.49zm-8.51.4zm7.87.08v.24l.08-.24zm-6.32 1.2l-.16-.16zm19.45-10.92a4.31 4.31 0 0 1 2.51 1c-.06.44.1.82.11 1.53-2 1.1-2-.62-3.26-2.25l.08-.24zm-5.61.56a1 1 0 0 1 .65.16A3.18 3.18 0 0 1 35 12.6c-1.21 1.21-.72 3.42-.31 4.82l1.69.08v-.4c.72-.1 1.28-.27 1.77 0l.07-.4c.22.26.16.3.57.4l-.09-.4c.67.59.8.13 1.69.32a6.15 6.15 0 0 1 2.28 1.69c-.07 1 .83 2.54-.42 3.45-1.75 1.28-4.81.53-5.26-1.77 1.33.2 1.74.91 3.38.56.07-.39.09-.41.39-.56-.32-.8.07-1.22-.68-1.77-1.08-1.62-3.64-.24-5.08.16l-.3.88-.17-.24a2.53 2.53 0 0 1-1.08 2.49 1.44 1.44 0 0 1-1.37-.08c.07-.36.13-.34-.25-.48-.42-.49-1.67-1.45-1-2.17.42-.47 1.09-.36 2-.32-.15-.54 0-.4.31-.8-.43-.33-.47-2.26-.62-3a3.72 3.72 0 0 1-1.61-.32 3.56 3.56 0 0 0-.58-1l.07-.4c3.69.12 1.93-.34 3.1-2.43zm7.8.64zm-.07.72l.08.16.08-.16zm-7.59 2.41zm0 .64l.08.16.08-.16zm.49.16l-.14-.15zM34 16.61c.16.17 0 .08.32.16zm4.2 1l.16.08zm.48 0l.16.16zm.81.16l-.16-.16zm1.2-.16l.32.16zm-.56.24zm-5.7.24zm6.51.08l-.08.08.16.16v-.24zm1 .08l.16.16zM31 19.42zm2.61 2zm6.75.24l-.24-.16zm1.93 0l-.16-.16zm-3.85.4l.16.08zM52.86 7.78c.53.22 1 .28 1.3.72v.72c.87 0 1.52-.25 2 .32l.08.24c-.6.37-1.44.43-1.83 1l.49.32c.15-.41.34-.3.8-.32.2.51.54.37.74.88-.53.19-1.64.64-2.07.72v.24l.08.16c1.24 0 2.45-.41 3.54.08.23.53.54.34.66 1h-.05c-1.3-.55-6.31-.18-8.34.72-.12-.32 0-.14-.25-.24.09.34.12.14-.07.48l-.72-.08a1.41 1.41 0 0 0-.81-.56l.07-.32c1.08 0 2.76-.21 3.36-.88v-.08c-.74-.1-1.31-.06-1.54-.8a9.41 9.41 0 0 0 2.32-.4l-.09-.64c-.75-.07-1.94.25-2.51-.88l.08-.16 2.41-.16-.17-.4h.4c0-.67-.47-1.12-.43-1.29s.28-.23.55-.39zm-6.41.88c.76.07.78.25 1.38.56-.09-.21-.13-.13-.09-.32.24.26.24.37.65.48 0 .6 0 .11.18.8-.44.24-.57.75-.95 1s-.94.25-1.36.48l-.33-.24a2 2 0 0 0 .7-1c-.14-.57-.38-1-.51-1.61zm0 .32c.15.16 0 .06.24.16zm9.33.64l.16.16zm-3.84.64l.16.16zm1.78.64c.15.16 0 .06.24.16zm-3 1.45l.16.08zm5.07.72l.16.08zm-8.91.24l.81.16.25.64c-.35 1-1.63 2-2.36 2.73h-.32c.15-.73.43-.78.45-1.61-.29-.3-.48-.27-.58-.8a5.69 5.69 0 0 0 1.73-1.11zm11.75 9.4l-2.74-.32v-.24l.39-.4-1.48-1.69c.27-.07.14.08.24-.24l.57.16-.09-.48a4 4 0 0 0-2.8.48l.18.8c-.54.14-2.6 3.25-3.74 1.77 0-.27.14-.08-.09-.32H49l.09.32h-.32l-.08-.08c.06-.59 1.93-1.09 2.46-1.61-.59-.45-1-.31-1.47-1l1-.32a9.38 9.38 0 0 1 0-3.78l-.33-.24.08-.24.16-.08.32.16a5 5 0 0 1 .9 1l-.15.72.89.48c.19-.49 1.53-.67 1.91-.88l.9.64v.24c-.66.12-1.35.63-2 .72.15.16 0 .06.24.16a4.78 4.78 0 0 0 2.08-.24c0-1.25.12-2.63-.46-3.13-.9-.58-2 .25-3.29.24l-.25-.4c.22-.22.16-.2.48-.16a5.09 5.09 0 0 1 4.82.08c-.2.91.76 2.06.46 3.05a7.13 7.13 0 0 0-.68 2.41l.65.16c-.08.3-.15.23 0 .4A5 5 0 0 1 58.67 22c-.11.29-.1.27-.07.72zm-9.24-8.35l.16.08zm-3.61.48zm2.17.24l.24.08.08.24c-.32.4-.14.46-.22 1l-.24-.08c.17 1.11-.84 4.5-1.36 4.5.24.61 0 .81-.21 1.53a.55.55 0 0 0-.32.08c-.72-.42-.72-1.11-1.16-1.69l.24.08a3.9 3.9 0 0 1 0-2.33 1.11 1.11 0 0 0 .57.64h.24c.19-.61.63-.39.87-.8a18.17 18.17 0 0 0 1.25-3.24zm6.27.32l.81.16-.07.56c-.72.26-1.48.49-2 .72a1.32 1.32 0 0 1-.74-.88c.78.04 1.6.04 1.99-.55zm-8.35.24c.19.17 0 0 .24.08v-.08zM56 17l-.16-.08zm-4.65.48l-.16-.08zm.49.64l-.16.24.17.72 1.15-.13.23-.48v-.08l-1.12.32v-.56zm4.31 2.57l.08.16.08-.16zm-10.68.08l.16.08zm-.16.08zm11.83 1.37l-.14-.14zm-6.75 0l.08.16.08-.16zm5.7 0l.16.16zm-6.75.08c.15.16 0 .06.24.16z" id="レイヤー_1-2" data-name="レイヤー 1"/></g></svg>