<svg xmlns="http://www.w3.org/2000/svg" viewBox="0 0 758.14 479.26"><defs><style>.cls-1,.cls-15,.cls-2,.cls-3,.cls-4{fill:none}.cls-1,.cls-2,.cls-3,.cls-4{stroke:#999}.cls-1,.cls-11,.cls-13,.cls-15,.cls-2,.cls-3,.cls-4,.cls-6,.cls-8{stroke-miterlimit:10}.cls-1{stroke-width:26px}.cls-2{stroke-width:10px}.cls-3{stroke-width:8px}.cls-4{stroke-width:6px}.cls-5{fill:#d5e6a6}.cls-11,.cls-13,.cls-6,.cls-9{fill:#fff}.cls-6,.cls-8{stroke:#69318e;stroke-width:2px}.cls-7,.cls-8{fill:#69318e}.cls-10{fill:#999}.cls-11{stroke:#666}.cls-12{fill:#e60012}.cls-13,.cls-15{stroke:#000}.cls-13,.cls-14{fill-rule:evenodd}</style></defs><title>map</title><g id="レイヤー_2" data-name="レイヤー 2"><g id="レイヤー_1-2" data-name="レイヤー 1"><path class="cls-1" d="M303.14 12v445m0-394H21.64"/><path class="cls-2" d="M161.14 63v138h239.5"/><path class="cls-3" d="M307.14 92h287m-193.5 0v291m-93.5-270l93.5 35h161.5"/><path class="cls-3" d="M594.14 20v86l-32 15v214"/><path class="cls-4" d="M303.14 276h-89v59h89m97.5-151h28.5v61.5m-28.5 0h73.5V264h19v22h69m-348 20h-23V201"/><path class="cls-2" d="M313.14 335h338"/><path class="cls-3" d="M2.14 383h424l24 17h144"/><path class="cls-3" d="M594.14 418v-60l-22-23"/><path class="cls-5" d="M323.64 13.5h259v68h-259z"/><path class="cls-6" d="M352.14 21h101v26h-101z"/><path class="cls-7" d="M377.12 27.7c-.37 7.28-1.38 10.27-4.51 13.5l-1.18-1.4c2.12-2 3.94-4.59 4-12.22zm7.46 13.54c-3.31-3.66-4.12-6.78-4.5-13.59l1.67-.1c0 6.31 1.37 9.73 4 12.31zm1.88-3.5a19.6 19.6 0 0 0 2.05-.58v-4.87h-1.92v-1.47h1.92v-3.54H390v3.54h1.67v1.47H390v4.33c1-.36 1.32-.51 1.67-.66l.25 1.28a33.35 33.35 0 0 1-5.23 2.1zM400.22 33a14.77 14.77 0 0 1-2 5 9.51 9.51 0 0 0 2.78 1.8l-.9 1.49a15.53 15.53 0 0 1-2.86-2.19 9.78 9.78 0 0 1-3.58 2.19l-.74-1.42a7.41 7.41 0 0 0 3.3-2 10.07 10.07 0 0 1-1.69-4.14l1.39-.34a8.93 8.93 0 0 0 1.27 3.27 11.31 11.31 0 0 0 1.55-3.66h-4.89v1.37c0 1.13 0 4.63-2.28 7l-1.23-1.19c1.53-1.67 2-3.15 2-6v-6.43h8.36v1.49h-6.84v2.28h6.37zm4.97 8.32h-1.49v-5.69A18.36 18.36 0 0 1 402 37l-.63-1.54a10.65 10.65 0 0 0 4.06-4.46h-3.84v-1.47h2.11v-2.29h1.49v2.29H407V31a8.84 8.84 0 0 1-1.38 2.61 14.77 14.77 0 0 0 1.8 1.58l-.74 1.42a11.54 11.54 0 0 1-1.46-1.41zm5.46-14.08h1.47v2.33h3.13v9h-1.44v-.71h-1.7v3.45h-1.47V37.9H409v.67h-1.44v-9h3.13zM409 31v2h1.7v-2zm0 3.37v2.1h1.7v-2.1zm3.12-3.37v2h1.7v-2zm0 3.37v2.1h1.7v-2.1zm8.31 6.98h-1.54v-5.79a9.54 9.54 0 0 1-1.82 1.44l-.66-1.53a9.77 9.77 0 0 0 4.08-4.47h-3.87v-1.42h2.26v-2.34h1.54v2.34h1.75V31a11.77 11.77 0 0 1-1.51 2.54 10.37 10.37 0 0 0 2.1 1.84l-.76 1.47a10.84 10.84 0 0 1-1.62-1.58zm5.11-14.11h1.58v4.25h3.21v1.6h-3.21v6.17h3.55v1.6h-8.91v-1.6h3.78v-6.18h-3.13v-1.6h3.13z"/><path class="cls-6" d="M522.14 1h101v26h-101z"/><path class="cls-7" d="M553.45 15.58h-9.7v5.76h-1.62V7.73h12.94v12.19a1.31 1.31 0 0 1-1.49 1.41h-2.65l-.29-1.54H553c.33 0 .45-.12.45-.42zm-9.7-1.46h4V9.2h-4zm5.59 0h4.09V9.2h-4.09zm9.35-4.29v8.87h4.08V7.25h1.62V18.7h4.11V9.83h1.62v11.54h-1.62v-1.12h-9.81v1.11h-1.62V9.83zm18.4-2.13a14.38 14.38 0 0 1-4.46 6l-1.2-1.41a10.22 10.22 0 0 0 4.09-5.05zm6.63 13.58c-.24-.45-.42-.79-.86-1.54-3 .48-10.17.9-10.57.93l-.2-1.61c.3 0 1.38-.06 2-.09a41.65 41.65 0 0 0 2.9-7.51l1.74.41a45.13 45.13 0 0 1-2.89 7c3.34-.18 4.23-.24 6.22-.48a30.26 30.26 0 0 0-2.23-2.91l1.36-.84a32.61 32.61 0 0 1 4.11 5.79zm1-7.37a14.12 14.12 0 0 1-4.63-6.06l1.47-.63c.34.93 1.13 2.85 4.27 5.21zM600 7.76v13.59h-1.46v-.61h-10v.61h-1.47V7.76zm-5.76 2.05h3.22v.95h-3.22v.61H598v1h-8.86v-1h3.72v-.61h-3.17v-.94h3.17v-.77h-4.26V19.4h10V9.05h-4.3zM598 16a13.75 13.75 0 0 1-1.35 1.33 12.16 12.16 0 0 0 1.53.6l-.75 1.13a9.29 9.29 0 0 1-3.34-2.06v2.06h-1.35v-2.19a8.79 8.79 0 0 1-3.08 1.83l-.55-1.2a9 9 0 0 0 3.22-1.8h-2.67v-2.8h7.83v2.8zm-7-2.14v.84h5.13v-.84zm3.27 1.83a8.2 8.2 0 0 0 1.32 1.06c.31-.3.72-.71 1-1.06z"/><path class="cls-8" d="M625.14 214h67v26h-67z"/><path class="cls-9" d="M642.33 220.21h1.62v1h6.25v1.35H636v-1.35h6.28zm4.29 12.71h1c.24 0 .37-.09.37-.39v-4h-9.79v5.76h-1.59v-7h13v5.76c0 .71-.31 1.23-.92 1.23h-2.43L646 233h-6.34v-3.61h7zm1.51-9.71v3.34h-10v-3.34zm-8.47 1.11v1.13h6.93v-1.12zm1.46 6.18v1.32h4.07v-1.32zm9.79-5.94h2.5a25.3 25.3 0 0 0 2.36-4.42l1.74.38a37.35 37.35 0 0 1-2.34 4c2.52 0 4.5-.08 6.7-.25a17.22 17.22 0 0 0-1.84-1.85l1.26-1a20.92 20.92 0 0 1 4 4.5l-1.49 1a16.2 16.2 0 0 0-.92-1.38 109.37 109.37 0 0 1-11.8.45zm12.75 2.74v7h-1.61v-.84h-8v.84h-1.58v-7zm-9.57 1.41v3.39h8v-3.39zm19.81-8.46v1.53h5.34v1.46h-5.34v1.58h6.24v1.47h-2.4v1.54h2.14v1.47h-2.14v3.51c0 .79-.24 1.53-1.49 1.53h-2.83l-.3-1.59h2.57c.34 0 .45-.25.45-.51v-2.94h-9.71v-1.47h9.71v-1.54h-10v-1.47h6.15v-1.58H667v-1.46h5.34v-1.53zm-4.21 9.19a21.34 21.34 0 0 1 2.64 2.56l-1.48 1.14a15 15 0 0 0-2.48-2.73z"/><path class="cls-6" d="M448.14 364h67v26h-67z"/><path class="cls-7" d="M457.12 370.7c-.37 7.28-1.38 10.27-4.51 13.5l-1.18-1.4c2.12-2 3.94-4.59 4-12.22zm7.46 13.54c-3.31-3.66-4.12-6.78-4.5-13.59l1.67-.1c0 6.31 1.37 9.73 4 12.31zm1.88-3.5a19.6 19.6 0 0 0 2.05-.58v-4.86h-1.92v-1.47h1.92v-3.54H470v3.54h1.67v1.47H470v4.33c1-.36 1.32-.51 1.67-.66l.25 1.28a33.35 33.35 0 0 1-5.23 2.1zm13.76-4.74a14.77 14.77 0 0 1-2 5 9.51 9.51 0 0 0 2.78 1.8l-.9 1.49a15.53 15.53 0 0 1-2.86-2.19 9.78 9.78 0 0 1-3.58 2.19l-.74-1.42a7.41 7.41 0 0 0 3.3-2 10.07 10.07 0 0 1-1.69-4.14l1.39-.34a8.93 8.93 0 0 0 1.27 3.27 11.31 11.31 0 0 0 1.56-3.74h-4.89v1.37c0 1.13 0 4.63-2.28 7l-1.23-1.19c1.53-1.67 2-3.15 2-6v-6.34h8.36v1.49h-6.84v2.28h6.37zm7.78 6.05c1.79-.07 5.44-.24 5.44-4.89a3.86 3.86 0 0 0-3.94-4.14c-.24 2.49-.5 5.17-1.63 7.32-.25.47-1.14 2.12-2.88 2.12-2 0-3-2.25-3-4.35 0-3.62 2.55-6.66 7-6.66 5 0 6.28 3.42 6.28 5.88 0 6-5.32 6.24-6.88 6.31zm-4.33-3.72c0 1.62.63 2.48 1.38 2.48 2 0 2.59-5.61 2.75-7.71a5.05 5.05 0 0 0-4.16 5.23zm12.79 2.51a13.31 13.31 0 0 0 1.9-.45v-5.07h-1.79v-1.47h1.79v-3.6h1.47v3.6h1.26v1.47h-1.26V380c.65-.2.9-.3 1.26-.42l.1 1.41a36.63 36.63 0 0 1-4.5 1.53zm13.77-3.28a9 9 0 0 1-1.9-1v1.16h-5.4v-1.08a15.29 15.29 0 0 1-1.69.87l-.79-1.36a10 10 0 0 0 4.5-3h1.5a9.8 9.8 0 0 0 4.47 3zm-9.45-6.3h1.91v-1h1.41v1h3.11v-1h1.42v1h2.05v1.38h-2.05v.9h-1.42v-.9h-3.11v.9h-1.41v-.9h-1.91zm.75 7.53h8.17v5.55h-1.49v-.74H503v.74h-1.49zm1.49 3.48h5.2v-2.16H503zm5.07-5.85a12.16 12.16 0 0 1-2.4-2.13 10 10 0 0 1-2.4 2.13z"/><path class="cls-6" d="M461.14 201h67v26h-67z"/><path class="cls-7" d="M472.71 207.81h12.81v13.53h-1.44v-.63h-9.93v.63h-1.44zm1.75 10.51a7.93 7.93 0 0 0 2.71-.86h-2v-5.08H483v5.08h-1.79a7.79 7.79 0 0 0 2.45.87l-.62 1.09h1v-10.34h-9.93v10.35h1.11zm1-8.68h7.39v2.23h-7.39zm2.77 8.58a10.86 10.86 0 0 1-2.68 1.21h7.2a8.11 8.11 0 0 1-2.67-1.09l.88-.87h-3.73zm-1.63-4.36h5.08v-.65h-5.08zm0 1.38h5.08v-.65h-5.08zm0 1.36h5.08v-.7h-5.08zm.15-5.49h4.77v-.72h-4.77zm14.43-.11a16.6 16.6 0 0 1-1.32 2.71v7.62h-1.48v-5.71a9.07 9.07 0 0 1-.83.78l-.71-1.72a10.47 10.47 0 0 0 3-4.21zm-4.23-.58a8.91 8.91 0 0 0 2.62-3.2l1.53.44a11.41 11.41 0 0 1-3.5 4.14zm6 6.91a12 12 0 0 1-1.54 3.56l-1.25-.84a11.13 11.13 0 0 0 1.46-3.13zm2.16-2a13.07 13.07 0 0 1 2.29 1.47l-1 1.13a11.16 11.16 0 0 0-2.47-1.67l.75-.93h-3.08v-4.73h3.63v-1h-4.12v-1.31h4.13v-1h1.53v1h4.39v1.31h-4.39v1h3.82v4.72zm-2.11-3.52v2.26h1.16v-2.26zm.42 5.44h1.44v2.07c0 .3.08.41.42.41H497c.22 0 .33-.08.34-.32l.09-1 1.49.3-.23 1.43a1.2 1.2 0 0 1-1.26 1h-3a1 1 0 0 1-1.05-1.14zm2-5.44v2.26h1.26v-2.26zm2.55 0v2.26h1.28v-2.26zm1.68 4.81a13.84 13.84 0 0 1 1.83 3.51l-1.37.66a10.27 10.27 0 0 0-1.74-3.54zm2.74-8.99h4.21v1.27a24.43 24.43 0 0 1-1.09 3.58 6.21 6.21 0 0 1 1.17 3.69 1.89 1.89 0 0 1-1.94 2.21h-.55l-.19-1.48h.69c.43 0 .53-.75.53-1.12a5.9 5.9 0 0 0-1.19-3.21 15.53 15.53 0 0 0 1.11-3.57h-1.35v12.39h-1.44zm13.78 7.83h-3v3.92c0 .2 0 .51.39.51h.66a.36.36 0 0 0 .41-.29 14.93 14.93 0 0 0 .12-1.74l1.47.3c-.13 3-.33 3.09-1.68 3.09h-1.34c-1.41 0-1.46-.2-1.46-1.7v-4.09h-1.32c-.14 4.56-3.23 5.63-4.1 5.92l-.7-1.38c.64-.18 3.22-.87 3.27-4.54h-2V214h9.28zm-7.93-3.6h-1.35v-3.36h3.69v-1.27h1.5v1.27h3.74v3.36h-1.37v.67h-6.21zm6.15-.67v-1.28h-6.09v1.28z"/><path class="cls-10" d="M568.14 222h2v9h-2zm4 0h2v9h-2zm4 0h2v9h-2zm4 0h2v9h-2zm4 0h2v9h-2zm4 0h2v9h-2zm4 0h2v9h-2zm4 0h2v9h-2zm4 0h2v9h-2zm4 0h2v9h-2zm4 0h2v9h-2zm4 0h2v9h-2zm4 0h2v9h-2zm4 0h2v9h-2z"/><path d="M583.09 204.56a24 24 0 0 1 4.11 4.44l-1.09.81a16.72 16.72 0 0 0-1-1.37c-3.17.39-8.67.51-11.88.51l-.13-1.18h2.46a27.73 27.73 0 0 0 2.55-4.6l1.41.3a41.81 41.81 0 0 1-2.54 4.29h2.36c.82 0 4.23-.23 4.9-.27a20.83 20.83 0 0 0-2.13-2.08zm2.49 12.7h-1.27v-.84h-8.37v.84h-1.25v-6.88h10.89zm-1.27-5.76h-8.37v3.78h8.37zm10.11-4.93v5.49h-4.12a11.51 11.51 0 0 1-1.23 5.17l-1-.9a5.73 5.73 0 0 0 .81-2.14 16.73 16.73 0 0 0 .25-2.6v-5zm.53-1.58h-6.71v-1.15h6.71zm-1.71 2.7h-2.94v3.22h2.94zm3.58.29h5.25v1.17h-1.8v8.13H599v-8.13h-2.21v.34c0 5-1.7 7-2.25 7.72l-1.12-.84a6 6 0 0 0 1.61-2.7 13.31 13.31 0 0 0 .54-3.81v-5.5a16.72 16.72 0 0 0 5.49-1.08l.72 1.11a17.45 17.45 0 0 1-5 1zm11.53 5.41a30 30 0 0 1-5.05 1.82l-.21-1.28c.45-.1.88-.19 2.14-.55v-5.25h-2V207h2v-3.62h1.2V207h1.77v1.15h-1.77V213c1.06-.37 1.37-.5 1.74-.64zm1 2.66a8.69 8.69 0 0 0 3.41-2.17 10.71 10.71 0 0 1-1.89-4.37l1.11-.28a9.5 9.5 0 0 0 1.58 3.72 11.34 11.34 0 0 0 1.78-4.28h-5.17v1.83a9.62 9.62 0 0 1-2.43 6.73l-1-.93c.72-.71 2.19-2.17 2.19-5.89v-6.52h8.17V205h-6.95v2.5h6.44v1.07a13.2 13.2 0 0 1-2.27 5.29 9.28 9.28 0 0 0 3 2.13l-.69 1.11a11.07 11.07 0 0 1-3.12-2.32 10.25 10.25 0 0 1-3.58 2.32zm-63.27 139.37v1.42h-13.87v-1.42zm14.4-4.59V352h-5v2.34H560v1.16h-4.48v3h5.55v1.17h-5.55v3.58h-1.22v-3.58h-7.12v-1.17h2.31v-4.17h4.82V352h-3.67a13.13 13.13 0 0 1-2.76 3.25l-.82-1.08a9.84 9.84 0 0 0 3.45-4.92l1.32.27a7.92 7.92 0 0 1-.53 1.3zm-6.18 4.67h-3.58v3h3.58zm13.05 3.89a30 30 0 0 1-5.05 1.82l-.21-1.28c.45-.1.88-.19 2.14-.55v-5.25h-2V353h2v-3.62h1.2V353h1.77v1.15h-1.77V359c1.06-.37 1.37-.5 1.74-.64zm1 2.66a8.69 8.69 0 0 0 3.41-2.17 10.71 10.71 0 0 1-1.89-4.37l1.11-.28a9.5 9.5 0 0 0 1.58 3.72 11.34 11.34 0 0 0 1.78-4.28h-5.17v1.83a9.62 9.62 0 0 1-2.43 6.73l-1-.93c.72-.71 2.19-2.17 2.19-5.89v-6.52h8.17V351h-6.95v2.5h6.44v1.07a13.2 13.2 0 0 1-2.27 5.29 9.28 9.28 0 0 0 3 2.13l-.69 1.11a11.07 11.07 0 0 1-3.12-2.32 10.25 10.25 0 0 1-3.58 2.32zm48.73 19.24v1.3h-13.89v-1.3zm-1-9.31v1.29h-11.91V372zm15.4-.15V373h-5v2.34H631v1.16h-4.48v3h5.55v1.17h-5.55v3.58h-1.22v-3.58h-7.12v-1.17h2.31v-4.17h4.82V373h-3.67a13.13 13.13 0 0 1-2.76 3.25l-.82-1.08a9.84 9.84 0 0 0 3.45-4.92l1.32.27a7.92 7.92 0 0 1-.53 1.3zm-6.18 4.67h-3.58v3h3.58zm13.05 3.89a30 30 0 0 1-5.05 1.82l-.21-1.28c.45-.1.88-.19 2.14-.55v-5.25h-2V374h2v-3.62h1.2V374h1.77v1.15h-1.77V380c1.06-.37 1.37-.5 1.74-.64zm1 2.66a8.69 8.69 0 0 0 3.41-2.17 10.71 10.71 0 0 1-1.89-4.37l1.11-.28a9.5 9.5 0 0 0 1.58 3.72 11.34 11.34 0 0 0 1.78-4.28h-5.17v1.83a9.62 9.62 0 0 1-2.43 6.73l-1-.93c.72-.71 2.19-2.17 2.19-5.89v-6.52h8.17V372h-6.95v2.5h6.44v1.07a13.2 13.2 0 0 1-2.27 5.29 9.28 9.28 0 0 0 3 2.13l-.69 1.11a11.07 11.07 0 0 1-3.12-2.32 10.25 10.25 0 0 1-3.58 2.32zM105 374c2.49-2.38 3.9-5.43 4-12.34l1.32.08c-.33 7.62-1.61 10.53-4.37 13.33zm10.06-12.39c.09 7.77 2.17 10.58 4.14 12.48l-1 1c-2.7-2.79-4.2-6-4.49-13.44zm10.29 9.78a30 30 0 0 1-5.05 1.82l-.21-1.28c.45-.1.88-.19 2.14-.55v-5.25h-2V365h2v-3.62h1.2V365h1.77v1.15h-1.77V371c1.06-.37 1.37-.5 1.74-.64zm1 2.66a8.69 8.69 0 0 0 3.41-2.17 10.71 10.71 0 0 1-1.89-4.37l1.11-.28a9.5 9.5 0 0 0 1.58 3.72 11.34 11.34 0 0 0 1.78-4.28h-5.17v1.83a9.62 9.62 0 0 1-2.43 6.73l-1-.93c.72-.71 2.19-2.17 2.19-5.89v-6.52h8.17V363h-6.95v2.5h6.44v1.07a13.2 13.2 0 0 1-2.27 5.29 9.28 9.28 0 0 0 3 2.13l-.69 1.11a11.07 11.07 0 0 1-3.12-2.32 10.25 10.25 0 0 1-3.58 2.32zm11.83-6.86v4.2a2.38 2.38 0 0 0 1.13 1.79 5.21 5.21 0 0 0 2.32.6h7.63l-.24 1.17h-7.17a4.5 4.5 0 0 1-4-1.86 13.69 13.69 0 0 1-2.15 2.22L135 374a8.78 8.78 0 0 0 2-1.67v-4h-1.77v-1.2zm-.39-2.38a14.82 14.82 0 0 0-2.38-2.52l.89-.79a12.11 12.11 0 0 1 2.46 2.49zm10.82 0v7.17c0 .48-.11 1.16-1.17 1.16h-1.64l-.21-1.16h1.46c.25 0 .42 0 .42-.45v-1.2h-2.77v2.61h-1.12v-2.61h-2.78v2.79h-1.12v-8.32h3.29a11.13 11.13 0 0 0-1.62-1l.66-.81a14.86 14.86 0 0 1 2 1.25 10.18 10.18 0 0 0 2.38-1.33h-6.89v-1h8.76v1a13.47 13.47 0 0 1-3.39 1.91zm-5 1h-2.78v1.32h2.78zm0 2.26h-2.78v1.33h2.78zm3.9-2.26h-2.77v1.32h2.77zm0 2.26h-2.77v1.33h2.77zM344 394.26v-.9h1.17v.9h3.87v-.9h1.17v.9h3.85v1.06h-3.85v.92h2.61v3.18h-11.35v-3.18H344v-.92h-3.83v-1.06zm1.32 9a12.21 12.21 0 0 1 2 1.89 6.49 6.49 0 0 0 2.92-2.2h-5.08a13.37 13.37 0 0 1-3.51 1.75l-.67-1.07c3.15-.78 4-1.93 4.48-2.49h-3.76v2h-1.17v-3h13.17v3h-1.18v-2h-5.62a8.88 8.88 0 0 1-.74.92h5.61v.87c-2.17 3.21-6.25 4.25-10 4.47l-.42-1.18a19.06 19.06 0 0 0 5-.69 8.63 8.63 0 0 0-1.79-1.6zm-.45-6.12h-2.28v1.45h2.28zm4.17-1.77h-3.87v.92h3.87zm-.81 1.77H346v1.45h2.25zm3.44 0h-2.31v1.45h2.31zm12.67 8.29c0 .2 0 .42.42.42h2.37c.41 0 .54-.09.63-.3a10.57 10.57 0 0 0 .17-2.05l1.22.32c-.11 2.68-.35 3.21-1.56 3.21h-3.29c-.63 0-1.21-.22-1.21-1.15v-3h-2.32c-.42 2.25-2.42 3.87-5.15 4.46L355 406c1.86-.27 3.9-1.11 4.44-3.15H357v-9h10.23v9h-2.91zM366 395h-7.75v1.56H366zm0 2.58h-7.75v1.56H366zm0 2.58h-7.75v1.62H366zm9.35 3.23a30 30 0 0 1-5.05 1.82l-.21-1.28c.45-.1.88-.19 2.14-.55v-5.25h-2V397h2v-3.62h1.2V397h1.77v1.15h-1.77V403c1.06-.37 1.37-.5 1.74-.64zm1 2.66a8.69 8.69 0 0 0 3.41-2.17 10.71 10.71 0 0 1-1.89-4.37l1.11-.28a9.5 9.5 0 0 0 1.58 3.72 11.34 11.34 0 0 0 1.78-4.28h-5.17v1.83a9.62 9.62 0 0 1-2.43 6.73l-1-.93c.72-.71 2.19-2.17 2.19-5.89v-6.52h8.17V395h-6.95v2.5h6.44v1.07a13.2 13.2 0 0 1-2.27 5.29 9.28 9.28 0 0 0 3 2.13l-.69 1.11a11.07 11.07 0 0 1-3.12-2.32 10.25 10.25 0 0 1-3.58 2.32zM503.46 301v8.25h-1.23v-.74h-7.33v.74h-1.23V303a12.66 12.66 0 0 1-2.32 2.1l-.83-1a11.34 11.34 0 0 0 4.93-7h-4.74v-1.21h13.84v1.21h-7.78a13.6 13.6 0 0 1-1.62 3.92zm-1.25 1.17h-7.33v5.17h7.33zm7.7 3.22a24.08 24.08 0 0 1-4.21 1.67l-.15-1.24c.75-.21 1.21-.36 1.75-.54v-5.16h-1.61V299h1.61v-3.62h1.21V299h1.23v1.14h-1.23v4.72c.63-.24.93-.39 1.29-.55zm9.22-9.51v3.78h-7.56v1.89c0 5.16-1.79 7-2.5 7.7l-.94-.86a6.29 6.29 0 0 0 2.05-4 19.85 19.85 0 0 0 .24-2.86v-5.64zm-1.17 1h-6.39v1.72H518zm.9 7.23h-2.69v3.31h1.92v-2.62h1.13v4.44h-1.12v-.69h-5v.69h-1.15v-4.44h1.15v2.67h2v-3.31h-2.68v-3.72h1.13v2.64h1.56v-3.18h1.11v3.18h1.56v-2.64h1.13zm1.64 1.52c.73-.9 2.19-2.88 2.63-7.71l1.32.18c-.5 4.65-1.5 6.81-2.82 8.4zm7.75 2.24c0 1-.45 1.35-1.38 1.35h-2.7l-.32-1.33h2.54c.46 0 .52-.12.52-.49v-12h1.33zm3.92-10a18 18 0 0 0 2.61 7.75l-1.08.93c-1.26-1.93-2.16-3.92-2.85-8.5zm8.95 9.72a51.86 51.86 0 0 1-5.38 1.37l-.22-1.21.67-.09V302h1.09v5.38l.87-.19v-6.6H536V296h4.79v4.68h-1.53v2.25h1.7v1.17h-1.7v2.9c.63-.17 1.1-.29 1.88-.51zM539.67 297h-2.58v2.56h2.58zm9.09-.6v1.11a11.32 11.32 0 0 1-2.42 3 13.86 13.86 0 0 0 3.42 1.51l-.52 1.17a14.11 14.11 0 0 1-3.86-2 17.62 17.62 0 0 1-3.81 2l-.63-1.12a13.43 13.43 0 0 0 3.51-1.62 8.76 8.76 0 0 1-1.65-1.92 7.3 7.3 0 0 1-1.19.88l-.69-.93a7.26 7.26 0 0 0 3-3.24l1.2.18a6 6 0 0 1-.46.93zm-.1 12.82h-1.14v-.66h-4.23v.66h-1.16v-5.83h6.53zm-1.14-4.72h-4.23v3h4.23zm-3.66-7l-.3.33a7.58 7.58 0 0 0 1.83 2 7.66 7.66 0 0 0 2.07-2.34zM422.6 114.28h-1.2v-6a11.88 11.88 0 0 1-1.92 1.46l-.51-1.18a10.82 10.82 0 0 0 4.29-4.68h-4.07v-1.14h2.21v-2.4h1.2v2.4h1.91v1.13a9.27 9.27 0 0 1-1.53 2.71 12 12 0 0 0 1.91 1.79l-.65 1.06a10.58 10.58 0 0 1-1.63-1.65zm6.82-13.93v2.34h3.24v8.8h-1.16v-.72h-2.08v3.51h-1.17v-3.5h-2.07v.71h-1.12v-8.8h3.19v-2.34zm-1.17 3.43h-2.07v2.38h2.07zm0 3.45h-2.07v2.43h2.07zm3.25-3.45h-2.08v2.38h2.08zm0 3.45h-2.08v2.43h2.08zm15.5-4.46h-5.21v1.59H448v1.11h-3a17.71 17.71 0 0 1-.57 2.19h3.43v1.11h-6.17v1.69h5.45v1.13h-5.45v2.67h-1.26v-2.67h-5.42v-1.12h5.42v-1.69h-6.16v-1.11h3.45a11.16 11.16 0 0 0-.63-2.19h-2.89v-1.11h6.24v-1.59h-5.14v-1.11h5.19v-1.32h1.26v1.32H447zm-3.73 4.89a12.55 12.55 0 0 0 .51-2.19h-5.26a12.85 12.85 0 0 1 .58 2.19zm8.73-1.5v4.49a2.05 2.05 0 0 0 1.37 1.57 6.46 6.46 0 0 0 2.4.5h7.46l-.23 1.16h-7.23a4.48 4.48 0 0 1-4-1.72 13.25 13.25 0 0 1-2.13 2.17l-.58-1.37a8.08 8.08 0 0 0 1.73-1.41v-4.2h-1.59v-1.19zm-.46-2.35a14.68 14.68 0 0 0-2.16-2.5l.85-.78a11.6 11.6 0 0 1 2.29 2.47zm11.5-.72h-4.74a11.2 11.2 0 0 1-.46 1h4.29v7.54h-8.31v-7.54h2.85a6.47 6.47 0 0 0 .35-1h-4.19V102h2.52a10.86 10.86 0 0 0-.79-1.33l1-.42a9.83 9.83 0 0 1 1 1.75h2.5a10.67 10.67 0 0 0 .79-1.77l1.25.3a10.28 10.28 0 0 1-.83 1.47H463zm-2.13 2H455v1.2h5.89zm0 2.1H455v1.23h5.89zm0 2.13H455v1.3h5.89zM140.92 92.68a13.7 13.7 0 0 1-1.17 2.21v7.56h-1.21v-5.9a11.55 11.55 0 0 1-1.81 1.81l-.66-1.06a13.12 13.12 0 0 0 3.79-5.13l.13.06V91h-3.76v-1.15H140v-1.28h1.23v1.28h3.9v-1.28h1.21v1.28h3.72V91h-3.72v1.37h-1.21V91h-3.9v1.28h-1.11zm3.6-.11v3.5a13 13 0 0 0 4-2.68l.9.94c-1.06 1-1.89 1.52-4.95 3.08v3.24c0 .24.09.4.43.4h3.13a.55.55 0 0 0 .54-.45 10.58 10.58 0 0 0 .21-2.1l1.21.33c-.19 2.85-.4 3.39-1.74 3.39h-3.78c-.39 0-1.25-.06-1.25-1.11v-8.53zm.82 23.06c0 .2 0 .42.42.42h2.37c.41 0 .54-.09.63-.3a10.57 10.57 0 0 0 .17-2.05l1.22.32c-.11 2.68-.35 3.21-1.56 3.21h-3.29c-.63 0-1.21-.22-1.21-1.15v-3h-2.32c-.42 2.25-2.42 3.87-5.15 4.46l-.57-1.3c1.86-.27 3.9-1.11 4.44-3.15H138v-9h10.23v9h-2.91zm1.66-10.47h-7.75v1.56H147zm0 2.58h-7.75v1.56H147zm0 2.58h-7.75v1.62H147zm-11 18.51c.73-.9 2.19-2.88 2.63-7.71l1.32.18c-.5 4.65-1.5 6.81-2.82 8.4zm7.75 2.24c0 1-.45 1.35-1.38 1.35h-2.7l-.32-1.33h2.54c.46 0 .52-.12.52-.49v-12h1.33zm3.92-10a18 18 0 0 0 2.61 7.75l-1.08.93c-1.26-1.94-2.16-3.92-2.85-8.5zm-6.05 24.72a51.86 51.86 0 0 1-5.38 1.37l-.22-1.21.67-.09v-5.61h1.09v5.38l.87-.19v-6.6h-2.16v-4.68h4.79v4.68h-1.53v2.25h1.7v1.17h-1.7v2.91c.63-.17 1.1-.29 1.88-.51zm-1.45-10.57h-2.58v2.56h2.58zm9.09-.6v1.11a11.32 11.32 0 0 1-2.42 3 13.86 13.86 0 0 0 3.42 1.51l-.52 1.17a14.11 14.11 0 0 1-3.86-2 17.62 17.62 0 0 1-3.81 2l-.63-1.12a13.43 13.43 0 0 0 3.51-1.62 8.76 8.76 0 0 1-1.65-1.92 7.3 7.3 0 0 1-1.19.88l-.69-.93a7.26 7.26 0 0 0 3-3.24l1.2.18a6 6 0 0 1-.46.93zm-.1 12.82H148v-.66h-4.23v.66h-1.16v-5.83h6.53zm-1.16-4.72h-4.23v3H148zm-3.66-7l-.3.33a7.6 7.6 0 0 0 1.83 2 7.67 7.67 0 0 0 2.13-2.35zM614.8 249v1.06h6.3v1.08h-13.92v-1.08h6.33V249zm5.7 12.67c0 .51-.09 1.25-1.17 1.25h-2.14l-.21-1.17h1.86c.21 0 .41 0 .41-.45v-4.2h-10.2v5.9h-1.28v-6.85h12.73zm-1.56-6.51h-9.62V252h9.62zm-1.25-2.29h-7.11v1.4h7.11zm-.13 8.46h-6.83V258h6.83zM616.4 259h-4.51v1.47h4.51zm.69 6.26a24 24 0 0 1 4.11 4.48l-1.09.81a16.72 16.72 0 0 0-1-1.37c-3.17.39-8.67.51-11.88.51l-.13-1.18h2.46a27.73 27.73 0 0 0 2.55-4.6l1.41.3a41.81 41.81 0 0 1-2.54 4.29h2.36c.82 0 4.23-.23 4.9-.27a20.83 20.83 0 0 0-2.13-2.08zm2.49 12.7h-1.27v-.84h-8.37v.88h-1.25v-6.88h10.89zm-1.27-5.76h-8.37v3.8h8.37zm-3.57 8.46h5.5v1.13h-5.5v1.94h6.34v1.14h-2.55v1.75h2.31v1.14h-2.31v3.77c0 .63 0 1.47-1.37 1.47h-2.71l-.25-1.29h2.55c.41 0 .51-.21.51-.53v-3.45h-9.76v-1.14h9.76v-1.75h-10v-1.14h6.24v-1.94h-5.38v-1.12h5.38V279h1.29zm-2.59 11a17 17 0 0 0-2.43-2.85l1-.72a16.46 16.46 0 0 1 2.55 2.75zm-5.15 7.67a11.47 11.47 0 0 0 4.33-5.31l1.2.42a14.31 14.31 0 0 1-4.6 6zm7-.63a55.05 55.05 0 0 1-3 7.16 59 59 0 0 0 6.74-.62 28.47 28.47 0 0 0-2.45-3.18l1.08-.69a30.38 30.38 0 0 1 4.17 5.85l-1.25.7c-.42-.82-.66-1.24-.92-1.66-2.43.45-7.95.93-10.68 1.06l-.18-1.26c.53 0 1.81-.09 2.08-.12a49.14 49.14 0 0 0 3-7.6zm2.8-4.66a13.59 13.59 0 0 0 4.44 5.4l-.92 1.16a15.46 15.46 0 0 1-4.68-6.06zm3.62 28.96h-1.2v-.64h-10.17v.64h-1.2v-13.45h12.57zm-1.2-12.37h-10.17v10.66h10.17zm-.75 7.12a7.86 7.86 0 0 1-1.47 1.41 10.71 10.71 0 0 0 1.8.77l-.61.93a11 11 0 0 1-3.69-2.42v2.46h-1.08v-2.52a10.74 10.74 0 0 1-3.42 2.12l-.48-1a10.29 10.29 0 0 0 3.67-2.15h-2.88v-2.65H618v2.65h-.06zm-.35-5.4h-3.43v.84h4v.81h-9.18v-.81h4v-.84h-3.41v-.81h3.41v-.68h1.13v.68h3.43zm-1.27 3.21h-5.45v1h5.45zm-2.19 1.84a9.56 9.56 0 0 0 1.5 1.26 8.43 8.43 0 0 0 1.29-1.26zM7.81 24.14h5.29v1.13H7.81v3.06h6.24v1.14H.22v-1.14h6.3v-3.06H1.23v-1.13h5.29v-2.29l-5.66.21-.05-1.22L3 20.8a29.49 29.49 0 0 0 1.5-3.08H.36v-1.14h13.57v1.14h-8c-.56 1.29-1.5 2.91-1.58 3 1.6 0 4.77-.18 6.64-.25A15.58 15.58 0 0 0 9.36 19l.93-.75a15.78 15.78 0 0 1 3.41 3.61l-1 .81c-.33-.46-.54-.75-.84-1.12l-4 .25zM2 49.6H.73V37.06h12.81V49.6h-1.23v-1.11H2zm0-2.28h10.31V38.2H9v5.58c0 .24 0 .39.36.39h.71c.48 0 .48 0 .57-1.62l1.13.25c-.09 1.9-.31 2.58-1.41 2.58H8.88c-.88 0-1-.53-1-1V38.2H5.67V41a6.25 6.25 0 0 1-2.44 5.31l-.88-1a4.48 4.48 0 0 0 2.14-4.3V38.2H2zm11.45 17.23c-3.43-1.71-4.74-3-5.73-4.33V65H6.51v-4.77a15.19 15.19 0 0 1-5.82 4.34L.06 63.4a12.86 12.86 0 0 0 5.33-3.5H.24v-1.14h6.27v-1.6h1.21v1.61h6.33v1.13H8.8a13 13 0 0 0 5.34 3.45zm.21-6.61a23 23 0 0 1-6.51-1.51 27.06 27.06 0 0 1-6.63 1.45l-.33-1.17a22.56 22.56 0 0 0 5.57-1A9.46 9.46 0 0 1 3.55 54 13.12 13.12 0 0 1 .9 55.3l-.52-1.11a10 10 0 0 0 5.05-3.27l1.42.08A6.2 6.2 0 0 1 6 52.09h5.79v1a11.26 11.26 0 0 1-3.18 2.67 21.16 21.16 0 0 0 5.47 1zm-8.88-4.79l-.31.24a8.9 8.9 0 0 0 2.68 1.8 9.86 9.86 0 0 0 2.87-2zM0 78.76a15.36 15.36 0 0 0 2.89-5l1 .72a22.08 22.08 0 0 1-3.06 5.4zm2.47-6.07A9.5 9.5 0 0 0 0 71.11L.69 70a8.74 8.74 0 0 1 2.5 1.54zm.78-3.95A11.61 11.61 0 0 0 .73 67.1l.69-1A11.85 11.85 0 0 1 4 67.67zm10.8-1h-1.14v10.94c0 .67-.13 1.27-1.23 1.27H9.21L9 78.7h2.27c.25 0 .4 0 .4-.36V67.75h-7.4v-1.17h9.78zm-4 8.46H4.86v-6.65h5.22zm-1.16-5.53H6v4.43h2.89zM14 82.76H8.92c-.28 1-.31 1.08-.43 1.41h4.32V90H9v3.76c0 .77-.18 1.17-1.2 1.17H5.92l-.29-1.2h1.66c.42 0 .42-.22.42-.51V90h-3.8v-5.83h3.35a14.11 14.11 0 0 0 .36-1.41h-5v5.29a23.68 23.68 0 0 1-.37 3.78 7.73 7.73 0 0 1-1.16 2.94L0 93.92a6.4 6.4 0 0 0 1-2.59A20 20 0 0 0 1.41 88v-6.36H14zM2.49 93.68a9.57 9.57 0 0 0 2.54-3l1.09.54a12.19 12.19 0 0 1-2.67 3.34zm9.1-8.47H5.1v1.39h6.49zm0 2.37H5.1V89h6.49zm1.62 6.92a14.84 14.84 0 0 1-2.77-3.22l1.06-.56a13.54 13.54 0 0 0 2.64 2.91zm-5.85 2.06V108H1.81v1.14H.66V96.56zM3.45 97.7H1.81v4h1.64zm0 5H1.81v4.14h1.64zm2.79-5h-1.7v4h1.7zm0 5h-1.7v4.14h1.7zm6.08 6c0 .75-.24 1.19-1.2 1.19H8.4l-.21-1.26h2.42c.38 0 .46-.15.46-.42v-9.5H7.92v-1.14h6.18v1.25h-1.79zm600.5 308.74h5.29v1.13h-5.29v3.06h6.24v1.14h-13.83v-1.14h6.3v-3.06h-5.29v-1.12h5.29v-2.29l-5.66.21-.06-1.21h2.17a29.49 29.49 0 0 0 1.5-3.08h-4.12v-1.14h13.57V411h-8c-.56 1.29-1.5 2.91-1.58 3 1.6 0 4.77-.18 6.64-.25a15.58 15.58 0 0 0-1.63-1.54l.93-.75a15.78 15.78 0 0 1 3.41 3.61l-1 .81c-.33-.46-.54-.75-.84-1.12l-4 .25zm14.47-1.44a13.87 13.87 0 0 0-2.37-1.58l.63-1a10.91 10.91 0 0 1 2.47 1.5zm-2.36 6.16a19.26 19.26 0 0 0 2.45-5l1 .64a23.07 23.07 0 0 1-2.54 5.42zm3-10.11a10.8 10.8 0 0 0-2.38-1.59l.69-1a12.79 12.79 0 0 1 2.49 1.5zm6.61.29h3.92v.94h-3.92v1h4.53v1H628.7v-1h4.61v-1h-3.83v-.94h3.83v-.9h-4.23v-1h4.23v-1.07h1.23v1.07h4.33v1h-4.33zm3.71 9.75c0 1.22-.86 1.22-1.41 1.22h-1.92l-.22-1.22h1.81c.36 0 .54 0 .54-.42v-.9h-6.27v2.5h-1.2v-7.12h8.67zm-1.2-5h-6.27v.91H637zm0 1.83h-6.27v1H637zm8.56-5.83v1.17a11 11 0 0 1-4.9 7.62l-.78-1.12a8.82 8.82 0 0 0 4.39-6.45h-4.11v-1.21zm7.89 8.91c-1.37-.92-4.65-3.32-5.76-7.17v7c0 .83-.22 1.44-1.42 1.44h-2.52l-.24-1.28H646c.5 0 .51-.21.51-.46v-12.19h1.25v1.59a10.77 10.77 0 0 0 1.13 4 22.56 22.56 0 0 0 4-3.67l1.08.9a27.75 27.75 0 0 1-4.57 3.84 14 14 0 0 0 4.9 4.83zm9.24-11h5.5v1.12h-5.5V414h6.34v1.14h-2.55v1.75h2.31v1.14h-2.31v3.77c0 .63 0 1.47-1.37 1.47h-2.71l-.25-1.27h2.55c.41 0 .51-.21.51-.53v-3.45h-9.76v-1.14h9.76v-1.75h-10V414h6.24v-1.94h-5.38V411h5.38v-1.62h1.29zm-2.59 11a17 17 0 0 0-2.43-2.85l1-.72a16.46 16.46 0 0 1 2.55 2.75zm-387.83 51.44h5.29v1.13h-5.29v3.06h6.24v1.14h-13.83v-1.14H271v-3.06h-5.29v-1.12H271v-2.29l-5.66.21-.06-1.21h2.17A29.49 29.49 0 0 0 269 467h-4.12v-1.14h13.57V467h-8c-.56 1.29-1.5 2.91-1.58 3 1.6 0 4.77-.18 6.64-.25a15.58 15.58 0 0 0-1.63-1.54l.93-.75a15.78 15.78 0 0 1 3.41 3.61l-1 .81c-.33-.46-.54-.75-.84-1.12l-4 .25zm26.28-5.68h-6.34v1h5.29v5.58h-4.38a14 14 0 0 0 5.59 3.42l-.7 1.18a16.26 16.26 0 0 1-5.81-4.09v4.39h-1.2v-4.39a15 15 0 0 1-5.8 4.11l-.72-1.17a14.67 14.67 0 0 0 5.61-3.45h-4.35v-5.58h5.26v-1h-6.34v-1.12h6.34v-1.29h1.2v1.29h6.34zm-11.65 2.05v1.26h4.11v-1.26zm0 2.23v1.29h4.11V472zm9.46-2.23h-4.16v1.26h4.16zm0 2.23h-4.16v1.29h4.16zm5.08 4.89H306v-11.59h1.29v11.59h4.53v-9h1.28v11.37h-1.3v-1.08h-10.3v1.08h-1.3v-11.41h1.29zm25.26-6.05l-.27 6.3h2.08v1.17h-13.85v-1.17H318a51.06 51.06 0 0 0 1.38-5.14H316v-1.16h3.62c.39-1.77.55-2.85.64-3.46h-4.84v-1.17h12.43v1.17h-6.25c-.19.9-.54 2.57-.72 3.46zm-6.09 1.12c-.19.92-.51 2.47-1.29 5.14h5.78l.25-5.14zm22.34 6.85c-3.43-1.71-4.74-3-5.73-4.33v4.74H336v-4.72a15.19 15.19 0 0 1-5.82 4.33l-.63-1.17a12.86 12.86 0 0 0 5.33-3.5h-5.15v-1.14H336v-1.61h1.21v1.61h6.33v1.14h-5.24a13 13 0 0 0 5.34 3.45zm.21-6.61a23 23 0 0 1-6.51-1.51 27.06 27.06 0 0 1-6.63 1.46l-.33-1.17a22.56 22.56 0 0 0 5.57-1 9.44 9.44 0 0 1-2.21-1.73 13.12 13.12 0 0 1-2.66 1.31l-.52-1.11a10 10 0 0 0 5.05-3.27l1.42.09a6.2 6.2 0 0 1-.88 1.08h5.79v1a11.26 11.26 0 0 1-3.18 2.67 21.16 21.16 0 0 0 5.47 1zm-8.88-4.79l-.31.24a8.9 8.9 0 0 0 2.68 1.8 9.86 9.86 0 0 0 2.87-2zm240.5-342.37c-.06.6-.19 2-.27 4a7.86 7.86 0 0 1 5-2.34c3.87 0 3.87 4.13 3.87 5.1a9.68 9.68 0 0 1-.36 2.85 9.92 9.92 0 0 1 1 1.18l-.93 1.2a6.58 6.58 0 0 0-.8-1.07 3.65 3.65 0 0 1-3.1 1.56c-1.72 0-2.88-.95-2.88-2.25 0-1.07.86-2.25 2.82-2.25a4.79 4.79 0 0 1 2.74.83 11.39 11.39 0 0 0 .2-2.07c0-2.58-.84-3.85-2.62-3.85-2.37 0-4.23 1.86-5 2.65v7.24h-1.29v-2.7c0-.1 0-2.64.06-2.94a15.32 15.32 0 0 1-2 3l-.97-1.22a13 13 0 0 0 3-4.36v-1h-2.67v-1.26h2.71c0-.37.06-2.12.06-2.35zm4.41 9.13c-.71 0-1.59.24-1.59 1.07s1.06 1.07 1.5 1.07a2.53 2.53 0 0 0 2.33-1.25 3.12 3.12 0 0 0-2.24-.89zm-4.41 5.87c-.06.6-.19 2-.27 4a7.86 7.86 0 0 1 5-2.34c3.87 0 3.87 4.13 3.87 5.1a9.68 9.68 0 0 1-.36 2.85 9.92 9.92 0 0 1 1 1.18l-.93 1.2a6.58 6.58 0 0 0-.8-1.07 3.65 3.65 0 0 1-3.1 1.56c-1.72 0-2.88-.95-2.88-2.25 0-1.07.86-2.25 2.82-2.25a4.79 4.79 0 0 1 2.74.83 11.39 11.39 0 0 0 .2-2.07c0-2.58-.84-3.85-2.62-3.85-2.37 0-4.23 1.86-5 2.65v7.24h-1.29v-2.7c0-.1 0-2.64.06-2.94a15.32 15.32 0 0 1-2 3l-.97-1.22a13 13 0 0 0 3-4.36v-1h-2.67v-1.26h2.71c0-.37.06-2.12.06-2.35zm4.41 9.13c-.71 0-1.59.24-1.59 1.07s1.06 1.07 1.5 1.07a2.53 2.53 0 0 0 2.33-1.25 3.12 3.12 0 0 0-2.24-.89zm-2.67 17.36c2.35-.21 3.6-.58 4.44-1.42a5.39 5.39 0 0 0 1.31-3.78 4.3 4.3 0 0 0-4.56-4.54c0 3-1.15 9.81-4.47 9.81-1.75 0-2.8-2.1-2.8-4.3 0-3.72 2.61-6.72 7.06-6.72 4.17 0 6.24 2.55 6.24 5.85 0 5.7-4.8 6.22-6.78 6.38zm-2.66-8.7a5.72 5.72 0 0 0-2.14 4.58c0 1.13.38 2.83 1.54 2.83.79 0 1.29-.79 1.59-1.37a18.08 18.08 0 0 0 1.51-7 5.41 5.41 0 0 0-2.5.96zm-.91 17.49v4.49a2.05 2.05 0 0 0 1.37 1.57 6.46 6.46 0 0 0 2.4.5h7.46l-.23 1.16h-7.23a4.48 4.48 0 0 1-4-1.72 13.25 13.25 0 0 1-2.13 2.17l-.58-1.37a8.08 8.08 0 0 0 1.73-1.41v-4.2h-1.59v-1.19zm-.46-2.35a14.68 14.68 0 0 0-2.16-2.5l.85-.78a11.6 11.6 0 0 1 2.29 2.47zm11.5-.72h-4.74a11.2 11.2 0 0 1-.46 1h4.29v7.54h-8.31v-7.54h2.85a6.47 6.47 0 0 0 .35-1h-4.19v-1.08h2.52a10.86 10.86 0 0 0-.79-1.33l1-.42a9.83 9.83 0 0 1 1 1.75h2.5a10.67 10.67 0 0 0 .79-1.77l1.25.3a10.28 10.28 0 0 1-.83 1.47H584zm-2.13 2H576v1.2h5.89zm0 2.1H576v1.23h5.89zm0 2.13H576v1.3h5.89zm-188.8 60.55v1.23h-6.75v2.21a29.45 29.45 0 0 1 6.13 3.75l-.88 1.23a22.35 22.35 0 0 0-5.25-3.62v8.59H385V240.3h-5.88v-1.23zM379 266.26a15.36 15.36 0 0 0 2.89-5l1 .72a22.08 22.08 0 0 1-3.06 5.4zm2.47-6.07a9.5 9.5 0 0 0-2.43-1.58l.64-1.06a8.74 8.74 0 0 1 2.5 1.54zm.78-3.95a11.61 11.61 0 0 0-2.52-1.63l.69-1a11.85 11.85 0 0 1 2.61 1.58zm10.8-1h-1.14v10.93c0 .67-.13 1.27-1.23 1.27h-2.48l-.2-1.24h2.27c.25 0 .4 0 .4-.36v-10.6h-7.39v-1.17h9.78zm-4 8.46h-5.22v-6.66h5.22zm-1.18-5.53H385v4.42h2.85zm5.13 12.09h-5.1c-.28 1-.31 1.08-.43 1.41h4.32v5.82H388v3.76c0 .77-.18 1.17-1.2 1.17h-1.84l-.29-1.2h1.65c.42 0 .42-.22.42-.51v-3.24h-3.79v-5.82h3.35a14.11 14.11 0 0 0 .36-1.41h-5v5.29a23.68 23.68 0 0 1-.37 3.78 7.73 7.73 0 0 1-1.16 2.94l-1.06-.86a6.4 6.4 0 0 0 1-2.59 20 20 0 0 0 .34-3.28v-6.41H393zm-11.54 10.92a9.57 9.57 0 0 0 2.54-3l1.09.54a12.19 12.19 0 0 1-2.67 3.34zm9.1-8.47h-6.46v1.39h6.49zm0 2.37h-6.46v1.4h6.49zm1.62 6.92a14.84 14.84 0 0 1-2.77-3.22l1.06-.56a13.54 13.54 0 0 0 2.64 2.91zm-10 7.39v4.2a2.38 2.38 0 0 0 1.13 1.79 5.21 5.21 0 0 0 2.32.6h7.63l-.24 1.17h-7.17a4.5 4.5 0 0 1-4-1.86 13.69 13.69 0 0 1-2.15 2.22l-.67-1.29a8.78 8.78 0 0 0 2-1.67v-4h-1.77v-1.2zm-.39-2.38a14.82 14.82 0 0 0-2.38-2.52l.89-.79a12.11 12.11 0 0 1 2.46 2.49zm10.82 0v7.17c0 .48-.11 1.16-1.17 1.16h-1.64l-.21-1.16h1.46c.25 0 .42 0 .42-.45v-1.2h-2.77v2.61h-1.12v-2.64h-2.78v2.79h-1.12V287h3.29a11.13 11.13 0 0 0-1.62-1l.66-.81a14.86 14.86 0 0 1 2 1.25 10.18 10.18 0 0 0 2.38-1.33h-6.89v-1h8.76v1a13.44 13.44 0 0 1-3.39 1.91zm-5 1h-2.78v1.32h2.78zm0 2.26h-2.78v1.33h2.78zm3.9-2.26h-2.77v1.32h2.77zm0 2.26h-2.77v1.33h2.77z"/><path class="cls-9" d="M175.62 69h-1.31V55.58H188V69h-1.31v-1.22h-11zm0-2.43h11V56.8h-3.49v6c0 .26 0 .42.38.42h.75c.51 0 .51 0 .61-1.73l1.2.27c-.1 2-.34 2.75-1.5 2.75H183c-.94 0-1.1-.56-1.1-1.09V56.8h-2.32v3a6.67 6.67 0 0 1-2.58 5.62l-.94-1.1a4.78 4.78 0 0 0 2.29-4.59V56.8h-2.69zm28.26 2.34c-3.67-1.82-5.06-3.22-6.11-4.63v5.06h-1.3v-5a16.22 16.22 0 0 1-6.21 4.63l-.67-1.25a13.72 13.72 0 0 0 5.68-3.72h-5.49v-1.27h6.69V61h1.3v1.71h6.75V64h-5.6a13.92 13.92 0 0 0 5.7 3.68zm.22-7.06a24.56 24.56 0 0 1-6.95-1.62 28.81 28.81 0 0 1-7.08 1.55l-.35-1.25a24 24 0 0 0 5.94-1.06 10.11 10.11 0 0 1-2.35-1.84 13.89 13.89 0 0 1-2.83 1.37l-.56-1.18a10.61 10.61 0 0 0 5.39-3.49l1.52.1a6.62 6.62 0 0 1-.94 1.15h6.18v1a12 12 0 0 1-3.39 2.85 22.58 22.58 0 0 0 5.84 1zm-9.48-5.11l-.34.26a9.52 9.52 0 0 0 2.87 1.92 10.52 10.52 0 0 0 3.06-2.18zm14.3 3.99v4.48a2.54 2.54 0 0 0 1.2 1.91 5.57 5.57 0 0 0 2.48.64h8.15l-.26 1.24h-7.65a4.8 4.8 0 0 1-4.29-2 14.64 14.64 0 0 1-2.29 2.37l-.72-1.37a9.35 9.35 0 0 0 2.08-1.78V62h-1.89v-1.27zm-.42-2.54a15.84 15.84 0 0 0-2.5-2.69l.94-.85a12.89 12.89 0 0 1 2.63 2.66zm11.54 0v7.65c0 .51-.11 1.23-1.25 1.23H217l-.22-1.23h1.55c.27 0 .45 0 .45-.48V64h-3v2.78h-1.2V64h-3v3h-1.2v-8.86H214a12 12 0 0 0-1.73-1.07l.7-.86a15.86 15.86 0 0 1 2.15 1.33 10.9 10.9 0 0 0 2.54-1.42h-7.35V55h9.35v1.07a14.35 14.35 0 0 1-3.62 2zm-5.38 1h-3v1.41h3zm0 2.42h-3V63h3zm4.16-2.42h-3v1.41h3zm0 2.42h-3V63h3zm90.75 244.54h-6.77v1.09h5.65v6h-4.67a15 15 0 0 0 6 3.65l-.78 1.21a17.35 17.35 0 0 1-6.19-4.37v4.69h-1.28v-4.69a16 16 0 0 1-6.19 4.39l-.77-1.25a15.66 15.66 0 0 0 6-3.68h-4.67v-6h5.62v-1.09h-6.77v-1.2h6.77v-1.38h1.28v1.38h6.77zm-12.44 2.19v1.34h4.39v-1.34zm0 2.38v1.38h4.39v-1.38zm10.1-2.38h-4.43v1.34h4.43zm0 2.38h-4.43v1.38h4.43zm-5.9 8.87h1.42v3.92h6.82v1.33H303c1 4.19 2.83 6.53 6.82 8.18l-.9 1.34a11.28 11.28 0 0 1-6.69-7.68 11.85 11.85 0 0 1-6.83 7.65l-.8-1.33a9.89 9.89 0 0 0 6.64-8.12h-6.5v-1.33h6.58zm-.8 29.06a55.53 55.53 0 0 1-5.75 1.46l-.24-1.3.72-.1v-6h1.17v5.75l.93-.21v-7h-2.31v-5h5.11v5h-1.63v2.4h1.81v1.25h-1.81v3.1c.67-.18 1.17-.3 2-.54zM299 337.36h-2.75v2.74H299zm9.7-.64v1.18a12.1 12.1 0 0 1-2.58 3.19 14.8 14.8 0 0 0 3.65 1.62l-.56 1.25a15.08 15.08 0 0 1-4.11-2.08A18.92 18.92 0 0 1 301 344l-.67-1.2a14.3 14.3 0 0 0 3.75-1.73 9.29 9.29 0 0 1-1.76-2 7.73 7.73 0 0 1-1.26.94l-.74-1a7.75 7.75 0 0 0 3.15-3.46l1.28.19a6.32 6.32 0 0 1-.5 1zm-.11 13.69h-1.22v-.7h-4.51v.7h-1.26v-6.23h7zm-1.22-5h-4.51v3.15h4.51zm-3.91-7.49l-.32.35a8.11 8.11 0 0 0 2 2.15 8.21 8.21 0 0 0 2.21-2.5zm-5.54 19.89v4.48a2.54 2.54 0 0 0 1.2 1.91 5.57 5.57 0 0 0 2.48.64h8.15l-.26 1.25h-7.65a4.8 4.8 0 0 1-4.29-2 14.64 14.64 0 0 1-2.29 2.37l-.72-1.38a9.35 9.35 0 0 0 2.08-1.78v-4.23h-1.89v-1.28zm-.42-2.54a15.84 15.84 0 0 0-2.54-2.69l.94-.85a12.89 12.89 0 0 1 2.63 2.66zm11.54 0v7.65c0 .51-.11 1.23-1.25 1.23H306l-.22-1.23h1.55c.27 0 .45 0 .45-.48v-1.28h-3v2.78h-1.2v-2.78h-3v3h-1.2v-8.88H303a12 12 0 0 0-1.73-1.07l.7-.86a15.86 15.86 0 0 1 2.15 1.33 10.9 10.9 0 0 0 2.54-1.42h-7.35v-1.07h9.35v1.07a14.35 14.35 0 0 1-3.62 2zm-5.38 1h-3v1.41h3zm0 2.42h-3v1.42h3zm4.16-2.42h-3v1.41h3zm0 2.42h-3v1.42h3z"/><rect class="cls-11" x="224.64" y="163" width="84.5" height="21" rx="10.5" ry="10.5"/><path d="M251.6 168.76h-6.34v1h5.29v5.58h-4.38a14 14 0 0 0 5.59 3.42l-.7 1.18a16.26 16.26 0 0 1-5.81-4.09v4.39h-1.2v-4.39a15 15 0 0 1-5.8 4.11l-.72-1.17a14.67 14.67 0 0 0 5.61-3.45h-4.35v-5.58h5.26v-1h-6.34v-1.12h6.34v-1.29h1.2v1.29h6.34zm-11.65 2.05v1.26h4.11v-1.26zm0 2.23v1.29h4.11V173zm9.46-2.23h-4.16v1.26h4.16zm0 2.23h-4.16v1.29h4.16zm5.08 4.89H259v-11.59h1.29v11.59h4.53v-9h1.28v11.37h-1.3v-1.08h-10.3v1.08h-1.29v-11.41h1.29zm25.51 2.33a26.22 26.22 0 0 0-4.47-2.4 14.7 14.7 0 0 1-7 2.37l-.43-1.32a15.69 15.69 0 0 0 6.13-1.59 45.34 45.34 0 0 0-4.89-1.58 17.66 17.66 0 0 0 2-2.82h-3.62v-1.18H272a15.58 15.58 0 0 0 1-2.25l1.38.25c-.17.41-.36.9-.9 2h8.13v1.18h-2.71a9.43 9.43 0 0 1-2.29 4 34.56 34.56 0 0 1 4.24 2.14zm-6-12.57v-1.35h1.29v1.35h6V171h-1.27v-2.11h-10.66V171h-1.27v-3.27zm-1.19 5.23a17.36 17.36 0 0 1-1.46 2.22c1.08.31 2.58.75 4.08 1.32a8.38 8.38 0 0 0 2.17-3.54zm13.41-6.53h1.25v2.89H292v-2.89h1.23v2.89h3.15v1.19h-3.15v4h3.39v1.19h-3.39v4.65H292v-4.65h-4.89c-.31 1.3-1 2.89-3.6 4.65l-.85-1c2.31-1.47 2.91-2.75 3.16-3.63h-3.1v-1.19h3.38a10.41 10.41 0 0 0 .12-1.57v-2.38H283v-1.19h3.24zm1.25 6.42a15.15 15.15 0 0 1-.12 1.62H292v-4h-4.54z"/><path class="cls-5" d="M570.14 249h32v77h-32z"/><circle class="cls-12" cx="278.14" cy="257" r="15"/><circle class="cls-12" cx="547.14" cy="214" r="15"/><circle class="cls-9" cx="547.14" cy="214" r="9"/><path class="cls-13" d="M111.14 346H1.64V173h109.5v79.5l145.5 4.5-145.5 4.5V346z"/><path class="cls-14" d="M54.34 192.38a5.38 5.38 0 0 1 2.4 1.6c.32.36.19 1 .67 1.2s1.24 0 1.6.33a1.06 1.06 0 0 1-.27 1.13l-1.2.87.07.4.13.27c1.62 0 3.71 1.25 4.13 2.67-.39.3-1.6 2.81-2.2 2.73-.37.11-.49 0-.73.2-.73.37-.46 1.49-.53 2.33l-1.73 1.13v.2c1 .57 1.39.1 2.2.2a7.3 7.3 0 0 1 3 1.27 3.11 3.11 0 0 1-.8 2.8c-1.25-.22-3.48-1.52-4.4-1.33-.42 1.27-.22 3.59-1.67 4a17.08 17.08 0 0 0-1.53-1.8 20.2 20.2 0 0 0-1.13-1.8H52a7.16 7.16 0 0 1-1.67 1.6l-.27-.07c-.76-1.65-1.46-1.13-2.4-2.33l.07-.2c.92-1.43 2.73-1.12 2.93-3.47l-.2-.2c-.84.08-1.31.27-1.87-.2s-.32-.82-.47-1.47c-.49-2.12-.25-5 1.67-6.27l.33.07a3.16 3.16 0 0 0 .93 1.4 2.42 2.42 0 0 0 1.93-.8l.13-.47c-1.22-.89-2.6-.51-3.4-1.8l.13-.47.4-.6c1.06 0 1.95.37 2.6-.07a2.72 2.72 0 0 1-.4-1.33 3.86 3.86 0 0 1 1.9-1.72zm1.93 2zm-5.13 3.13h-.07l-.07-.27c.14.13.08.03.14.27zm6.67 4.4a1.19 1.19 0 0 1-.8.2 7.62 7.62 0 0 1-.47-1.53l1.07-.67a1.66 1.66 0 0 1 .2 2zm-7.13-1.07l-.13.13v-.2zm-1.93 0v.2h-.2l.07-.2zm2.6.07zm.33.8a2 2 0 0 1-.07 1 3.82 3.82 0 0 0 1.93 1.67c.46.14.65 0 .93.27-.87.83-2.39.22-3.6.47l-.27-.33a6.44 6.44 0 0 1 .2-2.93l.4-.27zm-1.6.73zm6.87 1l.27.8-.47.07-.4-.27a1 1 0 0 1 .27-.67zm-1.73 4c-.15.68-1.14.52-2 .47l-.2-.53 1.2-.4a4.63 4.63 0 0 1 .99.46zm1.13 1.27c-.12.13 0 0-.2.13l.07-.13zm-1.2.87l.2.4c-.23 1.23-1.63-.07-2.2-.2l-.07-.27.2-.33c.81.09 1.29.41 1.86.39zm-3.27 0l.07.2c-.13-.12 0 0-.13-.2zm-1.2 1.6l.07-.13c-.04.06.05.04-.08.12zm3.8 4.67a1.35 1.35 0 0 1 .8.27c.26 1.39 2.24 1.45 2.93 2.47l.6 1.53c.63 1.79-3 4.2-2.27 5.73.93 0 1.84-.2 2.47-.27.11.88-2.29 2.18-3 2.67-1.23.85-3.51 2.9-4.6 3.33-.43.17-3.6-2.3-3.87-2.67.1-1 .87-1.73 1.2-2.53l.53-3.4c2.18-.83 2.47.84 3.73 1.53a.81.81 0 0 0 .87-.07c.15-.4.74-3.23.8-3.27a3.15 3.15 0 0 1-.07-.93c-.32-.95-.85-3.27-.4-4.33zm6.93 7a1.61 1.61 0 0 1 .93.13c1.69.62 1.46 6.06.47 7.4a3 3 0 0 1-1.73.93c-1.28-.86-1.45-2.2-2.27-3.47.45-1.16 1.33-.36 1.93-1.33.73-1.18-.15-2-.2-2.8.23-.4.56-.56.86-.87zm-7.93 2.6a2 2 0 0 1 .07.8l-.33.33-.2.13a.7.7 0 0 1-.33-.53c-.09-.33.19-.57.4-.8zm3.93 17c6.81 1.12 17.3 9.91 11.86 17.33-4.22.27-5.12-3.94-8.33-5.2l.13-.47c.51-.08.63-.4.6-1-1.24-1.84-1.61-4.17-3.2-5.67a4.28 4.28 0 0 0-.8-1.93c-.53-.56-1.31-.78-1.8-1.4a3 3 0 0 1 .67-1.53c.36-.01.64.03.87-.15zm-11.4.33c2.36.7 7.51 5 7.46 7.6 0 1.16.88 2.23.13 3.4-.55.85-2 1.13-2.8 1.73-2.64 1.94-2.92 3.35-7 4.2-2.15.45-5.66-1.5-4.53-3.47 2.8-.24 5.73-4.54 6.73-6.68l.2-2c.43-1.45-2.11-2.24-.2-4.79zm.07 9.33l-.07.2v-.2zm15.13 14.6c2.52.16 6.47.5 8.26 2.2-.2.87.25 2.09-.2 2.87-.25.43-.7.28-1.07.47-3 1.53-4.49-2.75-7.93-2.07-2.4.47-4.63 2-6.53 3-1 .56-2.16.64-3.07 1.27l.53.67c.35.91-.58 1.76.13 2.4 2.42-.91 4.75-4.82 7.2-5.07 2.24 1.75 5.62 3.75 6.33 6.73.17.73-.6 1.49-.73 2.07l.07 3c-.25 3.1 2.16 4.85-1.33 6.73-.41.22-.5.72-1 .87.12 2.73-2.6 2.65-4.2 1.67L54 290.09l-.33-1.2-1.4-1.89c-.29-.73-1.1-2.26-.93-3.47.23-1.72 1.74-5 4.53-3.6l2.4 2.2c.41 0 .35.05.6-.13 0-1.9 0-6-1.67-6.6-1.29-.51-3 2.16-3.53 2.87l-2.4 1.73c-.67.68-.49 1.55-1 2.47l-.93 1.4-.47 2.93a11.82 11.82 0 0 1-2.4 5.07c-2.37 0-2.58-1.82-3.33-3.47-.32-.69-1.45-2.28-.67-3.27.43-.54 1-.65 1.27-1.4l.4-3.13c.54-1.12 2-2.8 1.33-4.4-3.08-.32-3.91-1.94-5.2-4.2-.31-.54-1.49-2-.73-2.67a17.16 17.16 0 0 0 5-.2c1-.22 1.43-1.21 2.53-1.27l3.6.8a12.69 12.69 0 0 0 3.07-1.07l1.67.07c2.04-.3 3.99-.23 5.79-.97zm-11.07 11.85l.07.07c-.53 1.14-2.56 3.48-4.27 3.47l-.2-.4v-.07c.93-.33.64-1.13 1.33-1.53 1-.58 1.84-.93 2.73-1.53zm3.4 3.33a9 9 0 0 1 1.2 3.2c.61.37 1.8 1.22 2.8.87.29-.1.43-.32.87-.4a7.33 7.33 0 0 1-1.34 3.44c-2.44-.79-5.37-3.68-4.33-6.93l.27-.2zM47.14 296l.6.07c.16.33.63.67.87 1.07l.33 1.33c.71 1.32 1.41 2.75 2.13 4.2a3.91 3.91 0 0 1 .07 3.07l-1 .4c-.67.39-3.93 3-4 3.73.61.48 1.73 3.27 1.73 3.27.13.16 0 0 .07.2 1.39-.93 1.38-3.32 2.67-4.33.2.08.08 0 .2.13.32 1.1-.4 3.78-.6 4.8 1-.17 5.35-3 4.87-4.27-.58-1.46-2.06-1.46-2.27-3.8l.13-.13s3.72.41 4.07.13.28-.47.27-.93c-1.25-2-3.26-.6-4.8-1.87a2.22 2.22 0 0 1 1.07-1.47l.13.07c.14-.15.34-.82.6-1.07.9-.88 2.51-.76 3.67-1.27 2-.87 4.08-3.31 6.93-1.87.82.41 1.88 2.22 2.73 2.87.7.53 1.91.9 2.27 1.73 1 2.91-4.41 3.05-5.6 4.53a6.78 6.78 0 0 1 .47 1.8c-.45.64-2.27 1.19-1.87 2.13a3.6 3.6 0 0 0 2.8-.53c.34-.32.1-.56.67-.73 1.48 2.15 5.51 0 4.8 5-.51.26-.82.87-1.47 1-2.3.47-4.53-.64-7-.33l-.13.33a16 16 0 0 1 .13 2.87l-.07 3.6a5.65 5.65 0 0 1-6.33 3.67c-1-.24-2.43.19-3.33-.4v-.07l.07-.13c.38-.71 1.72-.69 2.2-1.33.69-.92 3.49-6.48 2.67-7.46-.59-.86-2 .38-2.4.8-.22.23-.12.55-.4.73-1.21.8-3.44-.12-4.13-1l-.2-1.47-.53-.27-.4.27c-.16 2.2-1.21 7.36-2.6 8.13-.33-.14-1.09 0-1.27-.4a39.2 39.2 0 0 1-3.53-4.27c.15-1.3 2.29-3.11 1.67-3.93-.32-1-2.08-1.72-2.93-2.2-.44-2 .57-2.7 1.33-4.13 1.48-2.77 3.8-6.95 2.47-9.86a11.25 11.25 0 0 1 2.17-2.41zm15.8 7l.4.33c0 .86-.7.93-.87 1.8a2 2 0 0 1-1.67-1.67l.4-.33c.16-.16.29-.08.53-.2zm-5.2 7.53a1.88 1.88 0 0 1 .2 1.4c-.84.34-1.81.56-2.47.8l-.13-.13a4.06 4.06 0 0 1 2.13-2.07zM87.1 194a4 4 0 0 1 3.12 2 45.81 45.81 0 0 1 5.08.08c.49.18.71.7 1.35.92.1 1.11 0 1-.47 1.67a19.28 19.28 0 0 1-3.26-.67 22.93 22.93 0 0 0-8 .5l-.16.33c.3.37.76.73 1.1 1.08.51-.19.53-.14 1.08.08v-.25l-.25-.08c.55-.45 3.84-1.24 5.15-.75l1 .92-.03 1.17-1.74.67c0 .52-.17.47 0 .75.35.16.38.18.43.67l-.25.17-1.58.17c-.33 2 0 3.77 0 6.25a1.21 1.21 0 0 0-.49.67c-1.4-.18-3-.69-3.46-2.33 1.11.08 1.29.49 2.08-.08.22-.83.67-2.79 0-3.42l-2.09-.33c-.95-1.64-1.63-2.72-1.35-5.08-2 .27-2.57.35-3.53-1.5-.21-.41-.43 0-.26-.58 2.3 0 3.69.28 5.57-.42-.11-.5.19-.61.74-.67-.1-.86-.26-1.46.22-1.94zm6 2.5l.09.25c.32 0 .11.09.33-.08zm-6 3.42l.17.17zm1.9 1.2l.15-.75a4.75 4.75 0 0 0-2.82.58 1.18 1.18 0 0 0 .27 1.17 1.11 1.11 0 0 0 1-.17l.82-.75zm.41-.33zm-3.3 6.08l-.83.17c0 .65-.14.52-.23 1.17l-1.41.33-.85-.92c.12-.54 0-.95.14-1.33l.42.08-.42-.33a2.19 2.19 0 0 0 .31-1.42c.35-.08.28-.1.5-.25l.67.33a3.78 3.78 0 0 0 .19 1.08l1.84.17v.42c-.29.27-.28-.05-.34.5zm5.45-2.42c1.46.27 2 1.23 3.12 1.83v.25l-.33.08v.08l.25.08c.26 0 .15-.09.25.25-.35.28-.15.68-.15 1a3.68 3.68 0 0 1-2.49.33V208l.49-.5c-.41-1.1-1.12-1.77-1.15-3.05zm-8.22 1.17zm1 .75l-.17-.17zm9.75.33l-.17-.17zm-.41.58l.17.17zm-10.49.33l-.17-.17zM87 218.95a2.57 2.57 0 0 1-.88 1.92 2.36 2.36 0 0 1-2-.08 4.77 4.77 0 0 0-.12-2c-.26 0-.12.08-.33-.08.09-.52-.73-2-1.2-2 .05-1-.61-1.76 0-2.5l.49-.5-.17-.33c1-.64 1.63-1.47 2.71-2.08s5.16-.4 6.59.33c.25.88 2 1.31 2.3 2.5l-.25-.08c2.54 3.55-.63 7.4-3.84 8.08v-.5c1.1 0 1.13-2.07 2.12-2.25L92 219c.9-1.43.45-4-.35-5.41-.38-.67-1.78-1.42-2.12-1.75-.24.22-1.29.07-1.67 0l-.08.08c.1.47-.22 2.14.38 2.58a24.21 24.21 0 0 0-.75 4.41zm4.28-7l-.08.17.25-.17zm-5.88 6.33c.24-1.63 2-4.43 1.05-5.83l-.66.08c-.24.64-.79.77-1.14 1.25a3.82 3.82 0 0 0 .25 4.5zm-1.94-5.41l-.08.25c.17-.15.06 0 .16-.25zm-.23.83c.13.16.15.15.34.25v-.25zm.67.08l.17.17zm9.59.33zm-9.72 1.25l.17.08zm10.83.17l.17.25c-.12-.25-.01-.1-.18-.25zm-8.15.5l-.08.17c.14-.1.03-.07.07-.2zm6.88 2.42zm-8.83.55zm8.16.08v.25l.08-.25zm-6.56 1.25l-.17-.17zm5.73 3.58a4.47 4.47 0 0 1 2.6 1.08c-.06.45.1.85.11 1.58-2.11 1.14-2.09-.65-3.38-2.33l.08-.25zm-5.82.58a1 1 0 0 1 .67.17 3.29 3.29 0 0 1 .86 1.58c-1.26 1.26-.74 3.55-.32 5l1.75.08v-.42c.74-.1 1.33-.28 1.83 0l.08-.42c.23.27.17.31.59.42l-.09-.42c.7.62.83.13 1.76.33a6.38 6.38 0 0 1 2.37 1.75c-.07 1 .86 2.64-.43 3.58-1.82 1.33-5 .55-5.45-1.83 1.38.21 1.8.94 3.51.58.08-.4.09-.42.41-.58-.33-.83.07-1.27-.7-1.83-1.14-1.73-3.77-.25-5.24.17l-.32.92-.17-.25a2.63 2.63 0 0 1-1.12 2.62 1.49 1.49 0 0 1-1.42-.08c.07-.37.13-.35-.26-.5-.44-.51-1.73-1.51-1-2.25.43-.49 1.13-.37 2.08-.33-.16-.56 0-.41.32-.83-.44-.35-.48-2.34-.64-3.08a3.85 3.85 0 0 1-1.67-.33 3.69 3.69 0 0 0-.6-1l.08-.42c3.73.06 1.91-.45 3.11-2.59zm8.09.67zm-.07.75l.09.17.08-.17zm-7.87 2.5zm0 .67l.09.17.08-.17zm.5.17l-.17-.17zm-.14 1.17c.17.17 0 .09.34.17zm4.35 1l.17.08zm.67.17l-.17-.17zm.5-.17l.17.17zm1.42 0l.34.17zm-.58.25zm-5.91.25zm6.75.08l-.08.08.17.17V232zm1 .08l.17.17zm-11.3 1.25zm2.7 1.92zm7 .42l-.25-.17zm1.83-.17l.17.17zm-3.82.58l.17.08zm-.64 1.33c.54.23 1.08.29 1.35.75v.75c.91 0 1.57-.26 2.09.33l.09.25c-.62.38-1.5.45-1.9 1l.51.33c.16-.42.35-.31.83-.33.21.53.56.38.77.92-.55.19-1.7.66-2.15.75v.25l.09.17c1.29 0 2.55-.42 3.67.08.24.55.56.35.69 1.08h-.08c-1.34-.57-6.54-.19-8.65.75-.12-.33 0-.15-.25-.25.09.35.12.14-.07.5l-.75-.08a1.46 1.46 0 0 0-.84-.58l.08-.33c1.12 0 2.86-.22 3.48-.92v-.08c-.76-.1-1.36-.07-1.6-.83a9.75 9.75 0 0 0 2.41-.42l-.1-.67c-.78-.07-2 .26-2.6-.92l.08-.17 2.5-.17-.17-.42h.42c0-.7-.49-1.16-.44-1.33s.29-.21.56-.38zm-6.65.92c.79.07.81.26 1.43.58-.09-.22-.13-.14-.09-.33.24.27.25.38.68.5 0 .62 0 .11.18.83-.45.25-.59.77-1 1s-1 .26-1.41.5l-.34-.25a2 2 0 0 0 .73-1.08c-.15-.6-.4-1-.53-1.67zm0 .33c.15.17 0 .06.25.17zm9.84.83l-.17-.17zm-4.16.5l.17.17zm1.85.67c.15.17 0 .06.25.17zm-3.14 1.5l.17.08zm5.26.75l.17.08zm-9.24.25l.84.17.26.67c-.36 1-1.69 2.09-2.44 2.83h-.33c.16-.75.44-.81.47-1.67-.3-.31-.49-.28-.6-.83a5.89 5.89 0 0 0 1.84-1.14zm12.18 9.75l-2.84-.33v-.25l.41-.42-1.53-1.75c.28-.08.15.09.25-.25l.59.17-.09-.5a4.11 4.11 0 0 0-2.91.5l.18.83c-.56.14-2.69 3.37-3.88 1.83 0-.28.15-.08-.09-.33h-.08l.09.33h-.33l-.08-.08c.07-.62 2-1.13 2.55-1.67-.61-.47-1-.32-1.52-1.08l1-.33a9.73 9.73 0 0 1 0-3.91l-.34-.25.08-.25.17-.08.34.17a5.16 5.16 0 0 1 .94 1.08l-.15.75.93.5c.19-.51 1.59-.69 2-.92l.93.67v.25c-.69.12-1.4.66-2.07.75.15.17 0 .06.25.17a5 5 0 0 0 2.16-.25c0-1.29.13-2.73-.48-3.25-.93-.6-2 .26-3.41.25l-.26-.42c.22-.23.17-.21.5-.17a5.28 5.28 0 0 1 5 .08c-.21.95.79 2.13.48 3.17a7.39 7.39 0 0 0-.7 2.5l.67.17c-.08.31-.16.24 0 .42a5.2 5.2 0 0 1 1.36 1.17c-.13.3-.11.29-.08.75zm-9.41-8.58l-.17-.08zm-3.91.42zm2.25.25l.25.08.09.25c-.34.41-.15.47-.23 1l-.25-.08c.18 1.15-.87 4.66-1.41 4.66.25.63 0 .84-.22 1.58a.57.57 0 0 0-.33.08c-.75-.43-.75-1.16-1.2-1.75l.25.08a4 4 0 0 1 0-2.42h.08a1.15 1.15 0 0 0 .6.67h.25c.2-.63.65-.41.9-.83a18.84 18.84 0 0 0 1.27-3.32zm6.5.33l.84.17-.07.58c-.75.27-1.53.5-2.07.75a1.37 1.37 0 0 1-.77-.92c.85.09 1.72.01 2.12-.56zm-8.66.25c.2.18 0 0 .25.08v-.08zM93.78 247l-.17-.08zm-4.82.5l-.17-.08zm.51.67l-.16.25.18.75 1.16-.17.24-.5v-.08l-1.16.33v-.58zm4.47 2.67l.06.16.08-.17zM83 251l-.17-.08zm-.33.17zM95 252.43l-.17-.17zm-7 0l.09.17.08-.17zm6.08.17l-.17-.17zm-7.17-.08c.15.17 0 .06.25.17zm4.74 8.41c-.2 1.61-2.88 4.63-4.34 4a.83.83 0 0 0-.1-.75c.77-1.15 2.27-1.86 2.52-3.5h-.25c-.34.58-.89.58-1.4.92l-.59-.42-.1-.83a7.35 7.35 0 0 0 2.13-6.08l.58-.25c-.26-.17-.13.08-.25-.25a5 5 0 0 1 1.42.42l.77 1c-.3.24-.09.4-.23.83l-.25-.17a3.51 3.51 0 0 1-1.28 2.83l.34.58c.9-1 4.61-1 5.16-.33.06.29.26.44.68.58-.14 3.56-.63 8.38-4.15 9.41a6.73 6.73 0 0 1-1.61-1.58 2.6 2.6 0 0 1-3.09-.33c.46-.58 1.5-.62 2-1.17a43.53 43.53 0 0 0 2.75-4.41l-.18-.5zm-.65-6.58l.09.17.08-.17zm-6.49.42a5.63 5.63 0 0 1 1.84.33 8.7 8.7 0 0 0 .13 2.58 1.86 1.86 0 0 1 1.43.58l-.23.92a3.8 3.8 0 0 0-1.65.67 2.61 2.61 0 0 0 .27 1.08c.35 0 .29-.13.5.17.17.58-.69 1.39-.88 1.92-.45 1.25.16 2 .31 2.92a6.64 6.64 0 0 1-.93 3.42l-.75-.17c-.83-2.06-2.56-1.53-2.91-4.25l.51.42.17-.08-.43-.67h1.08c.15-.64.38-.31.74-.67.94-.93 1-1.6.94-3.25a1.48 1.48 0 0 0-1.82.83c-1.46-.37-.71-2.09-.39-2.83a18.51 18.51 0 0 0 0-2.08l.83-.25.76.42c-.06.68-.3 1.4.12 1.92l.5-.17c-.32-.86.07-2.47 0-3.17h-.33zm.68.75l-.17-.17zm-2.54 2v.17c.08-.15.08-.03 0-.18zm-.07.92l.17.17zm11.95 1.83c0-.35 0-.33-.18-.5l-.34-.33c-.3.17-.29 0-.41.33.4.23.3.41.93.49zm-1.5.17v.25h.25v-.08zm1.08 0c.17.25 0 .13.34.25v-.08zm.1.92c-.74.85-1.26 3.82-2.43 3.75a1.59 1.59 0 0 1-.31 1.33l.09.33a4.32 4.32 0 0 0 1.33-.08c.21-.92 1.83-3.62 1.4-5.33zm-.1 3.67l-.17-.17zm-10.23.75a1 1 0 0 0-.07.83h.33a1.67 1.67 0 0 1 .07-.75zm-.83.08zm.19 1.25l.26.33h.08c-.13-.36.02-.22-.33-.35zm.42 0l.25.25zm1 0l.17.08zm5.59.25l-.17-.08zM84 268l-.17-.17zm1.09.58v.17c.1-.14.1-.01.02-.16z"/><path d="M22.54 267.58a15.49 15.49 0 0 0 8 7.34v.14a3.67 3.67 0 0 0-2.36 2.24c-4.26-3.2-5.7-8.3-6-9.64v7.74h.46l.92-1.18c.1-.12.2-.26.3-.26s.26.14.36.22l1.22 1.16a.57.57 0 0 1 .2.32c0 .2-.2.22-.3.22H22.2v3.68c0 .6 0 1.5-1.54 1.5-.86 0-.9-.54-.9-1 0-.22.12-3.5.14-4.16h-.8a12.06 12.06 0 0 0-2.16.12l-.32-.72c.9.08 1.92.12 2.84.12H20c0-3.76.06-4.18.06-5.08a21.64 21.64 0 0 1-8.1 7.2l-.08-.14a25 25 0 0 0 6.8-9.8H15a9.44 9.44 0 0 0-2.16.14l-.34-.74c.92.08 1.94.12 2.86.12H20v-.44a17.38 17.38 0 0 0-.32-3.82l3 .64c.28.06.4.14.4.28s-.24.42-.9.8v2.54h4.18l1.12-1.36c.12-.14.2-.26.3-.26s.18.06.36.22l1.6 1.36a.54.54 0 0 1 .2.3c0 .2-.2.22-.3.22zM20.1 306a8.69 8.69 0 0 0-.32-3.12l3.1.52c.22 0 .42.16.42.32s-.42.48-.82.7V306h4l.94-1.44c.08-.12.18-.26.32-.26s.26.14.38.22L30 306a.47.47 0 0 1 .18.3c0 .2-.18.22-.3.22H16.3a58.19 58.19 0 0 1-.24 7.12 10.87 10.87 0 0 1-3.88 7.14l-.12-.1c1.38-2.5 2.06-5.5 2.06-10.86a27 27 0 0 0-.32-4.94l2.66 1.12zm6 4.5l.9-1.36c.08-.12.18-.26.32-.26a.66.66 0 0 1 .36.2l1.74 1.4c.1.08.2.14.2.3s-.16.2-.3.2h-6v3.4h2.16l.82-1.16c.06-.1.16-.24.3-.24s.16.08.38.22l1.52 1.06c.12.08.3.24.3.4s-.06.22-.68.72c0 .9 0 2.24.06 3.4 0 .1.06 1.08.06 1.1 0 1.2-1.28 1.2-1.44 1.2-1.08 0-1.06-.52-1-1.18h-6.5c0 .32.1 1.4-1.36 1.4-1 0-1-.48-1-.72 0-.44.06-2.38.06-2.78a29 29 0 0 0-.16-4.56l2.74 1.14H21c0-5 0-6.08-.38-7.2l2.92.52c.14 0 .42.08.42.34s0 .24-.62.62v1.84zm-6.82 4.36v4.56h6.52v-4.52z"/><path class="cls-13" d="M648.14 26h109.5v173h-109.5v-19.5l-82.5 20 82.5-29V26z"/><path class="cls-14" d="M699.34 45.38a5.38 5.38 0 0 1 2.4 1.6c.32.36.19 1 .67 1.2s1.24 0 1.6.33a1.06 1.06 0 0 1-.27 1.13l-1.2.87.07.4.13.27c1.62 0 3.71 1.25 4.13 2.67-.39.3-1.6 2.81-2.2 2.73-.37.11-.49 0-.73.2-.73.37-.46 1.49-.53 2.33l-1.73 1.13v.2c1 .57 1.39.1 2.2.2a7.3 7.3 0 0 1 3 1.27 3.11 3.11 0 0 1-.8 2.8c-1.25-.22-3.48-1.52-4.4-1.33-.42 1.27-.22 3.59-1.67 4a17.08 17.08 0 0 0-1.53-1.8 20.2 20.2 0 0 0-1.13-1.8H697a7.16 7.16 0 0 1-1.67 1.6l-.27-.07c-.76-1.65-1.46-1.13-2.4-2.33l.07-.2c.92-1.43 2.73-1.12 2.93-3.47l-.2-.2c-.84.08-1.31.27-1.87-.2s-.32-.82-.47-1.47c-.49-2.12-.25-5 1.67-6.27l.33.07a3.16 3.16 0 0 0 .93 1.4 2.42 2.42 0 0 0 1.93-.8l.13-.47c-1.22-.89-2.6-.51-3.4-1.8l.13-.47.4-.6c1.06 0 1.95.37 2.6-.07a2.72 2.72 0 0 1-.4-1.33 3.86 3.86 0 0 1 1.9-1.72zm1.93 2zm-5.13 3.13h-.07l-.07-.27c.14.13.08.03.14.27zm6.67 4.4a1.19 1.19 0 0 1-.8.2 7.62 7.62 0 0 1-.47-1.53l1.07-.67a1.66 1.66 0 0 1 .2 2zm-7.13-1.07l-.13.13v-.2zm-1.93 0V54h-.2l.07-.2zm2.6.07zm.33.8a2 2 0 0 1-.07 1 3.82 3.82 0 0 0 1.93 1.67c.46.14.65 0 .93.27-.87.83-2.39.22-3.6.47l-.27-.33a6.44 6.44 0 0 1 .2-2.93l.4-.27zm-1.6.73zm6.87 1l.27.8-.47.07-.4-.27a1 1 0 0 1 .27-.67zm-1.73 4c-.15.68-1.14.52-2 .47l-.2-.53 1.2-.4a4.63 4.63 0 0 1 .99.46zm1.13 1.27c-.12.13 0 0-.2.13l.07-.13zm-1.2.87l.2.4c-.23 1.23-1.63-.07-2.2-.2l-.07-.27.2-.33c.81.09 1.29.41 1.86.39zm-3.27 0l.07.2c-.13-.12 0 0-.13-.2zm-1.2 1.6l.07-.13c-.04.06.05.04-.08.12zm3.8 4.67a1.35 1.35 0 0 1 .8.27c.26 1.39 2.24 1.45 2.93 2.47l.6 1.53c.63 1.79-3 4.2-2.27 5.73.93 0 1.84-.2 2.47-.27.11.88-2.29 2.18-3 2.67-1.23.85-3.51 2.9-4.6 3.33-.43.17-3.6-2.3-3.87-2.67.1-1 .87-1.73 1.2-2.53l.53-3.4c2.18-.83 2.47.84 3.73 1.53a.81.81 0 0 0 .87-.07c.15-.4.74-3.23.8-3.27a3.15 3.15 0 0 1-.07-.93c-.32-.95-.85-3.27-.4-4.33zm6.93 7a1.61 1.61 0 0 1 .93.13c1.69.62 1.46 6.06.47 7.4a3 3 0 0 1-1.73.93c-1.28-.86-1.45-2.2-2.27-3.47.45-1.16 1.33-.36 1.93-1.33.73-1.18-.15-2-.2-2.8.23-.4.56-.56.86-.87zm-7.93 2.6a2 2 0 0 1 .07.8l-.33.33-.2.13a.7.7 0 0 1-.33-.53c-.09-.33.19-.57.4-.8zm3.93 17c6.81 1.12 17.3 9.91 11.86 17.33-4.22.27-5.12-3.94-8.33-5.2l.13-.47c.51-.08.63-.4.6-1-1.24-1.84-1.61-4.17-3.2-5.67a4.28 4.28 0 0 0-.8-1.93c-.53-.56-1.31-.78-1.8-1.4a3 3 0 0 1 .67-1.53c.36-.01.64.03.87-.15zm-11.4.33c2.36.7 7.51 5 7.46 7.6 0 1.16.88 2.23.13 3.4-.55.85-2 1.13-2.8 1.73-2.64 1.94-2.92 3.35-7 4.2-2.15.45-5.66-1.5-4.53-3.47 2.79-.18 5.69-4.53 6.73-6.67l.2-2c.43-1.46-2.11-2.25-.2-4.8zm.07 9.33l-.07.2v-.2zm15.13 14.6c2.52.16 6.47.5 8.26 2.2-.2.87.25 2.09-.2 2.87-.25.43-.7.28-1.07.47-3 1.53-4.49-2.75-7.93-2.07-2.4.47-4.63 2-6.53 3-1 .56-2.16.64-3.07 1.27l.53.67c.35.91-.58 1.76.13 2.4 2.42-.91 4.75-4.82 7.2-5.07 2.24 1.75 5.62 3.75 6.33 6.73.17.73-.6 1.49-.73 2.07l.07 3c-.25 3.1 2.16 4.85-1.33 6.73-.41.22-.5.72-1 .87.12 2.73-2.6 2.65-4.2 1.67l-3.67-3.4-.33-1.2-1.4-1.87c-.29-.73-1.1-2.26-.93-3.47.23-1.72 1.74-5 4.53-3.6l2.4 2.2c.41 0 .35.05.6-.13 0-1.9 0-6-1.67-6.6-1.29-.51-3 2.16-3.53 2.87l-2.4 1.73c-.67.68-.49 1.55-1 2.47l-.93 1.4-.47 2.93a11.82 11.82 0 0 1-2.4 5.07c-2.37 0-2.58-1.82-3.33-3.47-.32-.69-1.45-2.28-.67-3.27.43-.54 1-.65 1.27-1.4l.4-3.13c.54-1.12 2-2.8 1.33-4.4-3.08-.32-3.91-1.94-5.2-4.2-.31-.54-1.49-2-.73-2.67a17.16 17.16 0 0 0 5-.2c1-.22 1.43-1.21 2.53-1.27l3.6.8a12.69 12.69 0 0 0 3.07-1.07l1.67.07c2.04-.35 3.99-.28 5.79-1.02zm-11.06 11.86l.07.07c-.53 1.14-2.56 3.48-4.27 3.47l-.2-.4v-.07c.93-.33.64-1.13 1.33-1.53 1-.58 1.84-.93 2.73-1.53zm3.4 3.33a9 9 0 0 1 1.2 3.2c.61.37 1.8 1.22 2.8.87.29-.1.43-.32.87-.4a7.33 7.33 0 0 1-1.33 3.47c-2.44-.79-5.37-3.68-4.33-6.93l.27-.2zm-6.41 14.1l.6.07c.16.33.63.67.87 1.07l.33 1.33c.71 1.32 1.41 2.75 2.13 4.2a3.91 3.91 0 0 1 .07 3.07l-1 .4c-.67.39-3.93 3-4 3.73.61.48 1.73 3.27 1.73 3.27.13.16 0 0 .07.2 1.39-.93 1.38-3.32 2.67-4.33.2.08.08 0 .2.13.32 1.1-.4 3.78-.6 4.8 1-.17 5.35-3 4.87-4.27-.58-1.46-2.06-1.46-2.27-3.8l.13-.13s3.72.41 4.07.13.28-.47.27-.93c-1.25-2-3.26-.6-4.8-1.87a2.22 2.22 0 0 1 1.07-1.47l.13.07c.14-.15.34-.82.6-1.07.9-.88 2.51-.76 3.67-1.27 2-.87 4.08-3.31 6.93-1.87.82.41 1.88 2.22 2.73 2.87.7.53 1.91.9 2.27 1.73 1 2.91-4.41 3.05-5.6 4.53a6.78 6.78 0 0 1 .47 1.8c-.45.64-2.27 1.19-1.87 2.13a3.6 3.6 0 0 0 2.8-.53c.34-.32.1-.56.67-.73 1.48 2.15 5.51 0 4.8 5-.51.26-.82.87-1.47 1-2.3.47-4.53-.64-7-.33l-.13.33a16 16 0 0 1 .13 2.87l-.07 3.6a5.65 5.65 0 0 1-6.33 3.67c-1-.24-2.43.19-3.33-.4v-.07l.07-.13c.38-.71 1.72-.69 2.2-1.33.69-.92 3.49-6.48 2.67-7.46-.59-.86-2 .38-2.4.8-.22.23-.12.55-.4.73-1.21.8-3.44-.12-4.13-1l-.2-1.47-.53-.27-.4.27c-.16 2.2-1.21 7.36-2.6 8.13-.33-.14-1.09 0-1.27-.4a39.2 39.2 0 0 1-3.53-4.27c.15-1.3 2.29-3.11 1.67-3.93-.32-1-2.08-1.72-2.93-2.2-.44-2 .57-2.7 1.33-4.13 1.48-2.77 3.8-6.95 2.47-9.86a11.25 11.25 0 0 1 2.17-2.41zm15.8 7l.4.33c0 .86-.7.93-.87 1.8a2 2 0 0 1-1.67-1.67l.4-.33c.16-.16.29-.08.53-.2zm-5.2 7.53a1.88 1.88 0 0 1 .2 1.4c-.84.34-1.81.56-2.47.8l-.13-.13a4.06 4.06 0 0 1 2.13-2.07zM732.1 47a4 4 0 0 1 3.12 2 45.81 45.81 0 0 1 5.08.08c.49.18.71.7 1.35.92.1 1.11 0 1-.47 1.67a19.28 19.28 0 0 1-3.26-.67 22.93 22.93 0 0 0-8 .5l-.16.33c.3.37.76.73 1.1 1.08.51-.19.53-.14 1.08.08v-.25l-.25-.08c.55-.45 3.84-1.24 5.15-.75l1 .92-.03 1.17-1.74.67c0 .52-.17.47 0 .75.35.16.38.18.43.67l-.25.17-1.58.17c-.33 2 0 3.77 0 6.25a1.21 1.21 0 0 0-.49.67c-1.4-.18-3-.69-3.46-2.33 1.11.08 1.29.49 2.08-.08.22-.83.67-2.79 0-3.42l-2.09-.33c-.95-1.64-1.63-2.72-1.35-5.08-2 .27-2.57.35-3.53-1.5-.21-.41-.43 0-.26-.58 2.3 0 3.69.28 5.57-.42-.11-.5.19-.61.74-.67-.1-.86-.26-1.46.22-1.94zm6 2.5l.09.25c.32 0 .11.09.33-.08zm-6 3.42l.17.17zm1.9 1.2l.15-.75a4.75 4.75 0 0 0-2.82.58 1.18 1.18 0 0 0 .27 1.17 1.11 1.11 0 0 0 1-.17l.82-.75zm.41-.33zm-3.3 6.08l-.83.17c0 .65-.14.52-.23 1.17l-1.41.33-.85-.92c.12-.54 0-.95.14-1.33l.42.08-.42-.33a2.19 2.19 0 0 0 .31-1.42c.35-.08.28-.1.5-.25l.67.33a3.78 3.78 0 0 0 .19 1.08l1.84.17v.42c-.29.27-.28-.05-.34.5zm5.45-2.42c1.46.27 2 1.23 3.12 1.83v.25l-.33.08v.08l.25.08c.26 0 .15-.09.25.25-.35.28-.15.68-.15 1a3.68 3.68 0 0 1-2.49.33V61l.49-.5c-.41-1.1-1.12-1.77-1.15-3.05zm-8.22 1.17zm1 .75l-.17-.17zm9.75.33l-.17-.17zm-.41.58l.17.17zm-10.49.33l-.17-.17zM732 71.95a2.57 2.57 0 0 1-.88 1.92 2.36 2.36 0 0 1-2-.08 4.77 4.77 0 0 0-.12-2c-.26 0-.12.08-.33-.08.09-.52-.73-2-1.2-2 .05-1-.61-1.76 0-2.5l.49-.5-.17-.33c1-.64 1.63-1.47 2.71-2.08s5.16-.4 6.59.33c.25.88 2 1.31 2.3 2.5l-.25-.08c2.54 3.55-.63 7.4-3.84 8.08v-.5c1.1 0 1.13-2.07 2.12-2.25L737 72c.9-1.43.45-4-.35-5.41-.38-.67-1.78-1.42-2.12-1.75-.24.22-1.29.07-1.67 0l-.08.08c.1.47-.22 2.14.38 2.58a24.21 24.21 0 0 0-.75 4.41zm4.28-7l-.08.17.25-.17zm-5.88 6.33c.24-1.63 2-4.43 1.05-5.83l-.66.08c-.24.64-.79.77-1.14 1.25a3.82 3.82 0 0 0 .25 4.5zm-1.94-5.41l-.08.25c.17-.15.06 0 .16-.25zm-.23.83c.13.16.15.15.34.25v-.25zm.67.08l.17.17zm9.59.33zm-9.72 1.25l.17.08zm10.83.17l.17.25c-.12-.25-.01-.1-.18-.25zm-8.15.5l-.08.17c.14-.1.03-.07.07-.2zm6.88 2.42zm-8.83.55zm8.16.08v.25l.08-.25zm-6.56 1.25l-.17-.17zm5.73 3.58a4.47 4.47 0 0 1 2.6 1.08c-.06.45.1.85.11 1.58-2.11 1.14-2.09-.65-3.38-2.33l.08-.25zm-5.82.58a1 1 0 0 1 .67.17 3.29 3.29 0 0 1 .86 1.58c-1.26 1.26-.74 3.55-.32 5l1.75.08v-.42c.74-.1 1.33-.28 1.83 0l.08-.42c.23.27.17.31.59.42l-.09-.42c.7.62.83.13 1.76.33a6.38 6.38 0 0 1 2.37 1.75c-.07 1 .86 2.64-.43 3.58-1.82 1.33-5 .55-5.45-1.83 1.38.21 1.8.94 3.51.58.08-.4.09-.42.41-.58-.33-.83.07-1.27-.7-1.83-1.14-1.73-3.77-.25-5.24.17l-.32.92-.17-.25a2.63 2.63 0 0 1-1.12 2.62 1.49 1.49 0 0 1-1.42-.08c.07-.37.13-.35-.26-.5-.44-.51-1.73-1.51-1-2.25.43-.49 1.13-.37 2.08-.33-.16-.56 0-.41.32-.83-.44-.35-.48-2.34-.64-3.08a3.85 3.85 0 0 1-1.67-.33 3.69 3.69 0 0 0-.6-1l.08-.42c3.73.06 1.91-.45 3.11-2.59zm8.09.67zm-.07.75l.09.17.08-.17zm-7.87 2.5zm0 .67l.09.17.08-.17zm.5.17l-.17-.17zm-.14 1.17c.17.17 0 .09.34.17zm4.35 1l.17.08zm.67.17l-.17-.17zm.5-.17l.17.17zm1.42 0l.34.17zm-.58.25zm-5.91.25zm6.75.08l-.08.08.17.17V85zm1 .08l.17.17zm-11.3 1.25zm2.7 1.92zm7 .42l-.25-.17zm1.83-.17l.17.17zm-3.82.58l.17.08zm-.64 1.33c.54.23 1.08.29 1.35.75v.75c.91 0 1.57-.26 2.09.33l.09.25c-.62.38-1.5.45-1.9 1l.51.33c.16-.42.35-.31.83-.33.21.53.56.38.77.92-.55.19-1.7.66-2.15.75v.25l.09.17c1.29 0 2.55-.42 3.67.08.24.55.56.35.69 1.08h-.08c-1.34-.57-6.54-.19-8.65.75-.12-.33 0-.15-.25-.25.09.35.12.14-.07.5l-.75-.08a1.46 1.46 0 0 0-.84-.58l.08-.33c1.12 0 2.86-.22 3.48-.92v-.08c-.76-.1-1.36-.07-1.6-.83a9.75 9.75 0 0 0 2.41-.42l-.1-.67c-.78-.07-2 .26-2.6-.92l.08-.17 2.5-.17-.17-.42h.42c0-.7-.49-1.16-.44-1.33s.29-.21.56-.38zm-6.65.92c.79.07.81.26 1.43.58-.09-.22-.13-.14-.09-.33.24.27.25.38.68.5 0 .62 0 .11.18.83-.45.25-.59.77-1 1s-1 .26-1.41.5l-.34-.25a2 2 0 0 0 .73-1.08c-.15-.6-.4-1-.53-1.67zm0 .33c.15.17 0 .06.25.17zm9.84.83l-.17-.17zm-4.16.5l.17.17zm1.85.67c.15.17 0 .06.25.17zm-3.14 1.5l.17.08zm5.26.75l.17.08zm-9.24.25l.84.17.26.67c-.36 1-1.69 2.09-2.44 2.83h-.33c.16-.75.44-.81.47-1.67-.3-.31-.49-.28-.6-.83a5.89 5.89 0 0 0 1.84-1.14zm12.18 9.75l-2.84-.33v-.25l.41-.42-1.53-1.75c.28-.08.15.09.25-.25l.59.17-.09-.5a4.11 4.11 0 0 0-2.91.5l.18.83c-.56.14-2.69 3.37-3.88 1.83 0-.28.15-.08-.09-.33h-.08l.09.33h-.33l-.08-.08c.07-.62 2-1.13 2.55-1.67-.61-.47-1-.32-1.52-1.08l1-.33a9.73 9.73 0 0 1 0-3.91l-.34-.25.08-.25.17-.08.34.17a5.16 5.16 0 0 1 .94 1.08l-.15.75.93.5c.19-.51 1.59-.69 2-.92l.93.67v.25c-.69.12-1.4.66-2.07.75.15.17 0 .06.25.17a5 5 0 0 0 2.16-.25c0-1.29.13-2.73-.48-3.25-.93-.6-2 .26-3.41.25l-.26-.42c.22-.23.17-.21.5-.17a5.28 5.28 0 0 1 5 .08c-.21.95.79 2.13.48 3.17a7.39 7.39 0 0 0-.7 2.5l.67.17c-.08.31-.16.24 0 .42a5.2 5.2 0 0 1 1.36 1.17c-.13.3-.11.29-.08.75zm-9.41-8.58l-.17-.08zm-3.91.42zm2.25.25l.25.08.09.25c-.34.41-.15.47-.23 1l-.25-.08c.18 1.15-.87 4.66-1.41 4.66.25.63 0 .84-.22 1.58a.57.57 0 0 0-.33.08c-.75-.43-.75-1.16-1.2-1.75l.25.08a4 4 0 0 1 0-2.42h.08a1.15 1.15 0 0 0 .6.67h.25c.2-.63.65-.41.9-.83a18.84 18.84 0 0 0 1.27-3.32zm6.5.33l.84.17-.07.58c-.75.27-1.53.5-2.07.75a1.37 1.37 0 0 1-.77-.92c.85.09 1.72.01 2.12-.56zm-8.66.25c.2.18 0 0 .25.08v-.06zm10.58 1.42l-.17-.08zm-4.82.5l-.17-.08zm.51.67l-.16.25.18.75 1.16-.17.24-.5v-.08l-1.16.33v-.58zm4.47 2.67l.09.17.08-.17zM728 104l-.17-.08zm-.33.17zm12.33 1.26l-.17-.17zm-7 0l.09.17.08-.17zm6.08.17l-.17-.17zm-7.17-.08c.15.17 0 .06.25.17zm4.74 8.41c-.2 1.61-2.88 4.63-4.34 4a.83.83 0 0 0-.1-.75c.77-1.15 2.27-1.86 2.52-3.5h-.25c-.34.58-.89.58-1.4.92l-.59-.42-.1-.83a7.35 7.35 0 0 0 2.13-6.08l.58-.25c-.26-.17-.13.08-.25-.25a5 5 0 0 1 1.42.42l.77 1c-.3.24-.09.4-.23.83l-.25-.17a3.51 3.51 0 0 1-1.28 2.83l.34.58c.9-1 4.61-1 5.16-.33.06.29.26.44.68.58-.14 3.56-.63 8.38-4.15 9.41a6.73 6.73 0 0 1-1.61-1.58 2.6 2.6 0 0 1-3.09-.33c.46-.58 1.5-.62 2-1.17a43.53 43.53 0 0 0 2.75-4.41l-.18-.5zm-.63-6.58l.09.17.08-.17zm-6.49.42a5.63 5.63 0 0 1 1.84.33 8.7 8.7 0 0 0 .13 2.58 1.86 1.86 0 0 1 1.43.58l-.23.92a3.8 3.8 0 0 0-1.65.67 2.61 2.61 0 0 0 .27 1.08c.35 0 .29-.13.5.17.17.58-.69 1.39-.88 1.92-.45 1.25.16 2 .31 2.92a6.64 6.64 0 0 1-.93 3.42l-.75-.17c-.83-2.06-2.56-1.53-2.91-4.25l.51.42.17-.08-.43-.67h1.08c.15-.64.38-.31.74-.67.94-.93 1-1.6.94-3.25a1.48 1.48 0 0 0-1.82.83c-1.46-.37-.71-2.09-.39-2.83a18.51 18.51 0 0 0 0-2.08l.83-.25.76.42c-.06.68-.3 1.4.12 1.92l.5-.17c-.32-.86.07-2.47 0-3.17h-.33zm.68.75l-.17-.17zm-2.54 2v.17c.06-.15.06-.03-.02-.18zm-.07.92l.17.17zm11.95 1.83c0-.35 0-.33-.18-.5l-.34-.33c-.3.17-.29 0-.41.33.38.23.28.41.91.49zm-1.5.17v.25h.25v-.08zm1.08 0c.17.25 0 .13.34.25v-.08zm.1.92c-.74.85-1.26 3.82-2.43 3.75a1.59 1.59 0 0 1-.31 1.33l.09.33a4.32 4.32 0 0 0 1.33-.08c.21-.92 1.83-3.62 1.4-5.33zm-.1 3.67l-.17-.17zm-10.23.75a1 1 0 0 0-.07.83h.33a1.67 1.67 0 0 1 .07-.75zm-.83.08zm.19 1.25l.26.33h.08c-.15-.36 0-.22-.35-.35zm.42 0l.25.25zm1 0l.17.08zm5.59.25l-.17-.08zM729 121l-.17-.17zm1.09.58v.17c.1-.14.1-.01.02-.16z"/><path d="M671.62 98.56l1-1.4c.1-.16.18-.26.3-.26s.12 0 .36.2l1.84 1.42a.48.48 0 0 1 .2.3c0 .2-.18.22-.3.22h-15.24a10 10 0 0 0-2.16.14l-.34-.74c1 .08 1.9.12 2.86.12H665a7 7 0 0 0-.4-2.94l3.12.58c.22 0 .36.12.36.34s-.12.28-.86.6v1.42zm-4 9l.52-.7c.12-.16.18-.2.26-.2a.68.68 0 0 1 .36.18l1.32.94a.4.4 0 0 1 .18.34c0 .18-.14.28-.54.54v2.12a1.07 1.07 0 0 1-.14.66c.3 0 1.12.08 1.38.08.68 0 .68-.3.68-1.58v-4h-11v6.76c0 .46 0 1.48-1.38 1.48-.74 0-1-.34-1-.82 0-.12.06-1.72.08-2 0-1.18.08-2.16.08-3.2a14.14 14.14 0 0 0-.2-3.7l2.64 1h10.54l.66-.88a.36.36 0 0 1 .32-.2.75.75 0 0 1 .36.16l1.64 1.08c.08.06.22.18.22.32s-.08.24-.78.76c0 .78.08 4.3.08 5 0 .86 0 2.38-3.08 2.54a3.57 3.57 0 0 0-1.66-2.48 1.84 1.84 0 0 1-.78.16c-.82 0-.78-.42-.74-1h-3.26c0 .66.06 1.42-1.18 1.42-.86 0-.88-.48-.88-.78s.08-2 .08-2.42a14.39 14.39 0 0 0-.16-2.38l2.18.82zm1.42-7l.62-.84c.12-.16.2-.2.28-.2s.14 0 .36.2l1.54 1.12a.34.34 0 0 1 .14.3c0 .24-.06.28-.64.62a17.67 17.67 0 0 1 0 2.06c-.08.62-1 .8-1.5.8-.72 0-.68-.6-.66-.94h-6.08c0 .34 0 .52-.18.72a1.81 1.81 0 0 1-1.26.46c-.8 0-.8-.46-.8-.64 0-.36.08-1.94.08-2.26a17.24 17.24 0 0 0-.18-2.26l2.42.86zm-5.94.48v2.16h6.1V101zm1.34 7v2.38h3.3V108zm4.26 11.46a9.65 9.65 0 0 1 5.74 2.48 2.45 2.45 0 0 1 .76 1.74 1.27 1.27 0 0 1-1.28 1.42 1.14 1.14 0 0 1-1-.62c-.24-.3-1.18-1.78-1.4-2.06a122.73 122.73 0 0 1-12.12 2.32c-.16.3-.3.52-.48.52s-.18-.06-.26-.26l-1.1-3a18.13 18.13 0 0 0 3.32.26H662c.74-1.72 2.06-4.74 2.1-6.52l3.16 1.22a.33.33 0 0 1 .2.26c0 .22-.08.26-.9.54a37 37 0 0 1-3.68 4.48c3.58-.08 5-.1 8.28-.3a12.88 12.88 0 0 0-2.48-2.32zm2.14 5.58a.39.39 0 0 1 .28-.2.74.74 0 0 1 .3.12l1.78 1.4a.39.39 0 0 1 .14.3c0 .24-.26.44-.7.72 0 .84.18 5.06.18 5.32 0 1.2-1.3 1.3-1.68 1.3-1 0-1-.72-.92-1.32h-7.76c0 .48.06 1.5-1.4 1.5-.64 0-1-.22-1-.72 0-.28.06-1.48.06-1.72v-3.44a18.56 18.56 0 0 0-.18-3l2.76.88h7.36zm-.6 1.58h-7.78v5.58h7.78zM670.2 139l.76-1.52c0-.08.18-.24.3-.24a.77.77 0 0 1 .36.22l1.62 1.5c.06.06.2.18.2.3s-.16.22-.3.22h-6v3.14h4.52l.8-1.46a.39.39 0 0 1 .32-.24.7.7 0 0 1 .36.2l1.64 1.46a.44.44 0 0 1 .18.32c0 .18-.16.2-.3.2h-5.76l1.68.32c.16 0 .34.06.34.32s-.36.54-.7.72V146h1.06l.82-1.44s.14-.26.3-.26.32.18.36.22l1.54 1.48c.12.12.18.2.18.32s-.16.2-.3.2h-4c0 .4 0 5.24-.06 5.66-.32 1.62-2.14 1.92-3.06 2.06-.22-1.36-.78-2.14-2.42-2.92v-.18a13.64 13.64 0 0 0 2.6.22c.4 0 .7-.06.7-.66v-4.18h-7.52a11.63 11.63 0 0 0-2.16.14l-.32-.74c.94.08 1.9.12 2.84.12H668a10 10 0 0 0-.2-3h-8.1a11.6 11.6 0 0 0-2.16.14l-.32-.74a27.1 27.1 0 0 0 2.84.12h4.82v-3.14h-3.58a10.19 10.19 0 0 0-2.18.14l-.32-.74c.94.08 1.9.12 2.86.12h3.22a12.55 12.55 0 0 0-.38-3.36l2.94.64c.36.08.42.1.42.26s-.2.36-.66.66v1.8zm-9.28 7.92c1 .34 3.76 1.3 3.76 3.18a1.33 1.33 0 0 1-1.3 1.38c-.84 0-.92-.36-1.16-1.38-.5-2.16-1-2.62-1.46-3.06zM665.1 159a8.7 8.7 0 0 0-.32-3.12l3.1.52c.22 0 .42.16.42.32s-.42.48-.82.7V159h4l.94-1.44c.08-.12.18-.26.32-.26s.26.14.38.22L675 159a.47.47 0 0 1 .18.3c0 .2-.18.22-.3.22H661.3a58.3 58.3 0 0 1-.24 7.12 10.88 10.88 0 0 1-3.88 7.14l-.12-.1c1.38-2.5 2.06-5.5 2.06-10.86a26.93 26.93 0 0 0-.32-4.94l2.66 1.16zm6 4.5l.9-1.36c.08-.12.18-.26.32-.26a.66.66 0 0 1 .36.2l1.74 1.4c.1.08.2.14.2.3s-.16.2-.3.2h-6v3.4h2.16l.82-1.16c.06-.1.16-.24.3-.24s.16.08.38.22l1.52 1.06c.12.08.3.24.3.4s-.06.22-.68.72c0 .9 0 2.24.06 3.4 0 .1.06 1.08.06 1.1 0 1.2-1.28 1.2-1.44 1.2-1.08 0-1.06-.52-1-1.18h-6.5c0 .32.1 1.4-1.36 1.4-1 0-1-.48-1-.72 0-.44.06-2.38.06-2.78a29 29 0 0 0-.16-4.56l2.74 1.14H666c0-5 0-6.08-.38-7.2l2.92.52c.14 0 .42.08.42.34s0 .24-.62.62v1.84zm-6.82 4.36v4.56h6.52v-4.52z"/><path class="cls-15" d="M725.64 421V314l-17 50h30"/><path d="M720.94 283.25l9.86 14v-10.92a2 2 0 0 0-2.13-2.16H728v-.92h6.58v.92h-.7a2.14 2.14 0 0 0-2.16 2.16v17.36h-.76l-12.1-17.16v14.17a2.07 2.07 0 0 0 2.07 2.1h.76v.9h-6.55v-.9h.73a2 2 0 0 0 2.1-2.1v-14.37a2.14 2.14 0 0 0-2.16-2.16h-.67v-.92z"/></g></g></svg>