<svg xmlns="http://www.w3.org/2000/svg" viewBox="0 0 24.95 24.95"><defs><style>.cls-1{fill:#fff;}</style></defs>
    <path class="cls-1" d="M12.48,2.25c3.33,0,3.73,0,5,.07a6.91,6.91,0,0,1,2.32.43,3.87,3.87,0,0,1,1.43.93,3.86,3.86,0,0,1,.93,1.43,6.91,6.91,0,0,1,.43,2.32c.06,1.32.07,1.71.07,5s0,3.73-.07,5a6.91,6.91,0,0,1-.43,2.32,4.13,4.13,0,0,1-2.37,2.37,6.9,6.9,0,0,1-2.32.43c-1.32.06-1.71.07-5,.07s-3.73,0-5-.07a6.91,6.91,0,0,1-2.32-.43,3.87,3.87,0,0,1-1.43-.93,3.87,3.87,0,0,1-.93-1.43,6.91,6.91,0,0,1-.43-2.32c-.06-1.32-.07-1.71-.07-5s0-3.73.07-5a6.91,6.91,0,0,1,.43-2.32,3.87,3.87,0,0,1,.93-1.43,3.87,3.87,0,0,1,1.43-.93,6.91,6.91,0,0,1,2.32-.43c1.32-.06,1.71-.07,5-.07m0-2.25C9.09,0,8.66,0,7.33.08a9.16,9.16,0,0,0-3,.58A6.12,6.12,0,0,0,2.09,2.09,6.12,6.12,0,0,0,.65,4.3a9.16,9.16,0,0,0-.58,3C0,8.66,0,9.09,0,12.48s0,3.81.08,5.14a9.15,9.15,0,0,0,.58,3,6.12,6.12,0,0,0,1.44,2.21A6.12,6.12,0,0,0,4.3,24.3a9.16,9.16,0,0,0,3,.58c1.33.06,1.76.08,5.14.08s3.81,0,5.14-.08a9.16,9.16,0,0,0,3-.58,6.38,6.38,0,0,0,3.65-3.65,9.15,9.15,0,0,0,.58-3c.06-1.33.08-1.76.08-5.14s0-3.81-.08-5.14a9.16,9.16,0,0,0-.58-3,6.11,6.11,0,0,0-1.44-2.21A6.12,6.12,0,0,0,20.65.66a9.16,9.16,0,0,0-3-.58C16.29,0,15.87,0,12.48,0"/><path class="cls-1" d="M12.48,6.07a6.41,6.41,0,1,0,6.41,6.41,6.41,6.41,0,0,0-6.41-6.41m0,10.57a4.16,4.16,0,1,1,4.16-4.16,4.16,4.16,0,0,1-4.16,4.16"/><path class="cls-1" d="M20.63,5.82a1.5,1.5,0,1,1-1.5-1.5,1.5,1.5,0,0,1,1.5,1.5"/></svg>