<svg xmlns="http://www.w3.org/2000/svg" viewBox="0 0 220 50"><defs><style>.cls-1{fill:#a9aaab;}.cls-2{fill:#9b9c9d;}.cls-3{fill:#fff;}</style></defs><title>insta</title><g id="レイヤー_2" data-name="レイヤー 2"><g id="レイヤー_1-2" data-name="レイヤー 1"><rect class="cls-1" width="220" height="50"/><rect class="cls-2" y="25" width="220" height="25"/><path class="cls-3" d="M91.37,17.91v1.91h-2.2V17.91Zm0,3.33a13.44,13.44,0,0,0-.11,2v4.68a15,15,0,0,0,.11,2H89.16a13.49,13.49,0,0,0,.12-1.95V23.19a12.35,12.35,0,0,0-.12-2Z"/><path class="cls-3" d="M93.23,29.84a12.46,12.46,0,0,0,.12-1.95V23.19a12.35,12.35,0,0,0-.12-2h2V22a5.91,5.91,0,0,1,0,.65,3.43,3.43,0,0,1,3.06-1.59,3,3,0,0,1,2.55,1.11,3.34,3.34,0,0,1,.51,2.1v3.6a11.86,11.86,0,0,0,.12,1.95H99.3a16,16,0,0,0,.1-1.95V24.57a2.46,2.46,0,0,0-.26-1.32,1.41,1.41,0,0,0-1.26-.62c-1.08,0-2,.75-2.62,2.24v3a13.36,13.36,0,0,0,.12,1.95Z"/><path class="cls-3" d="M105,27.15c.25,1,.81,1.42,2,1.42s1.8-.44,1.8-1.14a.92.92,0,0,0-.39-.75c-.28-.19-.37-.21-1.57-.48a9.09,9.09,0,0,1-2.16-.64,2.15,2.15,0,0,1-1.32-2,2.23,2.23,0,0,1,.47-1.4,3.62,3.62,0,0,1,3-1.17,4.09,4.09,0,0,1,2.82.87,2.92,2.92,0,0,1,.81,1.49l-2,.25c-.17-.83-.67-1.19-1.65-1.19s-1.56.42-1.56,1.05a.81.81,0,0,0,.46.7,6.28,6.28,0,0,0,1.5.45,6.45,6.45,0,0,1,2.64.92,2.13,2.13,0,0,1,.87,1.86,2.41,2.41,0,0,1-.73,1.69,4.43,4.43,0,0,1-3.1,1,4,4,0,0,1-3.34-1.33,3.37,3.37,0,0,1-.58-1.33Z"/><path class="cls-3" d="M115.37,18.93a16.56,16.56,0,0,0-.11,1.84v.46h.63a8.6,8.6,0,0,0,1.51-.09v1.77a8.25,8.25,0,0,0-1.47-.09h-.68v4.65c0,.73.27,1,1,1a2,2,0,0,0,1.09-.33l.27,1.59a4.69,4.69,0,0,1-1.87.31c-1.72,0-2.41-.61-2.41-2.19v-5h-.57a7.56,7.56,0,0,0-1.33.09V21.15a6.88,6.88,0,0,0,1.35.09h.56v-.46a17.24,17.24,0,0,0-.1-1.84Z"/><path class="cls-3" d="M124.43,28.87a3.25,3.25,0,0,1-1.59.95,5.34,5.34,0,0,1-1.4.18c-1.83,0-2.94-.95-2.94-2.52A2.66,2.66,0,0,1,120.2,25a11.36,11.36,0,0,1,4.23-.6v-.76c0-.87-.58-1.32-1.73-1.32a2.71,2.71,0,0,0-1.56.43,1.63,1.63,0,0,0-.6,1l-1.92-.34a3.13,3.13,0,0,1,1.18-1.67,4.49,4.49,0,0,1,2.87-.76,3.9,3.9,0,0,1,3,.88,2.52,2.52,0,0,1,.71,2.07v4a12,12,0,0,0,.12,1.88h-2Zm0-3.12c-2.87.06-4,.56-4,1.73,0,.7.53,1.14,1.37,1.14a3,3,0,0,0,2.08-.79,1.79,1.79,0,0,0,.54-1.32Z"/><path class="cls-3" d="M129.56,30.19a2.54,2.54,0,0,0,2.32,1.14,2.7,2.7,0,0,0,2.46-1.12,4.09,4.09,0,0,0,.39-2,3.41,3.41,0,0,1-2.94,1.37c-2.38,0-3.92-1.63-3.92-4.2s1.58-4.27,4-4.27a3.16,3.16,0,0,1,2.86,1.32,3.62,3.62,0,0,1,0-.49v-.69h2a14,14,0,0,0-.1,1.88v5c0,1.8-.39,3-1.26,3.69a5.67,5.67,0,0,1-3.54,1,4.35,4.35,0,0,1-3.76-1.56Zm1-2.7a2.3,2.3,0,0,0,1.59.67A2.51,2.51,0,0,0,134.21,27a3.18,3.18,0,0,0,.42-1.71,2.77,2.77,0,0,0-.9-2.22,2.26,2.26,0,0,0-1.46-.54c-1.5,0-2.43,1.13-2.43,2.91A2.89,2.89,0,0,0,130.53,27.49Z"/><path class="cls-3" d="M144.38,23.13a4.49,4.49,0,0,0-1.33-.24,2.14,2.14,0,0,0-1.74.73,2.42,2.42,0,0,0-.61,1.5V27.9a15.73,15.73,0,0,0,.1,1.95h-2.15a16.4,16.4,0,0,0,.1-1.95V23.19a11.88,11.88,0,0,0-.1-2h2v1.41a2.87,2.87,0,0,1,2.82-1.58,7.77,7.77,0,0,1,1.4.17Z"/><path class="cls-3" d="M151.7,28.87a3.25,3.25,0,0,1-1.59.95,5.34,5.34,0,0,1-1.4.18c-1.83,0-2.94-.95-2.94-2.52A2.66,2.66,0,0,1,147.47,25a11.36,11.36,0,0,1,4.23-.6v-.76c0-.87-.58-1.32-1.73-1.32a2.71,2.71,0,0,0-1.56.43,1.63,1.63,0,0,0-.6,1l-1.92-.34a3.13,3.13,0,0,1,1.18-1.67,4.49,4.49,0,0,1,2.87-.76,3.9,3.9,0,0,1,3,.88,2.52,2.52,0,0,1,.71,2.07v4a12,12,0,0,0,.12,1.88h-2Zm0-3.12c-2.87.06-4,.56-4,1.73,0,.7.53,1.14,1.37,1.14a3,3,0,0,0,2.08-.79,1.79,1.79,0,0,0,.54-1.32Z"/><path class="cls-3" d="M155.51,29.84a15.17,15.17,0,0,0,.1-1.95V23.19a13.16,13.16,0,0,0-.1-2h2V22c0,.09,0,.32,0,.56a3,3,0,0,1,2.79-1.5,2.69,2.69,0,0,1,1.94.67,2,2,0,0,1,.57.9,3.47,3.47,0,0,1,1.26-1.18,3.32,3.32,0,0,1,1.68-.39,3,3,0,0,1,2.25.85,3.11,3.11,0,0,1,.7,2.28V27.9a12.21,12.21,0,0,0,.12,1.95h-2.19a11.86,11.86,0,0,0,.12-1.95V24.54c0-1.32-.46-1.92-1.47-1.92a1.73,1.73,0,0,0-1.23.45,2.84,2.84,0,0,0-.95,1.86v3a14.71,14.71,0,0,0,.1,1.95H161a12.22,12.22,0,0,0,.12-1.95V24.54c0-1.26-.48-1.89-1.46-1.89a1.86,1.86,0,0,0-1.54.78,3.39,3.39,0,0,0-.65,1.5v3a15.56,15.56,0,0,0,.1,1.95Z"/><path class="cls-3" d="M32.88,14.77c3.33,0,3.73,0,5,.07a6.91,6.91,0,0,1,2.32.43,4.13,4.13,0,0,1,2.37,2.37A6.91,6.91,0,0,1,43,20c.06,1.32.07,1.71.07,5s0,3.73-.07,5a6.91,6.91,0,0,1-.43,2.32,4.13,4.13,0,0,1-2.37,2.37,6.9,6.9,0,0,1-2.32.43c-1.32.06-1.71.07-5,.07s-3.73,0-5-.07a6.91,6.91,0,0,1-2.32-.43,4.13,4.13,0,0,1-2.37-2.37A6.91,6.91,0,0,1,22.72,30c-.06-1.32-.07-1.71-.07-5s0-3.73.07-5a6.91,6.91,0,0,1,.43-2.32,4.13,4.13,0,0,1,2.37-2.37,6.91,6.91,0,0,1,2.32-.43c1.32-.06,1.71-.07,5-.07m0-2.25c-3.39,0-3.81,0-5.14.08a9.16,9.16,0,0,0-3,.58,6.38,6.38,0,0,0-3.65,3.65,9.16,9.16,0,0,0-.58,3c-.06,1.33-.08,1.76-.08,5.14s0,3.81.08,5.14a9.15,9.15,0,0,0,.58,3,6.38,6.38,0,0,0,3.65,3.65,9.16,9.16,0,0,0,3,.58c1.33.06,1.76.08,5.14.08s3.81,0,5.14-.08a9.16,9.16,0,0,0,3-.58,6.38,6.38,0,0,0,3.65-3.65,9.15,9.15,0,0,0,.58-3c.06-1.33.08-1.76.08-5.14s0-3.81-.08-5.14a9.16,9.16,0,0,0-.58-3A6.38,6.38,0,0,0,41,13.18a9.16,9.16,0,0,0-3-.58c-1.33-.06-1.76-.08-5.14-.08"/><path class="cls-3" d="M32.88,18.59A6.41,6.41,0,1,0,39.28,25a6.41,6.41,0,0,0-6.41-6.41m0,10.57A4.16,4.16,0,1,1,37,25a4.16,4.16,0,0,1-4.16,4.16"/><path class="cls-3" d="M41,18.34a1.5,1.5,0,1,1-1.5-1.5,1.5,1.5,0,0,1,1.5,1.5"/></g></g></svg>