<svg xmlns="http://www.w3.org/2000/svg" viewBox="0 0 227.05 29.6"><defs><style>.cls-1{fill-rule:evenodd;}</style></defs><title>logo_row</title><g id="レイヤー_2" data-name="レイヤー 2"><g id="レイヤー_1-2" data-name="レイヤー 1"><path class="cls-1" d="M150.3,7.22c6.81,1.12,17.3,9.91,11.86,17.33-4.22.27-5.12-3.94-8.33-5.2l.13-.47c.51-.08.63-.4.6-1-1.24-1.84-1.61-4.17-3.2-5.67a4.28,4.28,0,0,0-.8-1.93c-.53-.56-1.31-.78-1.8-1.4a3,3,0,0,1,.67-1.53C149.79,7.36,150.07,7.4,150.3,7.22Zm-11.4.33c2.36.7,7.51,5,7.46,7.6,0,1.16.88,2.23.13,3.4-.55.85-2,1.13-2.8,1.73-2.64,1.94-2.92,3.35-7,4.2-2.15.45-5.66-1.5-4.53-3.47,2.79-.18,5.69-4.53,6.73-6.67l.2-2C139.52,10.9,137,10.12,138.9,7.56Zm.07,9.33-.07.2v-.2Z"/><path class="cls-1" d="M97.62,4.93a5.38,5.38,0,0,1,2.4,1.6c.32.36.19,1,.67,1.2s1.24,0,1.6.33A1.06,1.06,0,0,1,102,9.2l-1.2.87.07.4.13.27c1.62,0,3.71,1.25,4.13,2.67-.39.3-1.6,2.81-2.2,2.73-.37.11-.49,0-.73.2-.73.37-.46,1.49-.53,2.33L100,19.8V20c1,.57,1.39.1,2.2.2a7.3,7.3,0,0,1,3,1.27,3.11,3.11,0,0,1-.8,2.8c-1.25-.22-3.48-1.52-4.4-1.33-.42,1.27-.22,3.59-1.67,4a17.08,17.08,0,0,0-1.53-1.8,20.2,20.2,0,0,0-1.13-1.8h-.33a7.16,7.16,0,0,1-1.67,1.6l-.27-.07c-.76-1.65-1.46-1.13-2.4-2.33l.07-.2c.92-1.43,2.73-1.12,2.93-3.47l-.2-.2c-.84.08-1.31.27-1.87-.2s-.32-.82-.47-1.47c-.49-2.12-.25-5,1.67-6.27l.33.07a3.16,3.16,0,0,0,.93,1.4,2.42,2.42,0,0,0,1.93-.8l.13-.47c-1.22-.89-2.6-.51-3.4-1.8l.13-.47.4-.6c1.06,0,1.95.37,2.6-.07a2.72,2.72,0,0,1-.4-1.33A3.86,3.86,0,0,1,97.62,4.93Zm1.93,2v0Zm-5.13,3.13h-.07l-.07-.27C94.43,9.93,94.36,9.82,94.42,10.06Zm6.67,4.4a1.19,1.19,0,0,1-.8.2,7.62,7.62,0,0,1-.47-1.53l1.07-.67A1.66,1.66,0,0,1,101.09,14.46ZM94,13.4l-.13.13v-.2ZM92,13.4v.2h-.2l.07-.2Zm2.6.07v0Zm.33.8a2,2,0,0,1-.07,1,3.82,3.82,0,0,0,1.93,1.67c.46.14.65,0,.93.27-.87.83-2.39.22-3.6.47l-.27-.33a6.44,6.44,0,0,1,.2-2.93l.4-.27Zm-1.6.73v0Zm6.87,1,.27.8-.47.07-.4-.27a1,1,0,0,1,.27-.67Zm-1.73,4c-.15.68-1.14.52-2,.47l-.2-.53,1.2-.4A4.63,4.63,0,0,1,98.49,20Zm1.13,1.27c-.12.13,0,0-.2.13l.07-.13Zm-1.2.87.2.4c-.23,1.23-1.63-.07-2.2-.2l-.07-.27.2-.33C97.37,21.82,97.85,22.15,98.42,22.13Zm-3.27,0,.07.2c-.13-.12,0,0-.13-.2ZM94,23.73l.07-.13C94,23.67,94.08,23.64,94,23.73Z"/><path class="cls-1" d="M114.44,7.39a1.35,1.35,0,0,1,.8.27c.26,1.39,2.24,1.45,2.93,2.47l.6,1.53c.63,1.79-3,4.2-2.27,5.73.93,0,1.84-.2,2.47-.27.11.88-2.29,2.18-3,2.67-1.23.85-3.51,2.9-4.6,3.33-.43.17-3.6-2.3-3.87-2.67.1-1,.87-1.73,1.2-2.53l.53-3.4c2.18-.83,2.47.84,3.73,1.53a.81.81,0,0,0,.87-.07c.15-.4.74-3.23.8-3.27a3.15,3.15,0,0,1-.07-.93c-.32-.95-.85-3.27-.4-4.33Zm6.93,7a1.61,1.61,0,0,1,.93.13c1.69.62,1.46,6.06.47,7.4a3,3,0,0,1-1.73.93c-1.28-.86-1.45-2.2-2.27-3.47.45-1.16,1.33-.36,1.93-1.33.73-1.18-.15-2-.2-2.8C120.74,14.86,121.07,14.7,121.37,14.39ZM113.44,17a2,2,0,0,1,.07.8l-.33.33-.2.13a.7.7,0,0,1-.33-.53c-.09-.33.19-.57.4-.8Z"/><path class="cls-1" d="M187.34,2.19c2.52.16,6.47.5,8.26,2.2-.2.87.25,2.09-.2,2.87-.25.43-.7.28-1.07.47-3,1.53-4.49-2.75-7.93-2.07-2.4.47-4.63,2-6.53,3-1,.56-2.16.64-3.07,1.27l.53.67c.35.91-.58,1.76.13,2.4,2.42-.91,4.75-4.82,7.2-5.07,2.24,1.75,5.62,3.75,6.33,6.73.17.73-.6,1.49-.73,2.07l.07,3c-.25,3.1,2.16,4.85-1.33,6.73-.41.22-.5.72-1,.87.12,2.73-2.6,2.65-4.2,1.67l-3.67-3.4-.33-1.2-1.4-1.87c-.29-.73-1.1-2.26-.93-3.47.23-1.72,1.74-5,4.53-3.6l2.4,2.2c.41,0,.35.05.6-.13,0-1.9,0-6-1.67-6.6-1.29-.51-3,2.16-3.53,2.87l-2.4,1.73c-.67.68-.49,1.55-1,2.47l-.93,1.4L175,22.32a11.82,11.82,0,0,1-2.4,5.07c-2.37,0-2.58-1.82-3.33-3.47-.32-.69-1.45-2.28-.67-3.27.43-.54,1-.65,1.27-1.4l.4-3.13c.54-1.12,2-2.8,1.33-4.4-3.08-.32-3.91-1.94-5.2-4.2-.31-.54-1.49-2-.73-2.67a17.16,17.16,0,0,0,5-.2c1-.22,1.43-1.21,2.53-1.27l3.6.8a12.69,12.69,0,0,0,3.07-1.07l1.67.07C183.58,2.85,185.54,2.92,187.34,2.19ZM176.28,14.05l.07.07c-.53,1.14-2.56,3.48-4.27,3.47l-.2-.4v-.07c.93-.33.64-1.13,1.33-1.53,1-.58,1.84-.93,2.73-1.53Zm3.4,3.33a9,9,0,0,1,1.2,3.2c.61.37,1.8,1.22,2.8.87.29-.1.43-.32.87-.4a7.33,7.33,0,0,1-1.33,3.47c-2.44-.79-5.37-3.68-4.33-6.93l.27-.2Z"/><path class="cls-1" d="M203,0l.6.07c.16.33.63.67.87,1.07l.33,1.33c.71,1.32,1.41,2.75,2.13,4.2A3.91,3.91,0,0,1,207,9.73l-1,.4c-.67.39-3.93,3-4,3.73.61.48,1.73,3.27,1.73,3.27.13.16,0,0,.07.2,1.39-.93,1.38-3.32,2.67-4.33.2.08.08,0,.2.13.32,1.1-.4,3.78-.6,4.8,1-.17,5.35-3,4.87-4.27-.58-1.46-2.06-1.46-2.27-3.8l.13-.13s3.72.41,4.07.13.28-.47.27-.93c-1.25-2-3.26-.6-4.8-1.87a2.22,2.22,0,0,1,1.07-1.47l.13.07c.14-.15.34-.82.6-1.07.9-.88,2.51-.76,3.67-1.27,2-.87,4.08-3.31,6.93-1.87.82.41,1.88,2.22,2.73,2.87.7.53,1.91.9,2.27,1.73,1,2.91-4.41,3.05-5.6,4.53a6.78,6.78,0,0,1,.47,1.8c-.45.64-2.27,1.19-1.87,2.13a3.6,3.6,0,0,0,2.8-.53c.34-.32.1-.56.67-.73,1.48,2.15,5.51,0,4.8,5-.51.26-.82.87-1.47,1-2.3.47-4.53-.64-7-.33l-.13.33a16,16,0,0,1,.13,2.87l-.07,3.6a5.65,5.65,0,0,1-6.33,3.67c-1-.24-2.43.19-3.33-.4v-.07l.07-.13c.38-.71,1.72-.69,2.2-1.33.69-.92,3.49-6.48,2.67-7.46-.59-.86-2,.38-2.4.8-.22.23-.12.55-.4.73-1.21.8-3.44-.12-4.13-1l-.2-1.47L206,18.8l-.4.27c-.16,2.2-1.21,7.36-2.6,8.13-.33-.14-1.09,0-1.27-.4a39.2,39.2,0,0,1-3.53-4.27c.15-1.3,2.29-3.11,1.67-3.93-.32-1-2.08-1.72-2.93-2.2-.44-2,.57-2.7,1.33-4.13,1.48-2.77,3.8-6.95,2.47-9.86A11.25,11.25,0,0,1,203,0Zm15.8,7,.4.33c0,.86-.7.93-.87,1.8a2,2,0,0,1-1.67-1.67l.4-.33c.16-.16.29-.08.53-.2Zm-5.2,7.53a1.88,1.88,0,0,1,.2,1.4c-.84.34-1.81.56-2.47.8l-.13-.13a4.06,4.06,0,0,1,2.13-2.07Z"/><path class="cls-1" d="M70.17,15.25C70,16.81,67.39,19.72,66,19.11a.8.8,0,0,0-.09-.72c.74-1.11,2.19-1.79,2.43-3.37h-.24c-.33.56-.86.56-1.35.88l-.57-.4-.1-.8a7.08,7.08,0,0,0,2.06-5.86l.56-.24c-.25-.16-.13.08-.25-.24a4.86,4.86,0,0,1,1.37.4l.74,1c-.28.23-.09.39-.23.8l-.24-.16a3.38,3.38,0,0,1-1.23,2.73l.33.56c.87-.92,4.45-.95,5-.32.06.28.25.42.65.56-.14,3.43-.61,8.08-4,9.08a6.49,6.49,0,0,1-1.56-1.53,2.51,2.51,0,0,1-3-.32c.45-.56,1.45-.6,1.91-1.12a42,42,0,0,0,2.65-4.26l-.17-.48Zm-.6-6.35.08.16.08-.16Zm-6.26.4a5.43,5.43,0,0,1,1.77.32,8.39,8.39,0,0,0,.13,2.49,1.79,1.79,0,0,1,1.38.56l-.22.88a3.66,3.66,0,0,0-1.59.64,2.51,2.51,0,0,0,.26,1c.34,0,.28-.12.49.16.16.56-.66,1.34-.85,1.85-.44,1.2.15,2,.29,2.81a6.4,6.4,0,0,1-.9,3.29l-.73-.16c-.8-2-2.47-1.48-2.81-4.1l.49.4.16-.08-.41-.64h1c.15-.62.36-.3.71-.64.9-.9.94-1.54.9-3.13a1.43,1.43,0,0,0-1.75.8c-1.41-.36-.69-2-.37-2.73a17.85,17.85,0,0,0,0-2l.8-.24.73.4c-.06.65-.29,1.35.12,1.85l.48-.16c-.31-.83.07-2.38,0-3.05h-.32ZM64,10l-.16-.16ZM61.51,12v.16C61.59,12,61.59,12.1,61.51,12Zm-.06.88.16.16ZM73,14.61c0-.34,0-.32-.17-.48l-.33-.32c-.29.16-.28,0-.4.32C72.47,14.35,72.37,14.53,73,14.61Zm-1.44.16V15h.24v-.08Zm1,0c.16.24,0,.13.33.24v-.08Zm.1.88c-.71.82-1.21,3.69-2.34,3.61a1.53,1.53,0,0,1-.3,1.29l.09.32a4.17,4.17,0,0,0,1.28-.08c.2-.89,1.76-3.49,1.35-5.14Zm-.09,3.53L72.41,19Zm-9.87.72a.93.93,0,0,0-.07.8H63A1.61,1.61,0,0,1,63,20Zm-.8.08v0Zm.18,1.2.25.32h.08C62.29,21.18,62.43,21.32,62.09,21.2Zm.4,0,.25.24Zm1,0,.16.08Zm5.39.24-.16-.08Zm-6,.64-.16-.16Zm1.06.56v.16C64,22.66,64,22.79,63.88,22.64Z"/><path class="cls-1" d="M6.35,8.79a3.87,3.87,0,0,1,3,2,44.18,44.18,0,0,1,4.9.08c.48.18.69.68,1.3.88.1,1.07,0,.92-.45,1.61A18.6,18.6,0,0,1,12,12.72a22.12,22.12,0,0,0-7.7.48l-.15.32c.29.36.74.71,1.06,1,.49-.19.51-.14,1,.08v-.24L6,14.33c.53-.44,3.7-1.19,5-.72l1,.88-.06,1-1.67.64c0,.5-.16.45,0,.72.34.16.36.17.41.64l-.24.16-1.52.16c-.32,1.92,0,3.63,0,6a1.16,1.16,0,0,0-.47.64C7,24.36,5.41,23.86,5,22.28c1.07.08,1.25.48,2-.08.21-.8.64-2.69,0-3.29l-2-.32C4.09,17,3.44,16,3.71,13.69c-2,.26-2.47.34-3.4-1.45-.21-.4-.41,0-.25-.56,2.21,0,3.55.27,5.37-.4-.1-.48.19-.59.71-.64C6,9.86,5.89,9.29,6.35,8.79Zm5.83,2.41.08.24c.3,0,.1.09.32-.08ZM6.54,14.65l-.16-.16Zm1.63,1L8.31,15a4.58,4.58,0,0,0-2.72.56,1.14,1.14,0,0,0,.26,1.12,1.07,1.07,0,0,0,1-.16l.79-.72Zm.4-.16v0Zm-3.18,5.7-.8.16c0,.62-.13.5-.22,1.12L3,22.84,2.18,22c.11-.52,0-.91.14-1.29l.4.08-.41-.32a2.12,2.12,0,0,0,.3-1.37c.34-.08.27-.09.48-.24l.65.32a3.65,3.65,0,0,0,.18,1l1.77.16v.4C5.43,21,5.44,20.71,5.38,21.24Zm5.26-2.33c1.41.26,1.89,1.19,3,1.77v.24l-.32.08v.08l.24.08c.25,0,.14-.09.25.24-.34.27-.15.66-.14,1a3.55,3.55,0,0,1-2.4.32v-.4l.47-.48C11.35,20.78,10.67,20.14,10.64,18.91Zm-7.93,1v0Zm.82.72.16.16Zm9.57.48-.16-.16Zm-.39.56.16.16ZM2.42,21.8l.16.16Z"/><path class="cls-1" d="M20.52,19.91a2.48,2.48,0,0,1-.85,1.85,2.28,2.28,0,0,1-1.93-.08,4.6,4.6,0,0,0-.12-1.93c-.25,0-.11.08-.32-.08.09-.5-.71-1.93-1.16-1.93.05-.92-.58-1.7,0-2.41l.47-.48-.17-.32c1-.61,1.57-1.42,2.61-2s5-.38,6.35.32c.24.85,1.9,1.27,2.21,2.41l-.24-.08c2.45,3.43-.61,7.13-3.71,7.79v-.48c1.06,0,1.09-2,2-2.17L25.34,20c.87-1.38.44-3.84-.34-5.22-.36-.64-1.72-1.37-2-1.69-.23.21-1.25.07-1.61,0l-.08.08c.1.46-.21,2.07.37,2.49a23.35,23.35,0,0,0-.72,4.26Zm4.13-6.75-.08.16.24-.16ZM19,19.27c.23-1.57,1.92-4.27,1-5.62l-.64.08c-.23.61-.77.74-1.1,1.2a3.68,3.68,0,0,0,.24,4.34ZM17.11,14l-.08.24c.16-.14.06,0,.16-.24Zm-.23.8c.12.15.15.14.33.24v-.24Zm.81.24-.16-.16Zm9.08.16h0Zm-9.38,1.2.16.08Zm10.45.16.17.24C27.9,16.62,28,16.77,27.84,16.62ZM20,17.1l-.08.16C20.05,17.16,19.95,17.19,20,17.1Zm6.63,2.49v0Zm-8.51.4v0Zm7.87.08v.24l.08-.24Zm-6.32,1.2-.16-.16Z"/><path class="cls-1" d="M39.12,10.35a4.31,4.31,0,0,1,2.51,1c-.06.44.1.82.11,1.53-2,1.1-2-.62-3.26-2.25l.08-.24Zm-5.61.56a1,1,0,0,1,.65.16A3.18,3.18,0,0,1,35,12.6c-1.21,1.21-.72,3.42-.31,4.82l1.69.08v-.4c.72-.1,1.28-.27,1.77,0l.07-.4c.22.26.16.3.57.4l-.09-.4c.67.59.8.13,1.69.32a6.15,6.15,0,0,1,2.28,1.69c-.07,1,.83,2.54-.42,3.45-1.75,1.28-4.81.53-5.26-1.77,1.33.2,1.74.91,3.38.56.07-.39.09-.41.39-.56-.32-.8.07-1.22-.68-1.77C39,17,36.44,18.38,35,18.78l-.3.88-.17-.24a2.53,2.53,0,0,1-1.08,2.49,1.44,1.44,0,0,1-1.37-.08c.07-.36.13-.34-.25-.48-.42-.49-1.67-1.45-1-2.17.42-.47,1.09-.36,2-.32-.15-.54,0-.4.31-.8-.43-.33-.47-2.26-.62-3a3.72,3.72,0,0,1-1.61-.32,3.56,3.56,0,0,0-.58-1l.07-.4C34.09,13.46,32.33,13,33.5,10.91Zm7.8.64v0Zm-.07.72.08.16.08-.16Zm-7.59,2.41h0Zm0,.64.08.16.08-.16Zm.49.16L34,15.33ZM34,16.61c.16.17,0,.08.32.16Zm4.2,1,.16.08Zm.48,0,.16.16Zm.81.16-.16-.16Zm1.2-.16.32.16Zm-.56.24v0Zm-5.7.24v0Zm6.51.08-.08.08.16.16v-.24Zm1,.08.16.16ZM31,19.42v0Zm2.61,2v0Zm6.75.24-.24-.16Zm1.93,0-.16-.16Zm-3.85.4.16.08Z"/><path class="cls-1" d="M52.86,7.78c.53.22,1,.28,1.3.72v.72c.87,0,1.52-.25,2,.32l.08.24c-.6.37-1.44.43-1.83,1l.49.32c.15-.41.34-.3.8-.32.2.51.54.37.74.88-.53.19-1.64.64-2.07.72v.24l.08.16c1.24,0,2.45-.41,3.54.08.23.53.54.34.66,1H58.6c-1.3-.55-6.31-.18-8.34.72-.12-.32,0-.14-.25-.24.09.34.12.14-.07.48l-.72-.08a1.41,1.41,0,0,0-.81-.56l.07-.32c1.08,0,2.76-.21,3.36-.88v-.08c-.74-.1-1.31-.06-1.54-.8a9.41,9.41,0,0,0,2.32-.4l-.09-.64c-.75-.07-1.94.25-2.51-.88l.08-.16,2.41-.16-.17-.4h.4c0-.67-.47-1.12-.43-1.29S52.59,7.94,52.86,7.78Zm-6.41.88c.76.07.78.25,1.38.56-.09-.21-.13-.13-.09-.32.24.26.24.37.65.48,0,.6,0,.11.18.8-.44.24-.57.75-.95,1s-.94.25-1.36.48l-.33-.24a2,2,0,0,0,.7-1c-.14-.57-.38-1-.51-1.61Zm0,.32c.15.16,0,.06.24.16Zm9.33.64.16.16Zm-3.84.64.16.16Zm1.78.64c.15.16,0,.06.24.16Zm-3,1.45.16.08Zm5.07.72.16.08Zm-8.91.24.81.16.25.64c-.35,1-1.63,2-2.36,2.73h-.32c.15-.73.43-.78.45-1.61-.29-.3-.48-.27-.58-.8A5.69,5.69,0,0,0,46.86,13.32Zm11.75,9.4-2.74-.32v-.24l.39-.4-1.48-1.69c.27-.07.14.08.24-.24l.57.16-.09-.48a4,4,0,0,0-2.8.48l.18.8c-.54.14-2.6,3.25-3.74,1.77,0-.27.14-.08-.09-.32H49l.09.32h-.32l-.08-.08c.06-.59,1.93-1.09,2.46-1.61-.59-.45-1-.31-1.47-1l1-.32a9.38,9.38,0,0,1,0-3.78l-.33-.24.08-.24.16-.08.32.16a5,5,0,0,1,.9,1l-.15.72.89.48c.19-.49,1.53-.67,1.91-.88l.9.64v.24c-.66.12-1.35.63-2,.72.15.16,0,.06.24.16a4.78,4.78,0,0,0,2.08-.24c0-1.25.12-2.63-.46-3.13-.9-.58-2,.25-3.29.24l-.25-.4c.22-.22.16-.2.48-.16a5.09,5.09,0,0,1,4.82.08c-.2.91.76,2.06.46,3.05a7.13,7.13,0,0,0-.68,2.41l.65.16c-.08.3-.15.23,0,.4A5,5,0,0,1,58.67,22C58.56,22.29,58.57,22.27,58.6,22.72Zm-9.24-8.35.16.08Zm-3.61.48v0Zm2.17.24.24.08.08.24c-.32.4-.14.46-.22,1l-.24-.08c.17,1.11-.84,4.5-1.36,4.5.24.61,0,.81-.21,1.53a.55.55,0,0,0-.32.08c-.72-.42-.72-1.11-1.16-1.69l.24.08a3.9,3.9,0,0,1,0-2.33H45a1.11,1.11,0,0,0,.57.64h.24c.19-.61.63-.39.87-.8A18.17,18.17,0,0,0,47.93,15.09Zm6.27.32.81.16-.07.56c-.72.26-1.48.49-2,.72a1.32,1.32,0,0,1-.74-.88C53,16,53.82,16,54.21,15.41Zm-8.35.24c.19.17,0,0,.24.08v-.08ZM56,17l-.16-.08Zm-4.65.48-.16-.08Zm.49.64-.16.24.17.72L53,18.95l.23-.48v-.08l-1.12.32v-.56Zm4.31,2.57.08.16.08-.16Zm-10.68.08.16.08Zm-.16.08v0Zm11.83,1.37L57,22.08Zm-6.75,0,.08.16.08-.16Zm5.7,0,.16.16Zm-6.75.08c.15.16,0,.06.24.16Z"/></g></g></svg>