<svg xmlns="http://www.w3.org/2000/svg" viewBox="0 0 220 50"><defs><style>.cls-1{fill:#a9aaab;}.cls-2{fill:#9b9c9d;}.cls-3{fill:#fff;}</style></defs><title>media</title><g id="レイヤー_2" data-name="レイヤー 2"><g id="レイヤー_1-2" data-name="レイヤー 1"><rect class="cls-1" width="220" height="50"/><rect class="cls-2" y="25" width="220" height="25"/><path class="cls-3" d="M62.13,18.36a9.32,9.32,0,0,0-.52,1.08,25,25,0,0,1-2.11,4.25,35.89,35.89,0,0,1,3.34,3.18L61.4,28.41a22.25,22.25,0,0,0-3-3.17A17.2,17.2,0,0,1,56,27.75a19,19,0,0,1-3.57,2.47,4.65,4.65,0,0,0-1.32-1.56A15.27,15.27,0,0,0,55,26.07a15.29,15.29,0,0,0,1.9-2,26.88,26.88,0,0,0-4-2.7L54.26,20c1.1.64,1.74,1.06,2.48,1.59l1.24.88a18.35,18.35,0,0,0,2.12-4.83Z"/><path class="cls-3" d="M73.56,23.61c-.17,3.71-1.57,5.68-5,7a4.77,4.77,0,0,0-1.23-1.67c2.94-.93,4.11-2.41,4.21-5.32H67.94a13.08,13.08,0,0,0-1.9.08V21.9A9.82,9.82,0,0,0,68,22h8.77a9.83,9.83,0,0,0,1.94-.1v1.79a13.09,13.09,0,0,0-1.91-.08Zm2.27-3.67a12.18,12.18,0,0,0-1.9-.08H69.45a12.31,12.31,0,0,0-1.9.08V18.1a9.65,9.65,0,0,0,1.94.1h4.41a9.47,9.47,0,0,0,1.94-.1Zm.87-2.8A10.6,10.6,0,0,1,78,19.5l-1.12.42a11.05,11.05,0,0,0-1.32-2.4Zm2.14,2.13a10.88,10.88,0,0,0-1.29-2.33l1.08-.39A9.21,9.21,0,0,1,80,18.82Z"/><path class="cls-3" d="M92.21,21.07a2.92,2.92,0,0,0-.51.5A20.1,20.1,0,0,1,88.91,24v5.1A8.85,8.85,0,0,0,89,30.57l-1.94,0a9,9,0,0,0,.07-1.42v-4A21.15,21.15,0,0,1,82.88,27a6.15,6.15,0,0,0-.93-1.56A16,16,0,0,0,85.5,24.1a17.13,17.13,0,0,0,4.26-3A5.63,5.63,0,0,0,90.68,20Z"/><path class="cls-3" d="M102.95,21.22a6.9,6.9,0,0,0-.06,1.21c-.06,2.56-.46,4-1.48,5.31a8.67,8.67,0,0,1-3.87,2.7,5.29,5.29,0,0,0-1.18-1.71A6.92,6.92,0,0,0,99,27.46c1.53-1.21,2-2.5,2-5.34a3.78,3.78,0,0,0-.08-.9ZM109,19.33a4.18,4.18,0,0,0-.6,1.05,9.53,9.53,0,0,1-2.31,3,9.42,9.42,0,0,1-1.8,1.25A5.06,5.06,0,0,0,103,23.28a7,7,0,0,0,2.19-1.38A6.23,6.23,0,0,0,106.59,20H98.72a14.55,14.55,0,0,0-2,.09V18.21a11.88,11.88,0,0,0,2.07.12h7.83a4.13,4.13,0,0,0,1.46-.13Z"/><path class="cls-3" d="M116.55,18.63a9,9,0,0,0-.09-1.49h1.88a9.64,9.64,0,0,0-.09,1.49v3.28h3.21V19.47a9,9,0,0,0-.06-1.19h1.8a8.68,8.68,0,0,0-.07,1.3v3a8.28,8.28,0,0,0,0,1c-.33,0-.69,0-1,0h-3.87v4.92H122V25.92a8,8,0,0,0-.08-1.27h1.81a12,12,0,0,0-.07,1.42V29.3a9.46,9.46,0,0,0,.09,1.5H122V30H113v.78h-1.75a10.86,10.86,0,0,0,.09-1.5V26.13a12.48,12.48,0,0,0-.07-1.44h1.81A7.39,7.39,0,0,0,113,26v2.43h3.52V23.49H113c-.41,0-.72,0-1.08,0,0-.33,0-.62,0-1v-3a8.35,8.35,0,0,0-.08-1.32h1.8a8.76,8.76,0,0,0-.06,1.2v2.43h3Z"/><path class="cls-3" d="M126.32,20.83a15.13,15.13,0,0,1,2.55,1.83l-.9,1.4a11.82,11.82,0,0,0-2.58-2ZM129,26a19.3,19.3,0,0,1-1.12,3c-.36.79-.44.93-.67,1.38a2.84,2.84,0,0,0-.21.39l-1.44-1.25A12.06,12.06,0,0,0,127.63,25Zm-.47-5.58a9.64,9.64,0,0,0-2.43-2.08l1-1.2a12.85,12.85,0,0,1,2.34,1.9,8.54,8.54,0,0,0,0-.93,12.29,12.29,0,0,0,1.48.06h2.46V18a6,6,0,0,0-.07-1H135a4.8,4.8,0,0,0-.08,1v.12h2.61a13.63,13.63,0,0,0,1.6-.06,10.08,10.08,0,0,0,0,1V20a7.17,7.17,0,0,0,.06,1.06H137.9v.63a12.09,12.09,0,0,0-1.4-.06h-1.6v.81h2.46a9.47,9.47,0,0,0,1.29-.06,11.58,11.58,0,0,0-.06,1.35v3a12.48,12.48,0,0,0,.06,1.38A11.9,11.9,0,0,0,137.3,28h-1.5a6,6,0,0,0,1.24.74,7.82,7.82,0,0,0,2.56.69,4.46,4.46,0,0,0-.81,1.42,8.86,8.86,0,0,1-2.05-.67,9.1,9.1,0,0,1-2-1.15l1-1h-3.31l1,1a9.19,9.19,0,0,1-4,1.83,4.12,4.12,0,0,0-.92-1.36A7.73,7.73,0,0,0,132.39,28h-1.21c-.61,0-.87,0-1.29,0,0-.36,0-.73,0-1.33V23.67c0-.57,0-1,0-1.29.26,0,.77,0,1.26,0h2.26v-.81H132a11.85,11.85,0,0,0-1.36.06v-.61h-1.22a9.61,9.61,0,0,0,0-1v-1Zm9.07-.9H131v.83c.35,0,.6,0,1,0h4.51c.47,0,.71,0,1.06,0Zm-6.15,4.14v1h2v-1Zm0,2.19v1h2v-1Zm3.48-1.19h2.19v-1H134.9Zm0,2.19h2.19v-1H134.9Z"/><path class="cls-3" d="M140.38,23.91a13.12,13.12,0,0,0,.5-4l1.18.27a18.41,18.41,0,0,1-.48,4.18Zm3.55,5.14a16.19,16.19,0,0,0,.09,1.86h-1.75a14,14,0,0,0,.1-1.91V18.63a10.33,10.33,0,0,0-.1-1.61H144a10.07,10.07,0,0,0-.09,1.61v1.24l.89-.34a9.93,9.93,0,0,1,.76,2l-.4.18c.38,0,.67,0,1.26,0h2.22v-.6h-1.71a10,10,0,0,0-1.26.06V19.83a9.63,9.63,0,0,0,1.28.06h1.69v-.56h-1.94a9,9,0,0,0-1.48.08V18a8.26,8.26,0,0,0,1.56.09h1.86a4.15,4.15,0,0,0-.09-1h1.73a4.16,4.16,0,0,0-.09,1h2.29a8.16,8.16,0,0,0,1.56-.09v1.44a10.45,10.45,0,0,0-1.53-.08H150.2v.56h2.11a8.58,8.58,0,0,0,1.25-.06v1.33a9.37,9.37,0,0,0-1.27-.06H150.2v.6h2.63a9.43,9.43,0,0,0,1.48-.08V23.1a10.41,10.41,0,0,0-1.48-.09h-6.39a8,8,0,0,0-1.51.09V21.78l-.47.21a11.35,11.35,0,0,0-.52-1.67Zm3.25.12a12.84,12.84,0,0,0,.09,1.71h-1.73a12.45,12.45,0,0,0,.08-1.71V24.85c0-.57,0-.86,0-1.28.36,0,.68,0,1.2,0h5.28a9.78,9.78,0,0,0,1.35-.06,12.86,12.86,0,0,0-.06,1.54v4.23c0,1.14-.41,1.44-1.92,1.44-.33,0-.62,0-1.35-.06a5.77,5.77,0,0,0-.35-1.44,10.6,10.6,0,0,0,1.47.13c.48,0,.57-.06.57-.36v-.51h-4.59Zm4.59-3.69v-.62h-4.59v.62Zm0,1.83V26.7h-4.59v.62Z"/><path class="cls-3" d="M161,21a7.77,7.77,0,0,0,1.31-.07v1.59a6.81,6.81,0,0,0-.84-.06,9.73,9.73,0,0,1-.49,1.67h.18a5.94,5.94,0,0,0,1.16-.08v1.59a10.62,10.62,0,0,0-1.31-.06h-1.17v1.2h1a9.42,9.42,0,0,0,1.25-.06v1.58a9.73,9.73,0,0,0-1.25-.06h-1v1.09c0,.5,0,1,.08,1.53h-1.65a12,12,0,0,0,.09-1.53V28.27h-1.08a9.88,9.88,0,0,0-1.24.06V26.76a9.41,9.41,0,0,0,1.24.06h1.08v-1.2H157a10.94,10.94,0,0,0-1.31.06V24.09a7,7,0,0,0,1.31.08h.17a9.46,9.46,0,0,0-.39-1.67,7.26,7.26,0,0,0-1.08.06V21A7.88,7.88,0,0,0,157,21h1.35V19.89h-1a10,10,0,0,0-1.25.06V18.39a9,9,0,0,0,1.25.06h1v-.27a5.62,5.62,0,0,0-.09-1.14h1.62a8.32,8.32,0,0,0-.06,1.14v.27h.89a9,9,0,0,0,1.24-.06v1.56a10,10,0,0,0-1.24-.06h-.89V21Zm-1.44,3.12A9.54,9.54,0,0,0,160,22.5h-1.8a10.87,10.87,0,0,1,.37,1.67Zm9.51-1.06a3.16,3.16,0,0,0-.18.66,16.86,16.86,0,0,1-1.27,3.72,7.19,7.19,0,0,0,2.07,1.74,9.11,9.11,0,0,0-.87,1.59,12.67,12.67,0,0,1-2-1.95A10.21,10.21,0,0,1,165,30.79a9.6,9.6,0,0,0-.84-1.3,12.91,12.91,0,0,0,.1,1.41h-1.71a10.74,10.74,0,0,0,.1-1.78v-10a15.12,15.12,0,0,0-.07-1.53,10.07,10.07,0,0,0,1.41.07h3.69a9.21,9.21,0,0,0,1.4-.07c0,.43-.06.61-.08,1-.18,2.76-.39,3.08-2,3.08a13.4,13.4,0,0,1-1.35-.08,5.41,5.41,0,0,0-.33-1.41,10.77,10.77,0,0,0,1.54.18c.46,0,.54-.15.6-1.26h-3.27v3.29H167a10.29,10.29,0,0,0,1.43-.06Zm-4.92,6.18a7.61,7.61,0,0,0,1.67-1.74,11.76,11.76,0,0,1-1.42-3.79h-.24Zm1.6-5.54a8.51,8.51,0,0,0,.9,2.38,10.48,10.48,0,0,0,.73-2.38Z"/></g></g></svg>