<svg xmlns="http://www.w3.org/2000/svg" viewBox="0 0 800 60"><defs><style>.cls-1{fill:#fff;}.cls-2{fill:#e60012;}</style></defs><title>message</title><g id="レイヤー_2" data-name="レイヤー 2"><g id="レイヤー_1-2" data-name="レイヤー 1"><rect class="cls-1" x="1.39" y="1.39" width="797.22" height="57.22"/><path class="cls-2" d="M797.22,2.78V57.22H2.78V2.78H797.22M800,0H0V60H800V0Z"/><path class="cls-2" d="M87.61,21.47c-1.45,1.22-2.09,2.18-2.09,3.17,0,1.5,1.68,2.14,5.57,2.14a23.69,23.69,0,0,0,7.22-1l.25,3.15a9.4,9.4,0,0,0-1,.09,37.09,37.09,0,0,1-6.21.53,16.45,16.45,0,0,1-5.75-.76c-2-.78-2.94-2-2.94-3.84s.9-3.29,3-5ZM84.12,12a30.15,30.15,0,0,0,6.9.58,28.48,28.48,0,0,0,6.07-.44l.09,2.6A41.71,41.71,0,0,0,91,18.55L89,17c1.45-.92,1.7-1.08,2.28-1.4l.6-.37a4.29,4.29,0,0,0,.51-.28A24.55,24.55,0,0,1,89,15.1a36.22,36.22,0,0,1-4.21-.28l-.53,0s-.16,0-.32,0Zm12.14,5.11a14.9,14.9,0,0,1,2.42,3.38l-1.61.85a15.49,15.49,0,0,0-2.42-3.43Zm3.56,2.78a17,17,0,0,0-2.35-3.33l1.54-.8A13.29,13.29,0,0,1,101.41,19Z"/><path class="cls-2" d="M103.74,15.76a21.67,21.67,0,0,1,4.16,3l-1.38,2.12a17.29,17.29,0,0,0-4.25-3.2Zm4.32,7.84a40.11,40.11,0,0,1-2.55,5.89c-.23.41-.37.64-.64,1.1-.18.3-.18.3-.32.55l-2.18-1.91A24,24,0,0,0,106,22.16Zm-3.31-13.45a20.26,20.26,0,0,1,4.07,3l-1.54,2a15.08,15.08,0,0,0-4.09-3.26Zm11.87,4.53a18.47,18.47,0,0,0-4.78-2.92l1.65-1.89a24.65,24.65,0,0,1,4.95,2.92l-1.52,1.89h3.45a15.12,15.12,0,0,0,2.58-.14v2.58c-.71-.07-1.56-.12-2.58-.12h-3.61v4h3a19,19,0,0,0,2.51-.14V23.4c-.71-.07-1.61-.12-2.51-.12h-3V28h3.93a22.25,22.25,0,0,0,2.74-.14v2.58a22.77,22.77,0,0,0-2.74-.14h-10a22.26,22.26,0,0,0-2.74.14V27.91a23.6,23.6,0,0,0,2.74.14h3.52V23.28h-2.34c-.92,0-1.82,0-2.53.12V20.87a19.08,19.08,0,0,0,2.51.14h2.37V17h-3a20.32,20.32,0,0,0-2.58.12V14.55a19.78,19.78,0,0,0,2.58.14Z"/><path class="cls-2" d="M142.33,15.86a19,19,0,0,1-1.79,4.62,20.67,20.67,0,0,1-2.71,3.89,21.43,21.43,0,0,0,9,4,8.34,8.34,0,0,0-1.59,2.69,26,26,0,0,1-9.27-5,25.13,25.13,0,0,1-4.51,3,33.83,33.83,0,0,1-4.9,2,9.22,9.22,0,0,0-1.47-2.46c4.12-1.13,6.67-2.32,9-4.28a21.32,21.32,0,0,1-2.71-3.68,21.71,21.71,0,0,1-2.07-4.83h-1.08a25.18,25.18,0,0,0-2.81.14V13.4a20.44,20.44,0,0,0,2.88.16h6.12V11.92a8.14,8.14,0,0,0-.16-1.77h2.92A8.12,8.12,0,0,0,137,11.9v1.66h6.42a20.34,20.34,0,0,0,2.9-.16V16a23.76,23.76,0,0,0-2.8-.14Zm-10.35,0a16.74,16.74,0,0,0,1.75,3.93,16.37,16.37,0,0,0,2.21,2.87,16.62,16.62,0,0,0,2.09-2.9,16.3,16.3,0,0,0,1.59-3.91Z"/><path class="cls-2" d="M150.13,30.18a8.59,8.59,0,0,0-.12-.9,43.55,43.55,0,0,1-.62-7.31,41.12,41.12,0,0,1,.44-6.09c.12-.69.12-.69.62-3.29a12.3,12.3,0,0,0,.25-1.7V10.8l3.1.32c-.94,2-1.82,7.54-1.84,11.54,0,.83,0,.83,0,1.2v.37a3.84,3.84,0,0,1,0,.48h0c.11-.25.11-.25.28-.67,0-.16.16-.41.28-.78l.44-1a4.45,4.45,0,0,0,.28-.71l1.91.85a19.2,19.2,0,0,0-2.28,7,4.51,4.51,0,0,0,0,.62Zm5.2-15.06a16.55,16.55,0,0,0,4.16.37c.8,0,1.31,0,2.12,0,0-1.36,0-2.51,0-3.45a6.44,6.44,0,0,0-.07-1.1l2.87-.07a22.48,22.48,0,0,0-.16,3.38v1.06a23,23,0,0,0,3.1-.55l.51-.18.18,0,.09,2.6a3.92,3.92,0,0,0-.67.11c-.78.16-2,.37-3.2.51v.51c0,1.29,0,1.33.23,5.2a18.36,18.36,0,0,1,3.61,2.09,4.4,4.4,0,0,0,.64.39l-1.1,2.78a8.59,8.59,0,0,0-1.72-1.47l-1.45-.94v.32a4,4,0,0,1-.18,1.29c-.53,1.36-2.14,2.16-4.37,2.16-3,0-4.85-1.43-4.85-3.77s2-3.79,4.74-3.79a5.47,5.47,0,0,1,2,.32c-.07-.58-.09-1.7-.18-4.9-.92,0-1.47,0-2.07,0-.85,0-1.77,0-2.85-.12-.32,0-.58,0-.69,0a3.51,3.51,0,0,0-.39,0,1,1,0,0,0-.23,0,.4.4,0,0,0-.14,0ZM160,24.76c-1.47,0-2.39.58-2.39,1.52s.83,1.43,2.12,1.43a2.26,2.26,0,0,0,1.86-.71,1.93,1.93,0,0,0,.3-1.24v-.62A4.81,4.81,0,0,0,160,24.76Z"/><path class="cls-2" d="M172.41,24.07a26.84,26.84,0,0,1,5.17,5.06l-2.14,2a24.8,24.8,0,0,0-5-5.24Z"/><path class="cls-2" d="M191.87,11.28a7.61,7.61,0,0,0-.12-1.4h2.76a5.79,5.79,0,0,0-.12,1.43v.83h5.7A21.37,21.37,0,0,0,203,12v2.55c-.69-.07-1.72-.11-2.85-.11H186.54c0,9.75-.53,13.22-2.64,16.67a9.94,9.94,0,0,0-2-2,11.62,11.62,0,0,0,1.72-4.67,53,53,0,0,0,.48-8.95c0-2,0-2.69-.09-3.5.8.07,1.68.12,2.71.12h5.2Zm.87,6a13,13,0,0,0-.11-2.28h2.62a16.5,16.5,0,0,0-.09,2.28v.28H200a14.94,14.94,0,0,0,2.44-.14v2.53a17.42,17.42,0,0,0-2.35-.14h-4.92v2.41h4.21a15.37,15.37,0,0,0,2-.09,22.55,22.55,0,0,0-.09,2.32V28.2a19.72,19.72,0,0,0,.14,3h-2.62v-1h-8.51v1h-2.6a21.35,21.35,0,0,0,.14-2.83V24.16a17,17,0,0,0-.09-2,16,16,0,0,0,2,.09h2.94Zm-2.44,10.65h8.51v-3.4h-8.51Z"/><path class="cls-2" d="M208.2,18.39a12.27,12.27,0,0,0-1.5.07V16.59c-.34.3-.53.44-1.06.85a9,9,0,0,0-1-2.39,10,10,0,0,0,2.62-2.34,13.93,13.93,0,0,0,1.77-2.58h2.46a11.16,11.16,0,0,0,3.06,3.15V12.2a12.71,12.71,0,0,0,2.12.11h2.58v-.51a10.11,10.11,0,0,0-.14-1.86h2.48a8,8,0,0,0-.14,1.86v.51h2.83a9.84,9.84,0,0,0-2.18-1.45l1.29-1.24a9.43,9.43,0,0,1,2.39,1.47l-1.06,1.22a9.13,9.13,0,0,0,1.59-.11v2.46a11.14,11.14,0,0,0-1.91-.12h-2.94v1.52h2.35c1.08,0,1.52,0,2.09-.07a19.32,19.32,0,0,0-.09,2.35V29.1c0,1.33-.6,1.79-2.32,1.79-.23,0-.34,0-1.13,0a7.72,7.72,0,0,0-.46-2.18,8,8,0,0,0,1.31.12c.32,0,.41-.12.41-.53V26h-2.16v2.8a16.07,16.07,0,0,0,.09,2.12h-2.39a16.82,16.82,0,0,0,.09-2.09V26h-2.07v2.67a21.15,21.15,0,0,0,.09,2.53h-2.37a17.7,17.7,0,0,0,.11-2.51V18.29c0-1.22,0-1.63-.07-2.3.6,0,1.08.07,2.3.07h2V14.55h-2.58a17.71,17.71,0,0,0-2.12.09c-.25.48-.32.62-.6,1.22a14.1,14.1,0,0,1-3.63-3.68,17.64,17.64,0,0,1-3.4,4.21c.37,0,.71,0,1.24,0h1.08v-.16a13.65,13.65,0,0,0-.09-2h2.46a10.18,10.18,0,0,0-.12,1.93v.18h1a7.51,7.51,0,0,0,1.45-.07v2.09a9.72,9.72,0,0,0-1.4-.07h-1.08V20h1.2a17.28,17.28,0,0,0,1.84-.07v2.21a11,11,0,0,0-1.79-.09h-5.61a10.87,10.87,0,0,0-1.88.11V19.95a14,14,0,0,0,1.88.09h2.12V18.39Zm3.29,12.53v-.78h-2.85v1h-2.46a12.3,12.3,0,0,0,.12-2V25.24a14.74,14.74,0,0,0-.09-1.86,12.73,12.73,0,0,0,1.79.09h4.21a10.11,10.11,0,0,0,1.66-.09c0,.39,0,.94,0,1.75v4.14a10.38,10.38,0,0,0,.09,1.66Zm-2.85-2.81h2.85V25.38h-2.85Zm8.55-10V20h2.07V18.13ZM219.26,22h-2.07v2h2.07Zm2.21-2h2.16V18.13h-2.16ZM223.63,24V22h-2.16v2Z"/><path class="cls-2" d="M245.34,29.58a15.51,15.51,0,0,0-4.25-3.15,10.41,10.41,0,0,0-1.24-.58v.25a3.58,3.58,0,0,1-1.29,3.1,6.12,6.12,0,0,1-3.79,1c-3.36,0-5.29-1.31-5.29-3.59,0-2.51,2.28-4,6.14-4a11.94,11.94,0,0,1,1.54.09,4.34,4.34,0,0,0,0-.55v-.51c0-.32,0-.32,0-1.24l-2.3,0c-1.4,0-2.25,0-4.16-.16-.3,0-.53,0-.87,0l0-2.48a29.68,29.68,0,0,0,5.36.39c.46,0,1.24,0,1.88,0,0-.21,0-1,0-2.3-.74,0-1.1,0-1.45,0-1.13,0-4.09-.12-5.63-.23-.25,0-.44,0-.51,0h-.37l0-2.55a30.23,30.23,0,0,0,6.19.48l1.72,0a16.46,16.46,0,0,0-.12-2.9h2.92a14.22,14.22,0,0,0-.16,2.81,31.17,31.17,0,0,0,6.62-.87l.11,2.55a14.56,14.56,0,0,0-1.82.21c-2,.28-2.92.35-4.94.46,0,.58,0,.85,0,2.28,1.15-.07,1.15-.07,3.26-.3a16.94,16.94,0,0,0,2.85-.51l.07,2.53c-.39,0-1,.09-1.5.16-.34,0-1.38.16-3.1.32l-1.56.09c.07,2.23.07,2.23.09,2.78a20.59,20.59,0,0,1,6.3,3.24c.39.25.51.35.83.53Zm-10-4.67c-1.86,0-3,.6-3,1.59s1,1.38,2.62,1.38a2.39,2.39,0,0,0,2-.74,2.92,2.92,0,0,0,.28-1.47v-.55A8.07,8.07,0,0,0,235.29,24.92Z"/><path class="cls-2" d="M249.92,14.06a18.31,18.31,0,0,0,3.08.21c.28,0,.53,0,1.06,0a27.91,27.91,0,0,0,.44-3.52,3.06,3.06,0,0,0,0-.41l3,.28a13.08,13.08,0,0,0-.44,2.21l-.23,1.31a19.12,19.12,0,0,0,3.93-.69l.12,2.64-.74.12a31.35,31.35,0,0,1-3.77.48c-.25,1.43-.83,3.86-1.43,6a77.66,77.66,0,0,1-2.58,7.61l-2.9-1.13a49.12,49.12,0,0,0,4.12-12.37,1.91,1.91,0,0,1-.3,0H252c-.11,0-.34,0-.74,0s-.74,0-.92,0a3.52,3.52,0,0,0-.44,0ZM261.33,23a3.82,3.82,0,0,0-1.2,2.53c0,1.17,1.15,1.77,3.45,1.77a17.59,17.59,0,0,0,5.22-.85l.21,2.83c-.41,0-.6.07-1.13.16a26.72,26.72,0,0,1-4.28.37,9.33,9.33,0,0,1-4.62-.92A3.32,3.32,0,0,1,257.35,26c0-1.22.44-2.25,1.7-4Zm6.83-3a24.09,24.09,0,0,0-2.9-.16,24.81,24.81,0,0,0-6.07.67L259,17.95a29.54,29.54,0,0,1,6.85-.74l2.28,0Z"/><path class="cls-2" d="M272.9,30.18a8.59,8.59,0,0,0-.12-.9,43.65,43.65,0,0,1-.62-7.31,41.12,41.12,0,0,1,.44-6.09c.12-.69.12-.69.62-3.29a12.2,12.2,0,0,0,.25-1.7V10.8l3.1.32c-.94,2-1.82,7.54-1.84,11.54,0,.83,0,.83,0,1.2v.37a4,4,0,0,1,0,.48h0c.11-.25.11-.25.28-.67,0-.16.16-.41.28-.78l.44-1a4.58,4.58,0,0,0,.28-.71l1.91.85a19.19,19.19,0,0,0-2.28,7,4.61,4.61,0,0,0,0,.62Zm5.2-15.06a16.56,16.56,0,0,0,4.16.37c.8,0,1.31,0,2.12,0,0-1.36,0-2.51,0-3.45a6.34,6.34,0,0,0-.07-1.1l2.88-.07A22.45,22.45,0,0,0,287,14.2v1.06a23,23,0,0,0,3.1-.55l.51-.18.18,0,.09,2.6a3.92,3.92,0,0,0-.67.11c-.78.16-2,.37-3.2.51v.51c0,1.29,0,1.33.23,5.2a18.32,18.32,0,0,1,3.61,2.09,4.35,4.35,0,0,0,.64.39l-1.1,2.78a8.62,8.62,0,0,0-1.72-1.47l-1.45-.94v.32a4,4,0,0,1-.18,1.29c-.53,1.36-2.14,2.16-4.37,2.16-3,0-4.85-1.43-4.85-3.77s2-3.79,4.74-3.79a5.47,5.47,0,0,1,2,.32c-.07-.58-.09-1.7-.18-4.9-.92,0-1.47,0-2.07,0-.85,0-1.77,0-2.85-.12-.32,0-.57,0-.69,0a3.5,3.5,0,0,0-.39,0,1,1,0,0,0-.23,0,.39.39,0,0,0-.14,0Zm4.67,9.63c-1.47,0-2.39.58-2.39,1.52s.83,1.43,2.12,1.43a2.26,2.26,0,0,0,1.86-.71,1.93,1.93,0,0,0,.3-1.24v-.62A4.8,4.8,0,0,0,282.77,24.76Z"/><path class="cls-2" d="M295.19,24.07a26.82,26.82,0,0,1,5.17,5.06l-2.14,2a24.75,24.75,0,0,0-5-5.24Z"/><path class="cls-2" d="M309.13,12.5c-1,0-1.66,0-2.41.09V10.36a22.8,22.8,0,0,0,2.6.14h12.14a21.37,21.37,0,0,0,2.6-.14v2.23a23.23,23.23,0,0,0-2.37-.09h-5.27v.87h6.16a26.43,26.43,0,0,0,2.85-.09,10.94,10.94,0,0,0-.09,1.89v1.45a10.56,10.56,0,0,0,.12,1.82h-2.37V15.19h-6.67v2.28a13.54,13.54,0,0,0,.09,2.16h-2.64a18.46,18.46,0,0,0,.12-2.16V15.19h-6.32v3.24h-2.39a10.54,10.54,0,0,0,.14-1.82V15.17a14.84,14.84,0,0,0-.09-1.89,25.61,25.61,0,0,0,2.83.09H314V12.5Zm14.44,13.36a8.07,8.07,0,0,0,2.41.92c-.07,2-.32,3-.92,3.47s-2,.74-5.91.74c-4.51,0-5.17-.23-5.17-1.77V27.65h-4.39v1.17H307a17.58,17.58,0,0,0,.14-2.28V22.32a20.86,20.86,0,0,0-.11-2.21,18.73,18.73,0,0,0,2.18.09h12.14a20,20,0,0,0,2.28-.09,19.1,19.1,0,0,0-.09,2.23ZM308.62,15.79a5.48,5.48,0,0,0,1.2.07h2a7.81,7.81,0,0,0,1.17-.07v1.54a7.88,7.88,0,0,0-1.17-.07h-2a8.25,8.25,0,0,0-1.2.07Zm0,2.16a5.48,5.48,0,0,0,1.2.07h2a7.6,7.6,0,0,0,1.17-.07v1.54a7.39,7.39,0,0,0-1.17-.07h-2a8.38,8.38,0,0,0-1.2.07Zm1,4V23H314V22Zm0,2.69v1.15H314V24.66ZM316.37,23h4.78V22h-4.78Zm0,2.78h4.78V24.66h-4.78Zm0,2.67c0,.18,0,.3.16.34a19.33,19.33,0,0,0,6.51,0c.28-.14.37-.34.44-1.13h-7.11Zm1.08-12.69a5.37,5.37,0,0,0,1.2.07H321a7.81,7.81,0,0,0,1.17-.07v1.54a8.1,8.1,0,0,0-1.17-.07h-2.35a8,8,0,0,0-1.2.07Zm0,2.16a5.37,5.37,0,0,0,1.2.07H321a7.6,7.6,0,0,0,1.17-.07v1.54a7.6,7.6,0,0,0-1.17-.07h-2.35a8.38,8.38,0,0,0-1.2.07Z"/><path class="cls-2" d="M328.06,13.79a10.42,10.42,0,0,0,1.86.12h4.69a12.54,12.54,0,0,0,1.86-.09v2.28a14.76,14.76,0,0,0-1.75-.07h-4.81a13.82,13.82,0,0,0-1.86.09Zm.74-3.15a14.13,14.13,0,0,0,1.91.09h3.36a14.15,14.15,0,0,0,1.91-.09v2.25a14.6,14.6,0,0,0-1.91-.09H330.7a14.83,14.83,0,0,0-1.91.09Zm2.44,20.56h-2.37A15.35,15.35,0,0,0,329,29V25.38a14.91,14.91,0,0,0-.09-1.82,13.51,13.51,0,0,0,1.75.09h3.86a8.13,8.13,0,0,0,1.54-.07,14.33,14.33,0,0,0-.07,1.66V29.1a13,13,0,0,0,.09,1.79h-2.28v-.78h-2.55Zm-2.35-14.07a13.26,13.26,0,0,0,1.52.07h4.09a11.84,11.84,0,0,0,1.47-.07v2.18a9.52,9.52,0,0,0-1.47-.07H330.4a13,13,0,0,0-1.52.07Zm0,3.22a13.22,13.22,0,0,0,1.52.07h4.09a8.5,8.5,0,0,0,1.47-.07v2.18a9.54,9.54,0,0,0-1.52-.07h-4.07a12.79,12.79,0,0,0-1.5.07Zm2.3,7.73h2.6V25.67h-2.6Zm10.09-14.35c-1.38.18-1.61.21-4,.46a8.77,8.77,0,0,0-.85-2.25c4.14-.14,8.88-1.06,10.69-2.07l1.43,2.21c-.3.07-.3.07-1.1.3-1.36.39-2.55.69-3.66.92v3.33h2.48a19.35,19.35,0,0,0,2.6-.14V19a20.21,20.21,0,0,0-2.58-.14h-2.51v3h2.53a11.51,11.51,0,0,0,1.72-.09,15.48,15.48,0,0,0-.09,2v4.94a22.87,22.87,0,0,0,.11,2.42h-2.6v-1h-5.63v1h-2.58a15.59,15.59,0,0,0,.12-2.35V23.61c0-.8,0-1.22-.07-1.84a12.24,12.24,0,0,0,1.68.09h2.32v-3h-2a19.86,19.86,0,0,0-2.6.14V16.48a20,20,0,0,0,2.62.14h2Zm-1.47,14.17h5.63V24.07h-5.63Z"/><path class="cls-2" d="M358.41,20.59a2.74,2.74,0,1,1-2.74-2.74A2.73,2.73,0,0,1,358.41,20.59Z"/><path class="cls-2" d="M366.3,26.3a19.75,19.75,0,0,0,.18,3.31h-3.43a19.43,19.43,0,0,0,.18-3.27V14.22a19.89,19.89,0,0,0-.18-3c.94,0,1.52.07,2.92.07h6.44a23.44,23.44,0,0,0,3.15-.16v3.1a22.07,22.07,0,0,0-3.15-.16H366.3V19h4.92a22.81,22.81,0,0,0,3.13-.16v3.06a22.57,22.57,0,0,0-3.13-.16H366.3Z"/><path class="cls-2" d="M390.8,29.61a15.45,15.45,0,0,0-.64-2.42l-.92-2.51h-7.36L381,27.19a11.5,11.5,0,0,0-.69,2.42h-3.77a25.45,25.45,0,0,0,1.22-2.71l5.06-13.27a13.69,13.69,0,0,0,.74-2.32h4a15.34,15.34,0,0,0,.78,2.32l5.1,13.27a24.16,24.16,0,0,0,1.17,2.71Zm-4.85-14.37c-.09-.25-.16-.53-.41-1.29l-.44,1.29L382.7,22h5.7Z"/><path class="cls-2" d="M408.9,29.61c-.46-.85-1-1.68-1.54-2.55l-3.24-4.92L400.9,27c-.55.83-1.13,1.82-1.54,2.58h-4.18c1.36-1.72,1.68-2.16,2.16-2.83l4.88-6.85-4.23-6c-.62-.87-1.31-1.77-2-2.64h4.12a17.6,17.6,0,0,0,1.47,2.58l2.62,3.91,2.55-3.91a14.73,14.73,0,0,0,1.45-2.58h4.09c-.64.8-1.31,1.68-2,2.64l-4.23,6,4.88,6.85c.53.76,1.08,1.47,2.21,2.85Z"/><path class="cls-2" d="M422,20.59a2.74,2.74,0,1,1-2.74-2.74A2.73,2.73,0,0,1,422,20.59Z"/><path class="cls-2" d="M434,26.82a6.83,6.83,0,0,1-.18,2,2,2,0,0,1-2.12,1.33,7.16,7.16,0,0,1-4.35-1.63,3.38,3.38,0,0,1-1.27-2.6,4.91,4.91,0,0,1,2-3.4,12.28,12.28,0,0,1,3.36-2l0-3.54-.94,0c-.34,0-.67,0-1.24,0L428,17c-.3,0-.51,0-.58,0a4.41,4.41,0,0,0-.48,0l0-2.58a14.12,14.12,0,0,0,2.78.21c.23,0,.48,0,.8,0l.92,0V13.1a15.85,15.85,0,0,0-.14-2.64h2.87A14.1,14.1,0,0,0,434,13v1.47a25.65,25.65,0,0,0,4.44-.87l.09,2.58-2.44.41c-.76.14-1.22.21-2.09.3v3a15.94,15.94,0,0,1,4.69-.64c3.84,0,6.58,2.35,6.58,5.61A5.11,5.11,0,0,1,440.06,30a3.71,3.71,0,0,1-3.77-2.55,7.68,7.68,0,0,1-.39-2.94,9.68,9.68,0,0,0,2.55-1,7.83,7.83,0,0,0,0,1,4.42,4.42,0,0,0,.32,2,1.59,1.59,0,0,0,1.45.78,2.36,2.36,0,0,0,2.32-2.55c0-2-1.61-3.26-4.07-3.26a14.71,14.71,0,0,0-4.42.76Zm-2.6-3.7c-1.72.92-2.74,1.93-2.74,2.76,0,.39.23.74.76,1.06a2.77,2.77,0,0,0,1.47.51c.39,0,.51-.21.51-1Zm12.74-4.64a19.62,19.62,0,0,0-4.6-5l2.16-1.45a19.52,19.52,0,0,1,4.55,4.71Z"/><path class="cls-2" d="M457.57,13.76c-3,.28-4.16.34-7.17.41a12.74,12.74,0,0,0-.85-2.37h1.13A71.34,71.34,0,0,0,461,11a16.09,16.09,0,0,0,4.25-1.1l1.89,2.3a61.4,61.4,0,0,1-7,1.29v3h4.76a22.89,22.89,0,0,0,2.87-.14v2.58a23.9,23.9,0,0,0-2.83-.14h-4.81v2.78H466a21.74,21.74,0,0,0,2.81-.14V24A23,23,0,0,0,466,23.9h-5.89v4.51c0,1-.32,1.72-.9,2a7.35,7.35,0,0,1-2.57.37c-.69,0-1.82,0-3.13-.16a7,7,0,0,0-.69-2.51,28.58,28.58,0,0,0,3.84.32c.67,0,.87-.16.87-.71V23.9h-6.42a23.11,23.11,0,0,0-2.83.14v-2.6a21.89,21.89,0,0,0,2.83.14h6.42V18.8h-5.13a26.79,26.79,0,0,0-2.87.14V16.36a22.49,22.49,0,0,0,2.85.14h5.15Z"/><path class="cls-2" d="M473.9,23.28a27.86,27.86,0,0,1-1,6.78l-2.07-.9a21.71,21.71,0,0,0,1-6.14Zm-1.08-3.47c.18-.25.18-.25.55-.71.18-.23.37-.46.64-.87A22.14,22.14,0,0,0,471,14.8L472.22,13l.71.71a16.75,16.75,0,0,0,1.89-3.86l2.16.85a8,8,0,0,0-.55,1,25.43,25.43,0,0,1-2.12,3.52c.46.51.6.67,1,1.13a24.93,24.93,0,0,0,2.32-4.19l2.12,1.17a22.54,22.54,0,0,0-1.4,2.12,45.36,45.36,0,0,1-3,4.3c1.17,0,2-.09,2.6-.16-.28-.67-.37-.94-.76-1.77l1.68-.8a40.63,40.63,0,0,1,1.84,4.53l-1.82.85c-.14-.46-.16-.6-.28-.94l-1.72.21v7.17a16.8,16.8,0,0,0,.14,2.46h-2.53a17.83,17.83,0,0,0,.14-2.46v-7c-1.84.11-2.94.18-3.31.23L471,19.74a6.42,6.42,0,0,0,1.2.07h.64Zm6.37,2.94a33.21,33.21,0,0,1,.85,4.58l-1.88.46a24.92,24.92,0,0,0-.74-4.58Zm12.65-10.44c-.28.07-.48.14-.62.18-2,.6-2,.62-3.24.9v1.79c0,.67,0,1.38.16,3.06l1.79,0,1.26-.07a6.56,6.56,0,0,0,1-.12v2.53a9.5,9.5,0,0,0-1.75-.09l-.53,0-1.56,0a23.75,23.75,0,0,0,1.38,6.55c.16.39.37.69.44.69a9.06,9.06,0,0,0,.53-3,6.09,6.09,0,0,0,2,1.77c-.41,3.1-1.06,4.3-2.35,4.3-2.12,0-3.7-3.75-4.37-10.26l-2.74,0v6.94c1.38-.41,2-.67,3-1l0,2.3a50.91,50.91,0,0,1-6.28,2,6.11,6.11,0,0,0-.85.28l-.57-2.48a15.11,15.11,0,0,0,2.21-.41v-14a17.72,17.72,0,0,0-.09-2.12,31.48,31.48,0,0,0,6.65-1,9.37,9.37,0,0,0,2.85-1Zm-6.09,6c-.07-1.1-.14-2.58-.21-4.44-.87.14-1.22.18-2.37.32v4.16Z"/><path class="cls-2" d="M494,13.28l.87,0c.41,0,.41,0,3.79-.23,1.68-.09,5.61-.3,11.75-.6a12.41,12.41,0,0,0,2.37-.18l.16,2.92a3.63,3.63,0,0,0-.48,0,10.29,10.29,0,0,0-4.55,1.24c-2.92,1.52-4.64,3.82-4.64,6.14a3.86,3.86,0,0,0,3.06,3.75,13.93,13.93,0,0,0,3.43.6s.23,0,.46,0L509.8,30c-.3-.07-.34-.07-.78-.14a13.83,13.83,0,0,1-5.38-1.52,6.15,6.15,0,0,1-3.29-5.54,8,8,0,0,1,2.18-5.4,10.16,10.16,0,0,1,3.2-2.32c-1.86.28-3.29.41-7.75.74a28.85,28.85,0,0,0-3.82.46Zm15.84,4.42a14.89,14.89,0,0,1,2.41,3.38l-1.61.85a15.55,15.55,0,0,0-2.41-3.43Zm3.56,2.78a17,17,0,0,0-2.35-3.33l1.54-.8A13.31,13.31,0,0,1,515,19.58Z"/><path class="cls-2" d="M523.85,26.82a6.86,6.86,0,0,1-.18,2,2,2,0,0,1-2.12,1.33,7.17,7.17,0,0,1-4.35-1.63,3.38,3.38,0,0,1-1.26-2.6,4.91,4.91,0,0,1,2-3.4,12.28,12.28,0,0,1,3.36-2l0-3.54-.94,0c-.35,0-.67,0-1.24,0l-1.26,0c-.3,0-.51,0-.58,0a4.41,4.41,0,0,0-.48,0l0-2.58a14.14,14.14,0,0,0,2.78.21c.23,0,.48,0,.8,0l.92,0V13.1a15.72,15.72,0,0,0-.14-2.64H524a14.08,14.08,0,0,0-.14,2.51v1.47a25.64,25.64,0,0,0,4.44-.87l.09,2.58-2.44.41c-.76.14-1.22.21-2.09.3v3a16,16,0,0,1,4.69-.64c3.84,0,6.58,2.35,6.58,5.61A5.11,5.11,0,0,1,529.88,30a3.71,3.71,0,0,1-3.77-2.55,7.68,7.68,0,0,1-.39-2.94,9.67,9.67,0,0,0,2.55-1,8,8,0,0,0,0,1,4.42,4.42,0,0,0,.32,2,1.59,1.59,0,0,0,1.45.78,2.36,2.36,0,0,0,2.32-2.55c0-2-1.61-3.26-4.07-3.26a14.72,14.72,0,0,0-4.42.76Zm-2.6-3.7c-1.72.92-2.74,1.93-2.74,2.76,0,.39.23.74.76,1.06a2.76,2.76,0,0,0,1.47.51c.39,0,.51-.21.51-1ZM534,18.48a19.63,19.63,0,0,0-4.6-5l2.16-1.45a19.53,19.53,0,0,1,4.55,4.71Z"/><path class="cls-2" d="M543.91,14.82a14.86,14.86,0,0,0,.62-1.79H541.2c0,6.94-.14,10-.53,12.62A16.48,16.48,0,0,1,539.13,31l-.9-1.15a7.51,7.51,0,0,0-.9-1,13.54,13.54,0,0,0,1.08-4.12,90.62,90.62,0,0,0,.48-10.23c0-2.12,0-3-.09-3.86a18.77,18.77,0,0,0,2.46.12h5a18.06,18.06,0,0,0,2.6-.14v2.44a15.83,15.83,0,0,0-2-.09,13.86,13.86,0,0,1-.62,1.79H547c.74,0,1.24,0,1.75-.07a17.26,17.26,0,0,0-.07,1.72v5a15.66,15.66,0,0,0,.07,1.75c-.46,0-.94,0-1.52,0h-.78V29c0,1-.16,1.4-.62,1.68a4.61,4.61,0,0,1-2.16.32h-.41a6.59,6.59,0,0,0-.41-2.3,3.63,3.63,0,0,1,.58.07,1.91,1.91,0,0,0,.3,0c.58,0,.64,0,.64-.34V23.21h-.74c-.55,0-1.1,0-1.63,0,0-.51.07-1,.07-1.72v-5.2c0-.6,0-1.08-.07-1.59.58,0,1,.07,1.82.07Zm-.25,9.61a20.9,20.9,0,0,1-.71,3.33,13.34,13.34,0,0,1-.9,2.6,8.3,8.3,0,0,0-1.86-.94,15.35,15.35,0,0,0,1.66-5.52Zm.41-6.37h2.53V16.8h-2.53Zm0,3.17h2.53V19.93h-2.53Zm4.44,2.69a25.26,25.26,0,0,1,.83,3.73l-1.84.74a19.33,19.33,0,0,0-.69-4Zm2.85,2.94c-.76,0-1.26,0-1.82.07,0-.74.07-1.43.07-2.12v-8c0-.87,0-1.68-.07-2.16.55,0,.85,0,2,0h.58c.3-.69.48-1.13.67-1.66h-1.29a14.28,14.28,0,0,0-2.12.12V10.68a12.92,12.92,0,0,0,2.44.14h4.81a13.06,13.06,0,0,0,2.46-.14v2.46a17,17,0,0,0-2.46-.12H555.2a16.77,16.77,0,0,1-.69,1.66h1.54c1.24,0,1.68,0,2.23-.07,0,.6-.07,1.26-.07,2.14v7.82c0,.9,0,1.7.07,2.37-.58,0-1.31-.07-2-.07h-.74a11.91,11.91,0,0,0,3.79,2.53,11.51,11.51,0,0,0-1.52,2,16,16,0,0,1-4-3.29l1.52-1.29h-3.66l1.56,1.29a13,13,0,0,1-4.51,3.33,7.92,7.92,0,0,0-1.56-1.91,10.32,10.32,0,0,0,4.3-2.71Zm.48-8.67H556V16.91h-4.12Zm0,3.2H556V20.11h-4.12Zm0,3.27H556V23.31h-4.12Z"/><path class="cls-2" d="M565,12.43a26.87,26.87,0,0,0-.18,3.5,43,43,0,0,0,.44,6.16c.39,2.39,1.13,3.86,1.86,3.86.34,0,.67-.35.94-1a17,17,0,0,0,1.22-4.16,11.35,11.35,0,0,0,2.3,2.09c-1.2,4.48-2.53,6.35-4.48,6.35-1.54,0-2.78-1.13-3.7-3.33s-1.36-5.63-1.45-12a11.18,11.18,0,0,0-.09-1.47Zm10.88,1A22.92,22.92,0,0,1,581,25.84l-2.85,1.08a23.3,23.3,0,0,0-1.47-6.65,20,20,0,0,0-3.26-5.66Z"/><path class="cls-2" d="M588.35,11a21.07,21.07,0,0,0-.28,3.1c-.09,2.14-.23,6.81-.23,8.44,0,2.18.14,3,.6,3.7a3.64,3.64,0,0,0,3.08,1.2,5.92,5.92,0,0,0,5.56-3.93,15.42,15.42,0,0,0,1.06-3.86,9.93,9.93,0,0,0,2.78,1.77c-.92,3.1-1.61,4.6-2.74,5.86a8.7,8.7,0,0,1-6.9,2.92,7.5,7.5,0,0,1-4-1c-1.59-1.06-2.25-2.83-2.25-5.91,0-1.2,0-3.5.18-9.27,0-.69,0-1.17,0-1.5a11.54,11.54,0,0,0-.09-1.56Z"/><path class="cls-2" d="M603.14,13.35l.87,0c.41,0,.41,0,3.79-.23,1.29-.07,5.11-.28,11.47-.58a13,13,0,0,0,2.64-.23l.16,2.94a3.5,3.5,0,0,0-.48,0A10.28,10.28,0,0,0,617,16.5c-2.92,1.52-4.64,3.82-4.64,6.14a3.86,3.86,0,0,0,3.06,3.75,14,14,0,0,0,3.43.6s.23,0,.46,0l-.41,3.13a4.84,4.84,0,0,0-.78-.14,13.85,13.85,0,0,1-5.38-1.52,6.15,6.15,0,0,1-3.29-5.54,8.11,8.11,0,0,1,2.18-5.43,10.13,10.13,0,0,1,3.2-2.3c-1.86.28-2.76.34-7.75.71a33.5,33.5,0,0,0-3.82.46Z"/><path class="cls-2" d="M632.28,26.82a6.86,6.86,0,0,1-.18,2A2,2,0,0,1,630,30.11a7.17,7.17,0,0,1-4.35-1.63,3.38,3.38,0,0,1-1.26-2.6,4.91,4.91,0,0,1,2-3.4,12.3,12.3,0,0,1,3.36-2l0-3.54-.94,0c-.34,0-.67,0-1.24,0l-1.26,0c-.3,0-.51,0-.58,0a4.42,4.42,0,0,0-.48,0l0-2.58a14.12,14.12,0,0,0,2.78.21c.23,0,.48,0,.8,0l.92,0V13.1a15.74,15.74,0,0,0-.14-2.64h2.87a14.1,14.1,0,0,0-.14,2.51v1.47a25.6,25.6,0,0,0,4.44-.87l.09,2.58-2.44.41c-.76.14-1.22.21-2.09.3v3a15.94,15.94,0,0,1,4.69-.64c3.84,0,6.58,2.35,6.58,5.61A5.11,5.11,0,0,1,638.3,30a3.71,3.71,0,0,1-3.77-2.55,7.68,7.68,0,0,1-.39-2.94,9.65,9.65,0,0,0,2.55-1,8,8,0,0,0,0,1,4.42,4.42,0,0,0,.32,2,1.59,1.59,0,0,0,1.45.78,2.36,2.36,0,0,0,2.32-2.55c0-2-1.61-3.26-4.07-3.26a14.72,14.72,0,0,0-4.42.76Zm-2.6-3.7c-1.72.92-2.74,1.93-2.74,2.76,0,.39.23.74.76,1.06a2.76,2.76,0,0,0,1.47.51c.39,0,.51-.21.51-1Zm12.74-4.64a19.64,19.64,0,0,0-4.6-5L640,12.06a19.53,19.53,0,0,1,4.55,4.71Z"/><path class="cls-2" d="M652,10.54a22.65,22.65,0,0,0-.83,4.44c-.16,1-.25,1.75-.3,2.3H651a5,5,0,0,0,.14-.51A9.3,9.3,0,0,1,652.54,14a5.49,5.49,0,0,1,4.37-2.34,4.81,4.81,0,0,1,3.93,2.07,9.63,9.63,0,0,1,1.66,6.12c0,4.44-2.07,7.75-5.93,9.45a19.57,19.57,0,0,1-4.51,1.29,8.79,8.79,0,0,0-1.36-2.71,13.43,13.43,0,0,0,5-1.31c2.67-1.36,3.89-3.54,3.89-7,0-3.31-1.1-5.15-3.08-5.15a3.42,3.42,0,0,0-2.48,1.22,11,11,0,0,0-2.9,7.43v.48l-2.76,0a1.75,1.75,0,0,0,0-.3v-.44c0-.67-.07-2.37-.07-2.83,0-1.86.14-4.42.32-6l.34-2.85a5.43,5.43,0,0,0,.07-.78Z"/><path class="cls-2" d="M683.36,29.58a15.5,15.5,0,0,0-4.25-3.15,10.4,10.4,0,0,0-1.24-.58v.25a3.59,3.59,0,0,1-1.29,3.1,6.12,6.12,0,0,1-3.79,1c-3.36,0-5.29-1.31-5.29-3.59,0-2.51,2.28-4,6.14-4a12,12,0,0,1,1.54.09,4.34,4.34,0,0,0,0-.55v-.51c0-.32,0-.32,0-1.24l-2.3,0c-1.4,0-2.25,0-4.16-.16-.3,0-.53,0-.87,0l0-2.48a29.69,29.69,0,0,0,5.36.39c.46,0,1.24,0,1.89,0,0-.21,0-1,0-2.3-.74,0-1.1,0-1.45,0-1.13,0-4.09-.12-5.63-.23-.25,0-.44,0-.51,0h-.37l0-2.55a30.24,30.24,0,0,0,6.19.48l1.72,0a16.46,16.46,0,0,0-.12-2.9h2.92a14.19,14.19,0,0,0-.16,2.81,31.17,31.17,0,0,0,6.62-.87l.12,2.55a14.56,14.56,0,0,0-1.82.21c-2,.28-2.92.35-4.94.46,0,.58,0,.85,0,2.28,1.15-.07,1.15-.07,3.27-.3a17,17,0,0,0,2.85-.51l.07,2.53c-.39,0-1,.09-1.49.16-.34,0-1.38.16-3.1.32l-1.56.09c.07,2.23.07,2.23.09,2.78a20.6,20.6,0,0,1,6.3,3.24c.39.25.51.35.83.53Zm-10-4.67c-1.86,0-3,.6-3,1.59s1,1.38,2.62,1.38a2.39,2.39,0,0,0,2-.74,2.91,2.91,0,0,0,.28-1.47v-.55A8.06,8.06,0,0,0,673.31,24.92Z"/><path class="cls-2" d="M700.45,19.08c0,.09,0,.28,0,.55a7,7,0,0,1,.74,3.24,7.38,7.38,0,0,1-3.43,6.21A16.08,16.08,0,0,1,693.62,31a7.56,7.56,0,0,0-1.63-2.6A10.84,10.84,0,0,0,695.9,27a4.84,4.84,0,0,0,2.67-3.36,3.79,3.79,0,0,1-3.38,1.63,4.24,4.24,0,0,1-2.67-.83,3.59,3.59,0,0,1-1.59-3.1c0-2.44,1.91-4.19,4.58-4.19a3.84,3.84,0,0,1,2.39.69,1,1,0,0,1,0-.28s0-1.33,0-2c-3.29.09-5.45.16-6.46.23-3.47.25-3.47.25-4.09.34l-.09-2.74a10,10,0,0,0,1.13,0c.58,0,.94,0,3.91-.11l3.61-.09,2-.07a12.43,12.43,0,0,0-.14-2.78l2.9,0a18.15,18.15,0,0,0-.12,2.74c4,0,5.79-.07,6.65-.16l0,2.64c-.85-.07-2-.12-3.86-.12-.55,0-1,0-2.78,0V17.1Zm-4.69.23a2,2,0,0,0-2.14,1.84,1.82,1.82,0,0,0,2,1.82,2.1,2.1,0,0,0,2.25-2.07C697.83,19.93,697,19.31,695.76,19.31Z"/><path class="cls-2" d="M716.6,27.24a3.89,3.89,0,1,1-3.89-3.89A3.9,3.9,0,0,1,716.6,27.24Zm-6,0a2.09,2.09,0,1,0,2.09-2.09A2.11,2.11,0,0,0,710.62,27.24Z"/><path class="cls-2" d="M103.9,40.49a6.29,6.29,0,0,0-1.09.07v-.87a5.3,5.3,0,0,0,1.12.08h1.91a5,5,0,0,0,1.08-.08v.86a8,8,0,0,0-1-.05h-.58v3.06h.56a4.21,4.21,0,0,0,.86-.07v.83a6.19,6.19,0,0,0-.86-.05h-.56v3.12a18,18,0,0,0,1.68-.82v.82a24.34,24.34,0,0,1-3.33,1.52c-.29.1-.52.21-.7.29l-.27-.91a10.11,10.11,0,0,0,1.81-.56V44.26h-.61a4.58,4.58,0,0,0-.87.06v-.84a4.39,4.39,0,0,0,.88.07h.6V40.49Zm4.79,6.1c-.55,0-.9,0-1.26,0,0-.34,0-.71,0-1.31V40.69a11.42,11.42,0,0,0-.05-1.33,10,10,0,0,0,1.27.05h3.63a9.77,9.77,0,0,0,1.23-.05,11.28,11.28,0,0,0-.05,1.33v4.59a11.91,11.91,0,0,0,.05,1.35,10.7,10.7,0,0,0-1.26-.05h-.52v3c0,.25.08.27.95.27.65,0,.85-.05.92-.22A5.74,5.74,0,0,0,113.8,48a3.06,3.06,0,0,0,.78.35c-.17,2.11-.26,2.21-2,2.21-1.39,0-1.65-.13-1.65-.82V46.58h-1.18a4.57,4.57,0,0,1-.75,2.29,5.35,5.35,0,0,1-2.91,2,2.6,2.6,0,0,0-.57-.73,4.82,4.82,0,0,0,2.57-1.44,3.32,3.32,0,0,0,.86-2.14Zm-.44-5h4.47V40.16h-4.47Zm0,2.12h4.47v-1.4h-4.47Zm0,2.21h4.47v-1.5h-4.47Z"/><path class="cls-2" d="M125.9,40.82a9,9,0,0,0,1.42-.08v.91a12.79,12.79,0,0,0-1.42-.06h-5.59a18.75,18.75,0,0,1-1.77,2.81v5a9.16,9.16,0,0,0,.08,1.34h-1a8.47,8.47,0,0,0,.08-1.34v-4a11.71,11.71,0,0,1-1.47,1.43,2.32,2.32,0,0,0-.62-.66,12.14,12.14,0,0,0,2.09-2,5.94,5.94,0,0,0-.06-.83h.71a12.58,12.58,0,0,0,1.08-1.77h-2.05a12.7,12.7,0,0,0-1.43.06v-.91a9.11,9.11,0,0,0,1.43.08h2.42a8,8,0,0,0,.65-1.95l1,.19a3.87,3.87,0,0,0-.23.56c-.13.3-.4,1-.51,1.2Zm-.46,4.1a7,7,0,0,0,1.24-.08v.87a10.67,10.67,0,0,0-1.24-.05h-2v3.68H126a7.88,7.88,0,0,0,1.29-.06v.9a11.48,11.48,0,0,0-1.3-.08h-5.64a9.33,9.33,0,0,0-1.3.08v-.9a12.62,12.62,0,0,0,1.3.06h2.21V45.66H120.8a10.77,10.77,0,0,0-1.25.05v-.87a7.1,7.1,0,0,0,1.25.08h1.74V43.81a8.14,8.14,0,0,0-.08-1.38h1a8,8,0,0,0-.08,1.39v1.09Z"/><path class="cls-2" d="M131.91,43.91c-.05.14-.05.16-.22.77a11.68,11.68,0,0,1-2.27,4.5,2.63,2.63,0,0,0-.86-.56,6.28,6.28,0,0,0,1.24-1.69,9.67,9.67,0,0,0,1.13-3.28Zm1.82-3.18a6.68,6.68,0,0,0-.08-1.33h1.07a8.1,8.1,0,0,0-.06,1.35v.85h3.28a9.52,9.52,0,0,0,1.52-.08v1a11.59,11.59,0,0,0-1.5-.07h-3.3v6.47a8.79,8.79,0,0,0,.06,1.38h-1.07a7.14,7.14,0,0,0,.08-1.37V42.44h-3.18a11.59,11.59,0,0,0-1.5.07v-1a9.43,9.43,0,0,0,1.51.08h3.17Zm3.65,2.94a8.58,8.58,0,0,0,.48,1.46,11.06,11.06,0,0,0,2,3.48,3.08,3.08,0,0,0-.82.61A12.58,12.58,0,0,1,137.71,47a21.33,21.33,0,0,1-.91-2.24,8.05,8.05,0,0,0-.32-.85Z"/><path class="cls-2" d="M141.5,44.27a9.15,9.15,0,0,0,1.61.08h7.55a10.34,10.34,0,0,0,1.57-.06v1.05a14.89,14.89,0,0,0-1.59-.05h-7.54a14.21,14.21,0,0,0-1.61.05Z"/><path class="cls-2" d="M159.48,39.73a5.12,5.12,0,0,0-.35.94,70.61,70.61,0,0,1-2.7,7.6c1.73-.12,4.78-.52,6.32-.82a25.13,25.13,0,0,0-2-3.37l.81-.44a33.67,33.67,0,0,1,3.24,5.88l-.91.49a18.09,18.09,0,0,0-.77-1.75,80.34,80.34,0,0,1-8,1.08,9.13,9.13,0,0,0-1.11.14l-.13-1.08h.36l1.1-.07a49.37,49.37,0,0,0,2-5.15,24.59,24.59,0,0,0,1-3.74Z"/><path class="cls-2" d="M165.8,45.87a14.85,14.85,0,0,0,2.65-3c.73-1,1.07-1.24,1.65-1.24s.74.16,1.68,1.2a33.76,33.76,0,0,0,5.53,5l-.49,1.07a2.82,2.82,0,0,1-.25-.22l-.91-.78a49.74,49.74,0,0,1-4.41-4.3c-.86-.91-.91-1-1.17-1s-.33.06-.9.83-1.81,2.27-2.33,2.86c-.2.23-.23.27-.39.48Zm10.89-4.17a1.48,1.48,0,1,1-1.47-1.47A1.46,1.46,0,0,1,176.69,41.7Zm-2.41,0a.93.93,0,1,0,.94-.92A.93.93,0,0,0,174.29,41.7Z"/><path class="cls-2" d="M178.9,44.27a9.15,9.15,0,0,0,1.61.08h7.55a10.3,10.3,0,0,0,1.57-.06v1.05a14.87,14.87,0,0,0-1.59-.05h-7.54a14.22,14.22,0,0,0-1.61.05Z"/><path class="cls-2" d="M192.38,43a20.87,20.87,0,0,1,3.3,1.69l-.51.88a14.33,14.33,0,0,0-3.32-1.78ZM192,48.9h.08a11.81,11.81,0,0,0,3.42-.81A9.29,9.29,0,0,0,201,42.27a4,4,0,0,0,.81.7c-1.64,3.94-4.32,6-9,6.86a3.79,3.79,0,0,0-.51.13Zm1.35-9a20.23,20.23,0,0,1,3.22,1.64l-.53.87a14,14,0,0,0-3.2-1.73Zm6.81-.6a10.36,10.36,0,0,1,1.33,2l-.65.39a10.53,10.53,0,0,0-1.33-2.07Zm1.46-.7a9.92,9.92,0,0,1,1.35,2l-.65.38a10,10,0,0,0-1.34-2Z"/><path class="cls-2" d="M206.11,39.86a5.31,5.31,0,0,0,.25.79c.26.77.39,1.13.57,1.72a23.14,23.14,0,0,1,2.79-.73,18,18,0,0,0-.05-2.3h1a12.34,12.34,0,0,0-.06,1.75s0,.26,0,.42a6.59,6.59,0,0,1,1-.08c1.74,0,2.86.94,2.86,2.39a2.78,2.78,0,0,1-3.05,2.68,5.5,5.5,0,0,1-2.2-.48,1.77,1.77,0,0,0,0-.23,5.91,5.91,0,0,0-.08-.74,4.42,4.42,0,0,0,2.18.6,2.64,2.64,0,0,0,1.56-.51,1.57,1.57,0,0,0,.62-1.33c0-1-.77-1.57-2.08-1.57a15.33,15.33,0,0,0-4.24.92c.66,2.21,1.13,4,1.68,6.49a4,4,0,0,0,.17.56l-1.05.23a46.27,46.27,0,0,0-1.64-7,5.69,5.69,0,0,1-.7.23,12.42,12.42,0,0,0-1.78.72l-.34-.92a14.3,14.3,0,0,0,1.91-.61c.32-.12.46-.14.66-.21a13,13,0,0,0-.94-2.47Z"/><path class="cls-2" d="M224.51,40.11a3.65,3.65,0,0,0-.4.79,21.34,21.34,0,0,1-1.91,3.8,33.49,33.49,0,0,1,3,2.79l-.73.81a18.69,18.69,0,0,0-2.83-2.82A15.52,15.52,0,0,1,216.39,50a2.33,2.33,0,0,0-.68-.78,13.84,13.84,0,0,0,5.17-4.34,24.65,24.65,0,0,0-3.5-2.35l.65-.69a37.19,37.19,0,0,1,3.38,2.26,17.82,17.82,0,0,0,1.53-3,5.7,5.7,0,0,0,.46-1.38Z"/><path class="cls-2" d="M227.43,44.27a9.15,9.15,0,0,0,1.61.08h7.55a10.3,10.3,0,0,0,1.57-.06v1.05a14.87,14.87,0,0,0-1.59-.05H229a14.22,14.22,0,0,0-1.61.05Z"/><path class="cls-2" d="M243.5,40a6.54,6.54,0,0,0-.08,1.12c-.1,3.52-.21,4.49-.7,5.8a7.94,7.94,0,0,1-2.25,3.21,2.4,2.4,0,0,0-.78-.7,6.43,6.43,0,0,0,2.2-3,17.73,17.73,0,0,0,.58-5.58,5.78,5.78,0,0,0-.05-.92Zm3.22-.14a5,5,0,0,0-.08,1.14l-.08,7.85A6,6,0,0,0,249,47.3a6.44,6.44,0,0,0,1.53-2.6,3.64,3.64,0,0,0,.73.75,7.37,7.37,0,0,1-2.61,3.34,8.59,8.59,0,0,1-1.86.95l-.42.16-.3.14-.52-.6a2.19,2.19,0,0,0,.09-.88l.08-7.6a5.24,5.24,0,0,0-.05-1.16Z"/><path class="cls-2" d="M252.38,42.61c.47,0,1.82-.17,2.87-.34a15.91,15.91,0,0,0,.39-2.76v-.17l1,.12a7.93,7.93,0,0,0-.25,1.25c-.07.38-.16.86-.27,1.48.3,0,.47,0,.77,0a2.49,2.49,0,0,1,1.87.55,2.63,2.63,0,0,1,.64,2.09,9,9,0,0,1-.87,4.47,1.36,1.36,0,0,1-1.27.61,4.9,4.9,0,0,1-2-.51,2.9,2.9,0,0,0,0-.46,2.52,2.52,0,0,0,0-.52,4.87,4.87,0,0,0,1.94.6q.49,0,.74-.62a10.07,10.07,0,0,0,.55-3.61c0-1.38-.39-1.82-1.6-1.82A7.34,7.34,0,0,0,256,43a24.51,24.51,0,0,1-2,5.51c-.17.31-.44.83-.85,1.56l-.88-.52a12.46,12.46,0,0,0,1.35-2.35,21.43,21.43,0,0,0,1.43-4.12c-1.12.17-1.74.27-1.86.3a7.46,7.46,0,0,0-.75.17Zm8.54-1.2a11.75,11.75,0,0,1,2.72,4.6l-.83.48a10.64,10.64,0,0,0-2.65-4.67Z"/><path class="cls-2" d="M267.12,41.84a10.86,10.86,0,0,0-.3,1.43c-.31,1.88-.34,2-.38,2.28a1.51,1.51,0,0,1-.05.3h0a3.63,3.63,0,0,1,.4-.39,6.43,6.43,0,0,1,3.76-1.12c2.12,0,3.48,1,3.48,2.51a2.78,2.78,0,0,1-1.17,2.24,5.4,5.4,0,0,1-3.24.86,10.79,10.79,0,0,1-2.28-.23l-1-.26a2.1,2.1,0,0,0,0-.25,3,3,0,0,0-.09-.81,9.25,9.25,0,0,0,3.31.65c2.15,0,3.51-.86,3.51-2.18,0-1.07-.94-1.69-2.52-1.69a6.3,6.3,0,0,0-3.64,1.13,2.28,2.28,0,0,0-.52.53l-1,0c0-.23.05-.35.1-.77.13-1,.36-2.5.55-3.59a4.29,4.29,0,0,0,.09-.69Zm.57-2.26A15.65,15.65,0,0,0,272.1,41l-.36.91a19.91,19.91,0,0,1-2.54-.74,14.44,14.44,0,0,1-2-.82Z"/><path class="cls-2" d="M280.65,46.34c-.75,1.72-1.52,2.5-2.46,2.5-1.24,0-2.16-1.35-2.16-3.17a5.28,5.28,0,0,1,5.56-5.32,5,5,0,0,1,3.58,1.29,4.35,4.35,0,0,1,1.26,3.17,4.73,4.73,0,0,1-3,4.49,10,10,0,0,1-2,.6A2.07,2.07,0,0,0,281,49a7.79,7.79,0,0,0,2.17-.61,3.92,3.92,0,0,0,2.3-3.64,3.43,3.43,0,0,0-2.07-3.26,3.74,3.74,0,0,0-1.51-.33A19.47,19.47,0,0,1,280.65,46.34Zm-1.6-4.54a4.5,4.5,0,0,0-2.12,3.87c0,1.25.55,2.21,1.25,2.21.55,0,1.07-.61,1.63-1.88A17.86,17.86,0,0,0,281,41.19,4.11,4.11,0,0,0,279.05,41.8Z"/><path class="cls-2" d="M288.52,42.31A12.08,12.08,0,0,1,290.78,44l-.49.73A9.51,9.51,0,0,0,288,42.92Zm2.4,4.19a23.08,23.08,0,0,1-1.75,3.59l-.34.57-.75-.68a13,13,0,0,0,2.16-4Zm-1.71-7.28A12.43,12.43,0,0,1,291.39,41l-.53.69a9.18,9.18,0,0,0-2.18-1.87Zm3.63,3.43a11,11,0,0,0-1.37.07v-.9a9.69,9.69,0,0,0,1.37.08H298a9.12,9.12,0,0,0,1.35-.08v.9a13.42,13.42,0,0,0-1.35-.07h-2.34v2.72h2a9.31,9.31,0,0,0,1.34-.08v.88c-.38,0-.86-.07-1.34-.07h-2v3.29h2.6a9.93,9.93,0,0,0,1.43-.08v.91c-.38,0-.9-.06-1.43-.06h-5.9c-.56,0-1,0-1.43.06v-.91a10,10,0,0,0,1.42.08h2.47V46.1h-1.6c-.48,0-1,0-1.35.07v-.88a9.31,9.31,0,0,0,1.34.08h1.61V42.64ZM294,39a15.78,15.78,0,0,1,2.72,1.72l-.56.69a11.12,11.12,0,0,0-2.7-1.79Z"/><path class="cls-2" d="M310.14,42a12,12,0,0,1-.79,2.13,10.85,10.85,0,0,1-1.91,2.78,11.49,11.49,0,0,0,2.35,1.68,12.11,12.11,0,0,0,3,1.18,2.49,2.49,0,0,0-.57.86,13.52,13.52,0,0,1-5.4-3.12,14,14,0,0,1-5.45,3.11,2.52,2.52,0,0,0-.54-.81,12.79,12.79,0,0,0,5.39-2.89,11.42,11.42,0,0,1-1.57-2.13A11.54,11.54,0,0,1,303.46,42h-1a10.27,10.27,0,0,0-1.44.08v-.92a9.11,9.11,0,0,0,1.46.09h3.73v-1a5.7,5.7,0,0,0-.09-1.12h1a5.54,5.54,0,0,0-.09,1.11v1h4.06a9.14,9.14,0,0,0,1.48-.09V42a9.73,9.73,0,0,0-1.46-.08Zm-5.79,0a9.79,9.79,0,0,0,1.07,2.48,11,11,0,0,0,1.42,1.86A10.11,10.11,0,0,0,309.19,42Z"/><path class="cls-2" d="M316.46,39.76a18.53,18.53,0,0,0-1,6.1c0,.46,0,1.22.05,1.82,0,.1,0,.13,0,.36v.25h.05a11.56,11.56,0,0,1,.77-2.29,1.87,1.87,0,0,0,.1-.26l.64.3A11.21,11.21,0,0,0,316,49.74a1.45,1.45,0,0,0,0,.26l-.92.09c0-.12,0-.18-.08-.48a20.75,20.75,0,0,1-.36-3.86,22,22,0,0,1,.68-5.34,5.93,5.93,0,0,0,.14-.82Zm1.31,2.42a9,9,0,0,0,2.34.21c.51,0,.86,0,1.39,0,0-1.22,0-1.22,0-2.21a2.85,2.85,0,0,0,0-.53h1a13.2,13.2,0,0,0-.09,2c0,.14,0,.35,0,.64a8.83,8.83,0,0,0,2.25-.48l0,.88-.91.18a12.2,12.2,0,0,1-1.38.21c0,1.29,0,2,.14,3.68A9.39,9.39,0,0,1,324.66,48l.32.22-.4.91a7,7,0,0,0-1.85-1.35l-.13-.08-.12-.08a1.85,1.85,0,0,1,0,.34,1.9,1.9,0,0,1-2.33,2c-1.51,0-2.46-.71-2.46-1.85s1-1.85,2.47-1.85a3.67,3.67,0,0,1,1.44.26c0-.27-.09-1.5-.13-3.39-.58,0-1,0-1.48,0s-1,0-1.47,0a3.36,3.36,0,0,0-.42,0h-.4Zm2.5,4.88c-1,0-1.68.43-1.68,1.08s.6,1.05,1.51,1.05a1.79,1.79,0,0,0,1.33-.46,1.51,1.51,0,0,0,.25-1c0-.09,0-.39,0-.39A3.36,3.36,0,0,0,320.27,47.05Z"/><path class="cls-2" d="M335.93,45.3a3.83,3.83,0,0,0-.44.47,11.85,11.85,0,0,1-2.64,2.5A13.65,13.65,0,0,0,338,49.87a4,4,0,0,0-.47.84,13.18,13.18,0,0,1-5.42-2,15.7,15.7,0,0,1-5.29,2,3.23,3.23,0,0,0-.47-.82,14,14,0,0,0,5.06-1.64,8.58,8.58,0,0,1-2.33-2.77,8.93,8.93,0,0,0-1,.08v-.87a8.47,8.47,0,0,0,1.3.08h4.84a6.24,6.24,0,0,0,1.14-.07Zm-6.86-2.76a11.06,11.06,0,0,0-.69-1.74l-1.16,0a2.3,2.3,0,0,0-.3-.77,41.81,41.81,0,0,0,6.08-.38,13.47,13.47,0,0,0,3.41-.75l.57.77a3.87,3.87,0,0,0-.52.12,36.73,36.73,0,0,1-4.45.74,12.86,12.86,0,0,1,.69,2h1.51a11,11,0,0,0,1.09-2.31l.84.3a22.12,22.12,0,0,1-1.05,2h1.11a13.81,13.81,0,0,0,1.48-.05,7.68,7.68,0,0,0-.05,1v.84a3.84,3.84,0,0,0,.07.81h-.88V43.31H327.4v1.88h-.88a6.54,6.54,0,0,0,.07-.92v-.82c0-.34,0-.62-.05-1a12.2,12.2,0,0,0,1.6.07Zm2.83,0a12,12,0,0,0-.69-1.91c-.65.05-1.09.09-2,.13a12.45,12.45,0,0,1,.73,1.78Zm-2,2.92a7.09,7.09,0,0,0,2.17,2.34,10.22,10.22,0,0,0,2.57-2.34Z"/><path class="cls-2" d="M341.69,39.77a22.48,22.48,0,0,0-.79,5.67c0,.71.05,1.68.1,2.12a4.57,4.57,0,0,1,.08.7,14.17,14.17,0,0,1,1.09-2.76l.66.31a24.66,24.66,0,0,0-1,2.28,5.09,5.09,0,0,0-.36,1.65l-.9.08a3.44,3.44,0,0,0-.1-.46,14.79,14.79,0,0,1-.48-3.85,26.68,26.68,0,0,1,.52-5,6.77,6.77,0,0,0,.12-.9ZM343,42.4a10.51,10.51,0,0,0,2.21.17c.52,0,1,0,1.65-.08a25,25,0,0,0-.16-3h1a3.15,3.15,0,0,0,0,.44c0,.09,0,.16,0,.39s0,.3.08,2.11a6.88,6.88,0,0,0,2.07-.55l.07.94a6.36,6.36,0,0,0-.69.16,12.23,12.23,0,0,1-1.42.26c0,.35,0,.56,0,.94,0,2.47-.23,3.54-1,4.58a6.27,6.27,0,0,1-2,1.68,3,3,0,0,0-.7-.7,5.31,5.31,0,0,0,2-1.5c.66-.84.87-1.79.87-3.87,0-.36,0-.65,0-1-.57.05-1.33.08-1.9.08-.36,0-1.11,0-1.57-.05H343Z"/><path class="cls-2" d="M353.91,49.2c0,.6,0,1.09.07,1.55h-1a13.22,13.22,0,0,0,.08-1.57V44.83c0-.57,0-1,.05-1.57a11,11,0,0,1-1.46,2l-.09-.14a2,2,0,0,0-.48-.57,12.86,12.86,0,0,0,2.61-4,7.16,7.16,0,0,0,.57-1.66l.94.3a5.17,5.17,0,0,0-.33.74c-.18.46-.6,1.35-1,2.09Zm7,.16c0,.86-.27,1.07-1.44,1.07-.51,0-1,0-1.57-.08a2.85,2.85,0,0,0-.25-.88,10.62,10.62,0,0,0,1.78.16c.53,0,.65-.07.65-.34V42.85H356a10.11,10.11,0,0,0-1.39.08V42a9.62,9.62,0,0,0,1.35.08h4.12V40.6a9.79,9.79,0,0,0-.09-1.52h1a12.45,12.45,0,0,0-.08,1.52v1.5h.64a8,8,0,0,0,1.23-.08v.88c-.4,0-.82-.05-1.23-.05h-.64ZM356.17,44a16.51,16.51,0,0,1,2.2,2.94l-.73.56a13.28,13.28,0,0,0-2.15-3Z"/><path class="cls-2" d="M366.61,39.77a22.48,22.48,0,0,0-.79,5.67c0,.71.05,1.68.1,2.12a4.57,4.57,0,0,1,.08.7,14.19,14.19,0,0,1,1.09-2.76l.66.31c-.38.77-.7,1.57-1,2.28a5.09,5.09,0,0,0-.36,1.65l-.9.08a3.6,3.6,0,0,0-.1-.46,14.75,14.75,0,0,1-.48-3.85,26.61,26.61,0,0,1,.52-5,6.71,6.71,0,0,0,.12-.9Zm1.33,2.63a10.51,10.51,0,0,0,2.21.17c.52,0,1,0,1.65-.08a24.91,24.91,0,0,0-.16-3h1a3,3,0,0,0,0,.44c0,.09,0,.16,0,.39s0,.3.08,2.11a6.9,6.9,0,0,0,2.07-.55l.06.94a6.41,6.41,0,0,0-.69.16,12.26,12.26,0,0,1-1.42.26c0,.35,0,.56,0,.94,0,2.47-.23,3.54-1,4.58a6.28,6.28,0,0,1-2,1.68,3,3,0,0,0-.7-.7,5.32,5.32,0,0,0,2-1.5c.66-.84.87-1.79.87-3.87,0-.36,0-.65,0-1-.57.05-1.33.08-1.9.08-.36,0-1.11,0-1.57-.05h-.43Z"/><path class="cls-2" d="M376.09,41.21h.47l.74,0c1.55-.12,5.71-.35,7.38-.43a8.64,8.64,0,0,0,1.55-.14l.08,1a6,6,0,0,0-1.46.17,6.59,6.59,0,0,0-2.5,1.31,4,4,0,0,0-1.6,3,2.55,2.55,0,0,0,1.82,2.41,6.65,6.65,0,0,0,2,.42h.13l-.17,1.05-.4-.08a6.57,6.57,0,0,1-2.81-1,3.17,3.17,0,0,1-1.44-2.65,4.93,4.93,0,0,1,2.43-4,8.57,8.57,0,0,1,1.24-.69,25.16,25.16,0,0,1-2.86.29,38.22,38.22,0,0,0-4.48.43Z"/><path class="cls-2" d="M394.27,42.1l-.39.08a22.73,22.73,0,0,1-2.3.39v2.25a9.22,9.22,0,0,1,2.8-.47,4.4,4.4,0,0,1,2.3.55,2.67,2.67,0,0,1-1.31,5,1.92,1.92,0,0,1-2-1.47,4.75,4.75,0,0,1-.16-1.47,2.82,2.82,0,0,0,.86-.34,3.82,3.82,0,0,0,0,.51c0,1.35.39,1.91,1.34,1.91a1.73,1.73,0,0,0,1.74-1.83c0-1.27-1.08-2.07-2.78-2.07a8.79,8.79,0,0,0-2.76.51v3.25c0,.7-.31,1-.95,1a3.43,3.43,0,0,1-2.15-.83,1.57,1.57,0,0,1-.6-1.22,2.35,2.35,0,0,1,1-1.73,6.92,6.92,0,0,1,1.83-1.07V42.62l-.52,0h-.83c-.19,0-.54,0-.69,0h-.53V41.8a7.41,7.41,0,0,0,1.33.09c.35,0,.86,0,1.25,0V40.56a8.54,8.54,0,0,0-.07-1.24h1a7.35,7.35,0,0,0-.07,1.21v1.25a13.17,13.17,0,0,0,2.65-.56Zm-3.52,3.83c-1.29.62-2,1.33-2,2,0,.27.18.53.56.78a2.43,2.43,0,0,0,1.16.38c.26,0,.3-.08.3-.64Zm7.14-2.44a10.66,10.66,0,0,0-2.63-2.55l.68-.51a10.92,10.92,0,0,1,2.63,2.47Z"/><path class="cls-2" d="M402.67,39.37a7.45,7.45,0,0,0-.3,1.34c-.21,1.31-.39,2.73-.43,3.39H402l.09-.38a5.79,5.79,0,0,1,.79-1.94,3.1,3.1,0,0,1,2.6-1.68,2.45,2.45,0,0,1,2.08,1.16,5.34,5.34,0,0,1,.78,3.16,5.36,5.36,0,0,1-3,5.11,9.8,9.8,0,0,1-2.31.77,2.71,2.71,0,0,0-.52-.88,6.87,6.87,0,0,0,2.64-.82,4.48,4.48,0,0,0,2.24-4.32c0-2.09-.73-3.3-2-3.3-1,0-1.82.74-2.56,2.26a6.79,6.79,0,0,0-.7,2.9c0,.05,0,.12,0,.31l-.94,0v-.38l0-1.35v-.3a33,33,0,0,1,.44-4.8,2.57,2.57,0,0,0,0-.42Z"/><path class="cls-2" d="M420.29,49.67a10.47,10.47,0,0,0-2.65-1.86c-.22-.12-.52-.25-.87-.39a3.68,3.68,0,0,1,0,.47,2.26,2.26,0,0,1-.33,1.42,2.62,2.62,0,0,1-2.2.82,3.38,3.38,0,0,1-2-.52,1.7,1.7,0,0,1-.7-1.37c0-.86.68-1.53,1.82-1.79a5.69,5.69,0,0,1,1.35-.13,5.81,5.81,0,0,1,1.17.1s0,0,0-.16a1,1,0,0,1,0-.14c0-.12,0-.39,0-.77,0-.17,0-.42,0-.75l-1.54,0c-.78,0-1.39,0-2.2-.09h-.43v-.86a15.86,15.86,0,0,0,3,.21h1.16l0-1.78h-.88c-.95,0-2,0-3.17-.13h-.42v-.88a16.11,16.11,0,0,0,3.33.26h1.13a10.26,10.26,0,0,0-.07-1.87h1a14.52,14.52,0,0,0-.09,1.83,18.33,18.33,0,0,0,3.85-.53l.06.88c-.22,0-.22,0-.9.1a26.85,26.85,0,0,1-3,.31c0,1.07,0,1.07,0,1.75a15.68,15.68,0,0,0,3.6-.53l.05.9c-.17,0-.3,0-.75.09-.9.14-1.92.25-2.89.31,0,.73,0,.73.08,2a11.38,11.38,0,0,1,3.63,1.9,4.38,4.38,0,0,0,.44.3Zm-4.39-2.46a4.77,4.77,0,0,0-1.33-.14c-1.29,0-2.13.47-2.13,1.16s.65,1.08,1.78,1.08a1.87,1.87,0,0,0,1.43-.43,1.7,1.7,0,0,0,.26-1.17Z"/><path class="cls-2" d="M425.81,39.9a15,15,0,0,0-.12,2.72c2.11-.12,2.63-.14,4.25-.21V42c0-.14,0-.29,0-.44a12.39,12.39,0,0,0-.08-2h1a7,7,0,0,0-.05,1v1.74c1.27,0,2.29-.07,2.72-.12l0,.92c-.35,0-.43,0-1,0h-1.79a12.36,12.36,0,0,1-.23,2.54,1.3,1.3,0,0,1-1.31,1.14,3.73,3.73,0,0,1-1.81-.6c0-.2,0-.26,0-.39s0-.27,0-.53a3.69,3.69,0,0,0,1.7.71c.36,0,.52-.21.64-.84a11.91,11.91,0,0,0,.16-2c-1.57.05-2.51.1-4.24.22v1.17a20,20,0,0,0,.13,3.28,1.12,1.12,0,0,0,.87.84,7.21,7.21,0,0,0,2,.22,11.79,11.79,0,0,0,3.61-.48l.1,1-.52.06a22,22,0,0,1-3.29.27c-2.31,0-3.3-.44-3.64-1.61a13.72,13.72,0,0,1-.17-3.08V43.48a26,26,0,0,0-2.61.27l-.08-.91h.29c.23,0,1-.05,2.41-.17v-.84a13.92,13.92,0,0,0-.06-1.94Z"/><path class="cls-2" d="M439.49,39.67c-.17.31-.17.31-1.44,3.57a21.81,21.81,0,0,1-.94,2.15l-.14.29a1.8,1.8,0,0,0-.12.23l.06,0c.86-1.23,1.52-1.7,2.44-1.7a1.44,1.44,0,0,1,1.3.77,3.27,3.27,0,0,1,.22,1.47v.88a2.21,2.21,0,0,0,.21,1.24,1.21,1.21,0,0,0,1,.4,2.25,2.25,0,0,0,2.08-1.62,5.72,5.72,0,0,0,.49-1.85,3.69,3.69,0,0,0,.86.66,7,7,0,0,1-.92,2.29A3,3,0,0,1,442,49.89a1.83,1.83,0,0,1-1.9-1.17,5.35,5.35,0,0,1-.12-1.4v-.74a2.8,2.8,0,0,0-.1-1,.7.7,0,0,0-.74-.48c-.75,0-1.6.69-2.33,1.92a13.3,13.3,0,0,0-1.2,3l-1-.31c.17-.36.17-.36,2-5.36,1.42-3.76,1.7-4.58,1.78-5Z"/><path class="cls-2" d="M450.64,48.69a2,2,0,1,1-2-1.95A1.95,1.95,0,0,1,450.64,48.69Zm-3.16,0a1.21,1.21,0,1,0,1.21-1.21A1.21,1.21,0,0,0,447.48,48.69Z"/><path class="cls-2" d="M455.92,45.19c-.84.7-1.24,1.3-1.24,1.91s.38,1,1.11,1.27a8.28,8.28,0,0,0,2.38.26,12.31,12.31,0,0,0,3.9-.49l.12,1.07a4,4,0,0,0-.44.07,21.28,21.28,0,0,1-3.51.3,9.17,9.17,0,0,1-3-.4,2.07,2.07,0,0,1-1.48-2,3.42,3.42,0,0,1,1.5-2.51Zm-1.37-4.75a14.82,14.82,0,0,0,3.46.31,14.17,14.17,0,0,0,3.29-.27l.07.86a19.87,19.87,0,0,0-3.28,2l-.66-.53a20.25,20.25,0,0,1,2.3-1.38,10.21,10.21,0,0,1-2,.17,25.35,25.35,0,0,1-2.86-.17l-.43,0ZM461,42.7a10.37,10.37,0,0,1,1.33,2l-.65.39A10.1,10.1,0,0,0,460.39,43Zm1.42-.77a10,10,0,0,1,1.35,2l-.65.36a11,11,0,0,0-1.33-2Z"/><path class="cls-2" d="M466.27,40.67a12,12,0,0,0-1.42.08V39.8a10.73,10.73,0,0,0,1.4.08h8.65a10.13,10.13,0,0,0,1.42-.08v.95a11.17,11.17,0,0,0-1.4-.08h-3.26a11.06,11.06,0,0,1-.83,1.46v7.2a9.38,9.38,0,0,0,.09,1.4h-1.07a11.77,11.77,0,0,0,.09-1.4V44.69c0-.52,0-1,0-1.48a13.19,13.19,0,0,1-2,2.11,18,18,0,0,1-2.81,2,2.94,2.94,0,0,0-.6-.77,15.51,15.51,0,0,0,4-3,10.43,10.43,0,0,0,2.07-2.89Zm5.85,2.14a12.3,12.3,0,0,0,2,2,12.58,12.58,0,0,0,2.6,1.61,3,3,0,0,0-.6.81,14.56,14.56,0,0,1-4.64-3.9Z"/><path class="cls-2" d="M479.81,49.29a12.88,12.88,0,0,0,.07,1.52h-.95a12.79,12.79,0,0,0,.08-1.6v-4.3c0-.74,0-1,.05-1.6a9.68,9.68,0,0,1-1.17,1.9,2.43,2.43,0,0,0-.53-.7,11.42,11.42,0,0,0,2.17-3.78,7.78,7.78,0,0,0,.51-1.86l.87.26a5.89,5.89,0,0,0-.25.73,16.83,16.83,0,0,1-.85,2.2Zm2.46-8.83a7.79,7.79,0,0,0-1.2.06v-.87a8.78,8.78,0,0,0,1.27.08h5.79a9.07,9.07,0,0,0,1.3-.08v.87a9.85,9.85,0,0,0-1.22-.06h-2.87v1.31h2.22a7.07,7.07,0,0,0,1.14-.06,11.26,11.26,0,0,0-.05,1.33v2.12a11,11,0,0,0,.05,1.33,6.35,6.35,0,0,0-1.07-.06h-2.59a4.1,4.1,0,0,1-.73,1.83,8.1,8.1,0,0,0,2.52,1,11.26,11.26,0,0,0,2.76.33,3,3,0,0,0-.35.87,11.28,11.28,0,0,1-5.45-1.59,7.15,7.15,0,0,1-3,1.72,2.82,2.82,0,0,0-.43-.74,6.22,6.22,0,0,0,2.79-1.39c-.22-.17-.34-.26-.56-.46l-.39-.35-.42-.36.7-.47a4.44,4.44,0,0,0,1.21,1,3.7,3.7,0,0,0,.58-1.42h-2.05a5.46,5.46,0,0,0-.95.06,11,11,0,0,0,.05-1.25V43a11.29,11.29,0,0,0-.05-1.26,9.45,9.45,0,0,0,1.18.06h2.09V40.46Zm-.17,2v1.25h2.43c0-.26,0-.68,0-1.25Zm0,1.92v1.38h2.3c.05-.45.08-.75.1-1.38Zm3.18,0c0,.68-.07.88-.12,1.38h2.72V44.36Zm.05-1.92,0,1.25h2.57V42.44Z"/><path class="cls-2" d="M494.32,41a5.53,5.53,0,0,0,.62-1.78l1,.18a2.74,2.74,0,0,0-.34.7c-.17.42-.34.77-.4.88h.27a18.24,18.24,0,0,0,4.09-.49l.08.88a4.18,4.18,0,0,0-.52.07,42,42,0,0,1-4.29.34,9.58,9.58,0,0,1-1.17,1.85c-.13.16-.39.46-.44.49l-.17.13s0,0,0,0h0l0,0,.6-.46a3.46,3.46,0,0,1,2-.64,1.58,1.58,0,0,1,1.71,1.44c.95-.38,1.69-.65,2.26-.86a2.84,2.84,0,0,0,.88-.38l.42.91a21.52,21.52,0,0,0-3.47,1.14c0,.34,0,.47,0,.79,0,.17,0,.46,0,.71s0,.47,0,.59a2.9,2.9,0,0,0,0,.47h-.88a18.67,18.67,0,0,0,.08-1.87,3.48,3.48,0,0,0,0-.39c-1.77.83-2.44,1.44-2.44,2.22s.81,1.24,2.64,1.24a10.9,10.9,0,0,0,3.47-.51l.12,1a5,5,0,0,0-.52.06,20.16,20.16,0,0,1-3.16.26c-2.33,0-3.46-.66-3.46-2a2.69,2.69,0,0,1,1.33-2.05,10.08,10.08,0,0,1,1.94-1c-.1-.71-.42-1-1-1a4.89,4.89,0,0,0-2.9,1.38,4.32,4.32,0,0,0-1,1.08l-.73-.73A13,13,0,0,0,493.86,42l.12-.19-.25,0-1.91,0h-.49v-.9a18.19,18.19,0,0,0,2.78.14Z"/><path class="cls-2" d="M509.12,42.1l-.39.08a22.68,22.68,0,0,1-2.3.39v2.25a9.21,9.21,0,0,1,2.79-.47,4.4,4.4,0,0,1,2.3.55,2.67,2.67,0,0,1-1.31,5,1.92,1.92,0,0,1-2-1.47,4.75,4.75,0,0,1-.16-1.47,2.82,2.82,0,0,0,.86-.34,3.82,3.82,0,0,0,0,.51c0,1.35.39,1.91,1.34,1.91A1.73,1.73,0,0,0,512,47.2c0-1.27-1.08-2.07-2.78-2.07a8.78,8.78,0,0,0-2.76.51v3.25c0,.7-.31,1-.95,1a3.43,3.43,0,0,1-2.14-.83,1.57,1.57,0,0,1-.6-1.22,2.35,2.35,0,0,1,1-1.73,7,7,0,0,1,1.83-1.07V42.62l-.52,0h-.83c-.2,0-.55,0-.69,0H503V41.8a7.42,7.42,0,0,0,1.33.09c.35,0,.86,0,1.25,0V40.56a8.69,8.69,0,0,0-.06-1.24h1a7.46,7.46,0,0,0-.07,1.21v1.25a13.17,13.17,0,0,0,2.65-.56Zm-3.52,3.83c-1.29.62-2,1.33-2,2,0,.27.18.53.56.78a2.43,2.43,0,0,0,1.16.38c.26,0,.3-.08.3-.64Zm7.14-2.44a10.67,10.67,0,0,0-2.63-2.55l.68-.51a10.94,10.94,0,0,1,2.63,2.47Z"/><path class="cls-2" d="M514.85,42.61c.47,0,1.82-.17,2.87-.34a15.93,15.93,0,0,0,.39-2.76v-.17l1,.12a8,8,0,0,0-.25,1.25c-.07.38-.16.86-.27,1.48.3,0,.47,0,.77,0a2.48,2.48,0,0,1,1.87.55,2.63,2.63,0,0,1,.64,2.09,9,9,0,0,1-.87,4.47,1.36,1.36,0,0,1-1.27.61,4.9,4.9,0,0,1-2-.51,2.79,2.79,0,0,0,0-.46,2.52,2.52,0,0,0,0-.52,4.86,4.86,0,0,0,1.94.6c.33,0,.57-.21.74-.62a10.08,10.08,0,0,0,.54-3.61c0-1.38-.39-1.82-1.6-1.82a7.35,7.35,0,0,0-.94.07,24.46,24.46,0,0,1-2,5.51c-.17.31-.44.83-.84,1.56l-.88-.52a12.52,12.52,0,0,0,1.35-2.35,21.37,21.37,0,0,0,1.43-4.12c-1.12.17-1.74.27-1.86.3a7.41,7.41,0,0,0-.75.17Zm8.54-1.2a11.77,11.77,0,0,1,2.72,4.6l-.83.48a10.65,10.65,0,0,0-2.65-4.67Z"/><path class="cls-2" d="M529.53,39.77a22.48,22.48,0,0,0-.79,5.67c0,.71.05,1.68.1,2.12a4.57,4.57,0,0,1,.08.7A14.19,14.19,0,0,1,530,45.51l.66.31c-.38.77-.7,1.57-1,2.28a5.09,5.09,0,0,0-.36,1.65l-.9.08a3.6,3.6,0,0,0-.1-.46,14.75,14.75,0,0,1-.48-3.85,26.61,26.61,0,0,1,.52-5,6.71,6.71,0,0,0,.12-.9Zm1.33,2.63a10.51,10.51,0,0,0,2.21.17c.52,0,1,0,1.65-.08a24.91,24.91,0,0,0-.16-3h1a3,3,0,0,0,0,.44c0,.09,0,.16,0,.39s0,.3.08,2.11a6.9,6.9,0,0,0,2.07-.55l.06.94a6.41,6.41,0,0,0-.69.16,12.26,12.26,0,0,1-1.42.26c0,.35,0,.56,0,.94,0,2.47-.23,3.54-1,4.58a6.28,6.28,0,0,1-2,1.68,3,3,0,0,0-.7-.7,5.32,5.32,0,0,0,2-1.5c.66-.84.87-1.79.87-3.87,0-.36,0-.65,0-1-.57.05-1.33.08-1.9.08-.36,0-1.11,0-1.57-.05h-.43Z"/><path class="cls-2" d="M540.71,40.59a9.35,9.35,0,0,0-.09,1.55,22.33,22.33,0,0,0,.34,4c.29,1.33.82,2.22,1.31,2.22.23,0,.46-.22.65-.65a9.36,9.36,0,0,0,.68-2.22,4.18,4.18,0,0,0,.77.74c-.64,2.28-1.23,3.15-2.16,3.15-.73,0-1.4-.73-1.85-2s-.64-2.9-.7-6.1a7.41,7.41,0,0,0,0-.77Zm6.28.69a11.3,11.3,0,0,1,1.86,3,12.48,12.48,0,0,1,1,3.47l-.92.38a11.48,11.48,0,0,0-2.7-6.41Z"/><path class="cls-2" d="M551.39,41.63a9,9,0,0,0,1.63.12c.26,0,.4,0,.78,0a12.69,12.69,0,0,0,.29-2.39l1,.1a12,12,0,0,0-.23,1.24c-.07.42-.1.6-.17,1a10.7,10.7,0,0,0,2.34-.44l.06.9-.36.07a19,19,0,0,1-2.2.31c-.19,1-.56,2.5-.91,3.68a34.14,34.14,0,0,1-1.5,4l-.95-.4a26.16,26.16,0,0,0,2.44-7.19h-.9c-.46,0-.57,0-1.08,0h-.27Zm5.81,4.72a4.43,4.43,0,0,0-.39.49,1.57,1.57,0,0,0-.33.92c0,.78.79,1.2,2.28,1.2a9.64,9.64,0,0,0,2.87-.44l.09,1-.57.09a13,13,0,0,1-2.31.22c-2.13,0-3.24-.66-3.24-2,0-.58.18-1,.87-1.87Zm4-2.25a13.17,13.17,0,0,0-1.53-.09,11.31,11.31,0,0,0-3.25.44l-.09-.88a14.71,14.71,0,0,1,3.45-.43c.25,0,.44,0,1.42,0Z"/><path class="cls-2" d="M565.64,39.65a20.05,20.05,0,0,0-.17,2.74c-.05,1.56-.09,3.33-.09,3.91,0,.16,0,.48,0,.78a2,2,0,0,0,.61,1.56,2.45,2.45,0,0,0,1.63.51,3.73,3.73,0,0,0,3.48-2.26,7.75,7.75,0,0,0,.64-2,3.67,3.67,0,0,0,.94.62,7.9,7.9,0,0,1-1.44,3,4.55,4.55,0,0,1-3.67,1.63,3.08,3.08,0,0,1-2.44-.91,3.62,3.62,0,0,1-.71-2.67c0-.87,0-1.2.12-5.29,0-.39,0-.64,0-.84a4,4,0,0,0-.05-.69Z"/><path class="cls-2" d="M583.81,49.67a10.45,10.45,0,0,0-2.65-1.86c-.22-.12-.52-.25-.87-.39a3.68,3.68,0,0,1,0,.47A2.25,2.25,0,0,1,580,49.3a2.62,2.62,0,0,1-2.2.82,3.39,3.39,0,0,1-2-.52,1.7,1.7,0,0,1-.7-1.37c0-.86.68-1.53,1.82-1.79a5.67,5.67,0,0,1,1.35-.13,5.8,5.8,0,0,1,1.17.1.38.38,0,0,1,0-.16,1.06,1.06,0,0,1,0-.14c0-.12,0-.39,0-.77,0-.17,0-.42,0-.75l-1.53,0c-.78,0-1.39,0-2.2-.09h-.43v-.86a15.86,15.86,0,0,0,3,.21h1.16l0-1.78h-.88c-.95,0-2,0-3.17-.13h-.42v-.88a16.12,16.12,0,0,0,3.33.26h1.13a10.26,10.26,0,0,0-.07-1.87h1a14.52,14.52,0,0,0-.09,1.83,18.3,18.3,0,0,0,3.85-.53l.07.88c-.22,0-.22,0-.9.1a26.81,26.81,0,0,1-3,.31c0,1.07,0,1.07,0,1.75a15.68,15.68,0,0,0,3.6-.53l.05.9c-.17,0-.3,0-.75.09-.9.14-1.92.25-2.89.31,0,.73,0,.73.08,2a11.39,11.39,0,0,1,3.63,1.9,4.49,4.49,0,0,0,.44.3Zm-4.39-2.46a4.77,4.77,0,0,0-1.33-.14c-1.29,0-2.13.47-2.13,1.16s.65,1.08,1.78,1.08a1.88,1.88,0,0,0,1.43-.43,1.7,1.7,0,0,0,.26-1.17Z"/><path class="cls-2" d="M592,40.11a4.38,4.38,0,0,0-.05-.75h1a10.83,10.83,0,0,0-.06,1.63v.14c2.46,0,3.46,0,3.89-.09V42a22.82,22.82,0,0,0-2.48-.07l-1.39,0v2.57a3.74,3.74,0,0,1,.31,1.53,4.18,4.18,0,0,1-1.74,3.39,8.26,8.26,0,0,1-2.05,1.05,2.84,2.84,0,0,0-.57-.82,6.67,6.67,0,0,0,2.11-1,3.37,3.37,0,0,0,1.46-2.74,1.81,1.81,0,0,1-.35.64,2.17,2.17,0,0,1-3.77-1.35,2.16,2.16,0,0,1,2.3-2.15,2,2,0,0,1,1.51.58c0-.18,0-.23,0-.71,0-.05,0-.18,0-.34v-.68c-2.61.05-5.24.18-6.11.33l0-.95h.52c.38,0,.38,0,2.47-.08,1.25-.05,2.26-.08,3.15-.1ZM591.39,44a1.67,1.67,0,0,0-.87-.21,1.38,1.38,0,0,0-1.44,1.37,1.26,1.26,0,0,0,1.34,1.29,1.46,1.46,0,0,0,1.52-1.53A.94.94,0,0,0,591.39,44Z"/><path class="cls-2" d="M597.93,42.66a26.44,26.44,0,0,0,2.87-.34,16.08,16.08,0,0,0,.39-2.76v-.17l1,.12a8,8,0,0,0-.25,1.25c-.05.33-.17.92-.27,1.48.3,0,.47,0,.77,0a2.48,2.48,0,0,1,1.87.55,2.62,2.62,0,0,1,.64,2.09,9,9,0,0,1-.87,4.47,1.36,1.36,0,0,1-1.27.61,4.88,4.88,0,0,1-2-.51,3,3,0,0,0,0-.47,2.39,2.39,0,0,0,0-.51,4.86,4.86,0,0,0,1.94.6q.49,0,.74-.62a10.07,10.07,0,0,0,.55-3.61c0-1.38-.39-1.82-1.6-1.82a7.54,7.54,0,0,0-.94.07,25.24,25.24,0,0,1-2.81,7.07l-.88-.52a19.18,19.18,0,0,0,2.78-6.47,16.87,16.87,0,0,0-2.61.47Zm8.54-1.2a11.9,11.9,0,0,1,2.72,4.6l-.83.47a11,11,0,0,0-2.65-4.67Zm.58-2.21a9.84,9.84,0,0,1,1.34,2l-.65.39a10,10,0,0,0-1.34-2.07Zm1.47-.7a10.42,10.42,0,0,1,1.34,2l-.65.38a9.43,9.43,0,0,0-1.33-2Z"/><path class="cls-2" d="M613.22,45.19c-.84.7-1.23,1.3-1.23,1.91s.38,1,1.1,1.27a8.28,8.28,0,0,0,2.38.26,12.3,12.3,0,0,0,3.9-.49l.12,1.07a4,4,0,0,0-.44.07,21.27,21.27,0,0,1-3.51.3,9.17,9.17,0,0,1-3-.4,2.07,2.07,0,0,1-1.48-2,3.41,3.41,0,0,1,1.49-2.51Zm-1.36-4.75a14.82,14.82,0,0,0,3.46.31,14.18,14.18,0,0,0,3.29-.27l.06.86a19.86,19.86,0,0,0-3.28,2l-.66-.53a20.25,20.25,0,0,1,2.3-1.38,10.21,10.21,0,0,1-2,.17,25.31,25.31,0,0,1-2.86-.17l-.43,0Zm6.49,2.25a10.37,10.37,0,0,1,1.33,2l-.65.39A10.14,10.14,0,0,0,617.69,43Zm1.42-.77a10,10,0,0,1,1.35,2l-.65.36a10.94,10.94,0,0,0-1.33-2Z"/><path class="cls-2" d="M623.75,40.49a12.37,12.37,0,0,0-1.59.09v-1a11.52,11.52,0,0,0,1.59.09h6.79a8.75,8.75,0,0,0,1.25-.05l.51.6c-.57.58-.74.74-1.07,1a15.82,15.82,0,0,1-3.5,2.37v5.88a.88.88,0,0,1-.4.87,3.29,3.29,0,0,1-1.13.13c-.44,0-1,0-1.81-.12a3.76,3.76,0,0,0-.18-.91,11.42,11.42,0,0,0,2.08.21c.42,0,.53-.06.53-.29V44.15a9.23,9.23,0,0,0-.07-1.29h.77a13.44,13.44,0,0,0,3.33-2.38Z"/><path class="cls-2" d="M637.31,42.92a5.14,5.14,0,0,0-.14.49,15.28,15.28,0,0,1-1.27,3.68,10.2,10.2,0,0,1-2,2.57,3,3,0,0,0-.61-.65,8,8,0,0,0,1.92-2.33,11.57,11.57,0,0,0,1.17-3.42h-1.68a5,5,0,0,0-1,.07v-.85a5,5,0,0,0,1,.07h1.43a3.54,3.54,0,0,0,.74-.05Zm1.79,1.27h-.79a6.69,6.69,0,0,0-.92.07v-.77a4.82,4.82,0,0,0,.92.07h.79V43a7.06,7.06,0,0,0-.06-1.16h.38A15.45,15.45,0,0,0,642,40.3h-5a10.64,10.64,0,0,0-1.48.08v-.87a11.47,11.47,0,0,0,1.48.08h4.77a8.68,8.68,0,0,0,1.22-.05l.43.57-.25.21a20.13,20.13,0,0,1-3.22,2.11v1.13h.83a4.74,4.74,0,0,0,.92-.07v.77a5.16,5.16,0,0,0-.92-.07h-.83v1.14h1a4.88,4.88,0,0,0,1-.07V46a5,5,0,0,0-1-.07h-1v1.27h1.65a4.89,4.89,0,0,0,1-.07V48a5.83,5.83,0,0,0-1.05-.06h-1.59v1.66c0,.47-.1.7-.35.84a2.21,2.21,0,0,1-1,.14c-.52,0-1,0-1.57-.06a2.45,2.45,0,0,0-.19-.84,11.13,11.13,0,0,0,1.85.17c.46,0,.55-.07.55-.38V47.91h-1.53a6.31,6.31,0,0,0-1.09.06v-.79a5.65,5.65,0,0,0,1,.07h1.59V46h-.91a5.75,5.75,0,0,0-1,.07v-.77a5.67,5.67,0,0,0,1,.07h.91Zm6.24-1.52a1.47,1.47,0,0,0-.14.14A22.5,22.5,0,0,1,643,45a9.44,9.44,0,0,0,.74,1.6,8.09,8.09,0,0,0,2,2.31,4.32,4.32,0,0,0-.66.73A10.78,10.78,0,0,1,642.65,46a17.49,17.49,0,0,1-1.05-3.43c-.05-.17-.06-.23-.1-.38l.79-.23a10.85,10.85,0,0,0,.49,2.25,9.75,9.75,0,0,0,1.88-2.13Z"/><path class="cls-2" d="M653.64,40c-.14.12-.25.21-1.6,1.51A38.34,38.34,0,0,1,649,44c-.48.36-.57.47-.57.65s.1.33,1.16,1.14a38.44,38.44,0,0,1,4.16,3.55,3.28,3.28,0,0,0,.36.33l-.82.81a12.35,12.35,0,0,0-1.68-1.78c-.87-.81-1.39-1.23-3.29-2.72-.73-.57-.94-.86-.94-1.3a1.26,1.26,0,0,1,.38-.87,10,10,0,0,1,1.11-.88,20.69,20.69,0,0,0,3.81-3.56Z"/><path class="cls-2" d="M656.78,41.63a9,9,0,0,0,1.63.12c.26,0,.4,0,.78,0a16.1,16.1,0,0,0,.29-2.3v-.09l1,.1c-.05.21-.06.27-.1.46s-.05.34-.13.78-.1.64-.17,1a10.63,10.63,0,0,0,2.34-.44l.06.9h-.13l-.23.05a17.38,17.38,0,0,1-2.2.31,34.73,34.73,0,0,1-2.41,7.64l-.95-.4A26.48,26.48,0,0,0,659,42.54h-.9c-.46,0-.57,0-1.08,0h-.27Zm5.81,4.72a4.36,4.36,0,0,0-.39.49,1.57,1.57,0,0,0-.33.92c0,.78.79,1.2,2.28,1.2a9.64,9.64,0,0,0,2.87-.44l.09,1-.17,0-.4.08a14.17,14.17,0,0,1-2.31.21c-2.13,0-3.24-.66-3.24-2,0-.58.18-1,.87-1.87Zm4-2.25a13.17,13.17,0,0,0-1.53-.09,11.31,11.31,0,0,0-3.25.44l-.09-.88a14.72,14.72,0,0,1,3.45-.43c.25,0,.44,0,1.42,0Zm-2-4.56a9.85,9.85,0,0,1,1.34,2l-.65.39A9.56,9.56,0,0,0,664,39.89Zm1.47-.7a10.46,10.46,0,0,1,1.34,2l-.65.38a9.71,9.71,0,0,0-1.33-2Z"/><path class="cls-2" d="M669.19,42a5.72,5.72,0,0,0,1,.06,30.35,30.35,0,0,0,3.87-.27c-.2-.44-.4-1-.64-1.55-.14-.34-.22-.52-.34-.75l1-.14a4.2,4.2,0,0,0,.38,1.17,10.73,10.73,0,0,0,.47,1.14,15.22,15.22,0,0,0,3.15-.82l.13.92c-.27.05-.38.08-.77.18-.78.21-.94.25-1.75.4l-.44.09a24.09,24.09,0,0,0,2.34,3.78l-.87.49a2.62,2.62,0,0,0-.9-.53,7.06,7.06,0,0,0-2.28-.34,4.6,4.6,0,0,0-2.47.55,1.48,1.48,0,0,0-.7,1.21,1.3,1.3,0,0,0,.49,1,4.4,4.4,0,0,0,2.54.6,8.56,8.56,0,0,0,3.69-.83l.14,1a10.77,10.77,0,0,1-3.82.7,4.77,4.77,0,0,1-3.38-1,2.1,2.1,0,0,1-.58-1.43,2.43,2.43,0,0,1,1.47-2.12,5.52,5.52,0,0,1,2.52-.48,6.49,6.49,0,0,1,2.69.47A15.84,15.84,0,0,1,674.59,43c-.14-.27-.14-.3-.22-.43a38.43,38.43,0,0,1-4.63.34,2.84,2.84,0,0,0-.51,0Z"/><path class="cls-2" d="M681.68,40.59a9.37,9.37,0,0,0-.09,1.55,22.24,22.24,0,0,0,.34,4c.29,1.33.82,2.22,1.31,2.22.23,0,.46-.22.65-.65a9.36,9.36,0,0,0,.68-2.22,4.16,4.16,0,0,0,.77.74c-.64,2.28-1.24,3.15-2.16,3.15-.73,0-1.4-.73-1.85-2s-.64-2.9-.7-6.1a6.87,6.87,0,0,0,0-.77Zm6.28.69a11.27,11.27,0,0,1,1.86,3,12.45,12.45,0,0,1,1,3.47l-.92.38a11.49,11.49,0,0,0-2.7-6.41Z"/><path class="cls-2" d="M696,48.69a2,2,0,1,1-2-1.95A1.95,1.95,0,0,1,696,48.69Zm-3.16,0a1.21,1.21,0,1,0,1.21-1.21A1.21,1.21,0,0,0,692.88,48.69Z"/></g></g></svg>