<svg xmlns="http://www.w3.org/2000/svg" viewBox="0 0 220 50"><defs><style>.cls-1{fill:#a9aaab;}.cls-2{fill:#9b9c9d;}.cls-3{fill:#fff;}</style></defs><title>nene</title><g id="レイヤー_2" data-name="レイヤー 2"><g id="レイヤー_1-2" data-name="レイヤー 1"><rect class="cls-1" width="220" height="50"/><rect class="cls-2" y="25" width="220" height="25"/><path class="cls-3" d="M12.81,17.94a4.71,4.71,0,0,0-.09-.95h1.84a4.77,4.77,0,0,0-.09.93v.19H18.9A11.51,11.51,0,0,0,20.47,18v1.51a11.73,11.73,0,0,0-1.56-.07H8.56A11.62,11.62,0,0,0,7,19.54V18a12.16,12.16,0,0,0,1.63.09h4.15ZM7.44,25.3a13.27,13.27,0,0,0-.06-1.36c.48,0,.92.06,1.56.06h9.72a12.06,12.06,0,0,0,1.47-.06,12.6,12.6,0,0,0-.06,1.35v3.83c0,.75-.08,1-.36,1.29s-.75.36-1.8.36c-.31,0-.39,0-.87,0l-.48,0a3.42,3.42,0,0,0-.33-1.5c.82.09,1.47.13,1.89.13s.36-.07.36-.31V25.3H9v4a10.29,10.29,0,0,0,.09,1.65H7.35a10.88,10.88,0,0,0,.09-1.65ZM9.3,21.09c0-.48,0-.73,0-1.09a12.87,12.87,0,0,0,1.45.06h6.24A11.12,11.12,0,0,0,18.28,20c0,.39,0,.62,0,1.09v1.29a10.37,10.37,0,0,0,0,1.11,11.68,11.68,0,0,0-1.41-.06H10.66a12.86,12.86,0,0,0-1.41.06,10.75,10.75,0,0,0,0-1.11Zm7.65,7a8.82,8.82,0,0,0,0,1c-.29,0-.84,0-1.25,0H12v.75H10.42a7.88,7.88,0,0,0,.06-1.21V26.83a9.06,9.06,0,0,0,0-1c.34,0,.66,0,1.21,0h4.11c.57,0,.78,0,1.23,0a8,8,0,0,0,0,1Zm-6.09-5.89h5.8v-.92h-5.8ZM12,27.85h3.54V27H12Z"/><path class="cls-3" d="M22.15,21.55c.3,0,.89.06,1.48.06h.66A24.72,24.72,0,0,0,26.52,18a4.13,4.13,0,0,0,.38-1l1.81.53-.31.57a29.72,29.72,0,0,1-2.16,3.45c3.27-.09,3.9-.12,5.7-.3a18.25,18.25,0,0,0-2.07-2.1l1.45-.83a32.84,32.84,0,0,1,4.23,4.74l-1.48,1c-.5-.75-.66-1-1-1.49-2.58.32-4.51.44-9.73.62a8.34,8.34,0,0,0-.87.08Zm1.44,9.27a14.91,14.91,0,0,0,.09-1.71V25.72a12.43,12.43,0,0,0-.07-1.39,10,10,0,0,0,1.56.06h7.15a10.45,10.45,0,0,0,1.58-.06,9.26,9.26,0,0,0-.08,1.39v3.39a14,14,0,0,0,.09,1.71H32.2V30H25.29v.78Zm1.68-2.25h6.94V25.86H25.27Z"/><path class="cls-3" d="M47.71,18.75a11.63,11.63,0,0,0,1.62-.07v1.63a14.55,14.55,0,0,0-1.64-.08H44.46v1.42h4.21a13.2,13.2,0,0,0,1.73-.09v1.7a13.58,13.58,0,0,0-1.74-.09H47.5v1.37h1.15a12.83,12.83,0,0,0,1.74-.09v1.7a13.58,13.58,0,0,0-1.74-.09H47.5V29c0,.92-.13,1.27-.6,1.54a4,4,0,0,1-1.78.25c-.45,0-1,0-1.68-.08A6.07,6.07,0,0,0,43,29a14.5,14.5,0,0,0,2.28.2c.49,0,.63-.09.63-.41V26.05h-7a14,14,0,0,0-1.75.09v-1.7a13.87,13.87,0,0,0,1.75.09h7V23.17h-7a13.74,13.74,0,0,0-1.74.09v-1.7a13.61,13.61,0,0,0,1.74.09h3.9V20.23h-3a14.76,14.76,0,0,0-1.64.08V18.67a12.28,12.28,0,0,0,1.64.07h3v-.3a6.2,6.2,0,0,0-.09-1.33h1.86a6.32,6.32,0,0,0-.1,1.33v.3Zm-6,10.88a13.36,13.36,0,0,0-2.23-2.55l1.32-1a16.45,16.45,0,0,1,2.29,2.38Z"/><path class="cls-3" d="M57.82,22.87h-1a11.34,11.34,0,0,0-1.36.06V21.81a11.54,11.54,0,0,1-.93,1.42v6.18A10.74,10.74,0,0,0,54.63,31H52.92A13.46,13.46,0,0,0,53,29.2V26.5c0-.66,0-.71,0-1.67a5.46,5.46,0,0,1-.95,1,6.93,6.93,0,0,0-.58-1.72,9.19,9.19,0,0,0,2.12-2.24,6.83,6.83,0,0,0,.75-1.38l1.38.9,0,0c.52,0,.6,0,1.11,0h1V20h-.71a9,9,0,0,1-.83,1.33,5.79,5.79,0,0,0-1.21-.9A7.45,7.45,0,0,0,56.64,17l1.5.39c-.27.77-.27.77-.42,1.16h1.89a8.28,8.28,0,0,0,1.22-.06V20A7.57,7.57,0,0,0,59.71,20h-.4v1.49H60a5.43,5.43,0,0,0,1-.06v1.54a5.52,5.52,0,0,0-1-.06h-.69v1.5h.52a6.64,6.64,0,0,0,1-.06v1.51a6.68,6.68,0,0,0-1-.06h-.54v2L61,27.39v1.44c-1.77.42-3.58.81-4.83,1-.26,0-.65.14-.92.21l-.29-1.63c.31,0,.48,0,.73-.06V25a10.11,10.11,0,0,0-.06-1.2h1.53A6.55,6.55,0,0,0,57.06,25v3.15l.77-.12ZM55.6,18l-.25.34a11.78,11.78,0,0,1-2.94,3,6.19,6.19,0,0,0-.75-1.48A7.73,7.73,0,0,0,54.22,17Zm5.73,1.23c0-.67,0-1,0-1.33a7.75,7.75,0,0,0,1.14.06h1.91a7.79,7.79,0,0,0,1.19-.06c0,.38,0,.65,0,1.42v7.92c0,.76-.07,1.09-.34,1.35a1.72,1.72,0,0,1-1.31.36h-.67a4.3,4.3,0,0,0-.23-1.54c.29,0,.54,0,.72,0S64,27.33,64,27V19.39H62.83v10A14.56,14.56,0,0,0,62.91,31H61.26a12.69,12.69,0,0,0,.08-1.65Z"/><path class="cls-3" d="M69.66,26.19a10.07,10.07,0,0,1-1.53,4.74,9,9,0,0,0-1.46-1.18,6.86,6.86,0,0,0,1.1-2.54,15.19,15.19,0,0,0,.3-2.29c.08-1.26.13-3.39.13-5.16a20.27,20.27,0,0,0-.07-2.17c.52,0,.92.06,1.73.06h8.41A16.66,16.66,0,0,0,80,17.58c0,.51-.06.89-.06,1.7v9.85c0,1.25-.45,1.56-2.16,1.56-.46,0-1.23,0-1.68-.06a6,6,0,0,0-.42-1.56c.75.07,1.41.12,1.89.12s.75-.06.75-.37V26.19h-3.6v2.46a13.14,13.14,0,0,0,.08,1.78H73a12.34,12.34,0,0,0,.09-1.77V26.19Zm3.45-3.54H69.79c0,.43,0,.73,0,.94,0,.71,0,.81,0,1.11h3.34Zm0-3.43H69.84v1.54l0,.42h3.28Zm5.21,2v-2h-3.6v2Zm0,3.52V22.65h-3.6V24.7Z"/><path class="cls-3" d="M81.9,22.78a6.46,6.46,0,0,0,1.19.08h1.13a6.64,6.64,0,0,0,1.14-.08,15.13,15.13,0,0,0-.06,1.63v3.22a2.23,2.23,0,0,0,1.17,1.05,10,10,0,0,0,3.77.39A46.28,46.28,0,0,0,96,28.81a8.84,8.84,0,0,0-.45,1.71c-1.42.06-3.57.09-5.11.09a15.54,15.54,0,0,1-4-.3A3.75,3.75,0,0,1,84.51,29a14.91,14.91,0,0,1-1.74,1.44c-.14.1-.32.24-.44.34L81.6,29a8.61,8.61,0,0,0,2.11-1.49V24.33H82.9a5.22,5.22,0,0,0-1,.08Zm1.29-5.56a14.91,14.91,0,0,1,2.44,2.61L84.4,21A13.33,13.33,0,0,0,82,18.33Zm4.35,2.19c-.69,0-1,0-1.33,0V18a9.64,9.64,0,0,0,1.5.08h2A9,9,0,0,0,89.59,17H91.3a7.11,7.11,0,0,0-.08,1.08h2.13A13.71,13.71,0,0,0,94.87,18v1.43a10.81,10.81,0,0,0-1.33-.06H91.23v.74H94a11.39,11.39,0,0,0,1.47-.06v1.42A12.21,12.21,0,0,0,94,21.45h-.61c-.19.48-.3.71-.45,1h.83a11.13,11.13,0,0,0,1.46-.06v1.41a11.27,11.27,0,0,0-1.46-.06H91.24v.75H93.4a10.53,10.53,0,0,0,1.33-.06v1.3a11.15,11.15,0,0,0-1.33-.06H91.24v.73h2.68a9.59,9.59,0,0,0,1.47-.07v1.38a9.35,9.35,0,0,0-1.46-.08h-2.7a6.62,6.62,0,0,0,.07,1.18H89.59a10.39,10.39,0,0,0,.07-1.18H87.28a8.91,8.91,0,0,0-1.44.08V26.35a9,9,0,0,0,1.44.07h2.38v-.73h-2a11.27,11.27,0,0,0-1.35.06v-1.3a10.8,10.8,0,0,0,1.35.06h2v-.75H87.43a11.13,11.13,0,0,0-1.46.06V22.41a10.83,10.83,0,0,0,1.46.06H88a7.57,7.57,0,0,0-.44-1H87.1a11.46,11.46,0,0,0-1.45.06V20.08a10.82,10.82,0,0,0,1.45.06h2.56v-.74Zm1.53,2a8.43,8.43,0,0,1,.41,1h1.94a9.1,9.1,0,0,0,.42-1Z"/><path class="cls-3" d="M103.24,17.89a5,5,0,0,0-.08-.92H105a3.77,3.77,0,0,0-.08.93v.54h3.72a14,14,0,0,0,1.89-.09V20c-.45,0-1.12-.08-1.86-.08H99.76c0,6.36-.34,8.63-1.72,10.88a6.45,6.45,0,0,0-1.33-1.29,7.59,7.59,0,0,0,1.12-3,34.5,34.5,0,0,0,.32-5.83c0-1.28,0-1.75-.06-2.28.52,0,1.09.08,1.77.08h3.39Zm.57,3.92a8.49,8.49,0,0,0-.07-1.49h1.71a10.72,10.72,0,0,0-.06,1.49V22h3.15a9.79,9.79,0,0,0,1.59-.09v1.65a11.42,11.42,0,0,0-1.53-.09h-3.21V25h2.74a10,10,0,0,0,1.32-.06,14.66,14.66,0,0,0-.06,1.51v2.44a12.88,12.88,0,0,0,.09,2h-1.71v-.64h-5.55v.63h-1.69a13.91,13.91,0,0,0,.09-1.84V26.29a11,11,0,0,0-.06-1.32,10.38,10.38,0,0,0,1.33.06h1.92Zm-1.59,6.94h5.55V26.53h-5.55Z"/><path class="cls-3" d="M121.48,26.52a12.2,12.2,0,0,1-3.61,3.87,5,5,0,0,0-1.06-1.3,8.68,8.68,0,0,0,2-1.51,7.31,7.31,0,0,0,1.32-1.85Zm1.3-8.36a6.22,6.22,0,0,0-.09-1.09h1.86a5.37,5.37,0,0,0-.09,1.08v.45h4.29a10.8,10.8,0,0,0,1.76-.11v1.7a9.09,9.09,0,0,0-1.65-.09H118.68a8.9,8.9,0,0,0-1.62.09v-1.7a10.92,10.92,0,0,0,1.8.11h3.93Zm-2.7,7.3c-.66,0-.94,0-1.35,0a8.87,8.87,0,0,0,.06-1.18V22.18c0-.51,0-.78,0-.81s0-.09,0-.21a1.06,1.06,0,0,0,0-.19l.36,0c.13,0,.61,0,1,0h7.21a8.7,8.7,0,0,0,1.36-.06,9.07,9.07,0,0,0-.06,1.21v2.14c0,.53,0,.78,0,1.18-.34,0-.78,0-1.36,0h-2.62v3.75c0,1.16-.5,1.49-2.26,1.49l-1.22,0a4.61,4.61,0,0,0-.43-1.6,11.07,11.07,0,0,0,1.63.13c.51,0,.61-.06.61-.31V25.47Zm.3-1.48H127V22.44h-6.63Zm6.78,1.75a7.69,7.69,0,0,0,1.48,1.79,8.87,8.87,0,0,0,2.07,1.42,6.25,6.25,0,0,0-1.06,1.44,12.29,12.29,0,0,1-2.24-1.86,15,15,0,0,1-1.56-2Z"/><path class="cls-3" d="M136.78,24A1.78,1.78,0,1,1,135,22.18,1.78,1.78,0,0,1,136.78,24Z"/><path class="cls-3" d="M140.26,20.8A16.11,16.11,0,0,1,143,22.65L142,24a14.78,14.78,0,0,0-2.73-2ZM143,25.93a22,22,0,0,1-2.06,4.8l-1.48-1.25a4.71,4.71,0,0,0,.67-.95A16.63,16.63,0,0,0,141.58,25Zm-1.92-8.8A17.51,17.51,0,0,1,143.62,19l-1.05,1.33A12.9,12.9,0,0,0,140,18.31Zm9.15,1.14a6.94,6.94,0,0,0,1.11-.06l.85.93-.24.33a18.09,18.09,0,0,1-2.5,2.91,12.94,12.94,0,0,0,4.06,1.42,6.17,6.17,0,0,0-.69,1.59c-.57-.17-.67-.2-.88-.27,0,.33,0,.71,0,1.21V29.2a12.05,12.05,0,0,0,.08,1.69h-1.74v-.76h-4.32v.76h-1.68a13.7,13.7,0,0,0,.07-1.65V26.34c0-.37,0-.58,0-1l-.8.27a3.81,3.81,0,0,0-.75-1.5,13,13,0,0,0,4.1-1.67A8.89,8.89,0,0,1,145.36,21a11.08,11.08,0,0,1-1.58,1.33,4.6,4.6,0,0,0-1.09-1.2,8.8,8.8,0,0,0,2.83-2.78,5.32,5.32,0,0,0,.65-1.39l1.74.36-.24.46-.27.51Zm.46,6.71.74,0a15.4,15.4,0,0,1-3.27-1.54A14.34,14.34,0,0,1,145.27,25h5.4Zm-4.78,3.64h4.32V26.44h-4.32Zm.46-8.76a8.11,8.11,0,0,0,1.74,1.67,15.39,15.39,0,0,0,1.77-1.79h-3.42Z"/><path class="cls-3" d="M160.26,18.16a6.73,6.73,0,0,0-.09-1.11h1.89a5,5,0,0,0-.1,1.09v.75h4.25a13.12,13.12,0,0,0,1.89-.11V20.5a11.59,11.59,0,0,0-1.84-.09H156.3a17.17,17.17,0,0,0-1.84.09V18.79a14,14,0,0,0,1.89.11h3.92Zm0,3.69a8.3,8.3,0,0,0-.06-1.09H162a5.74,5.74,0,0,0-.06,1.09V22h3.48a13.2,13.2,0,0,0,1.47-.06,10.7,10.7,0,0,0-.06,1.29v4.42c0,1.35-.44,1.69-2.19,1.69-.35,0-.63,0-1.25-.06a5.37,5.37,0,0,0-.4-1.61,10.29,10.29,0,0,0,1.47.15c.62,0,.75-.08.75-.46V23.5h-3.27v5.57a13.82,13.82,0,0,0,.1,1.84h-1.89a14.11,14.11,0,0,0,.1-1.83V23.5h-3v4.3a11.21,11.21,0,0,0,.09,1.77h-1.84a15.67,15.67,0,0,0,.09-1.75V23.26a12,12,0,0,0-.06-1.29,15.46,15.46,0,0,0,1.54.06h3.15Z"/><path class="cls-3" d="M171.19,24.88V16.95h4.48v1.63H173v6.3Z"/><path class="cls-3" d="M177.19,20l.47,0c.36,0,1.18,0,1.93-.11,0-.88,0-1.12,0-1.79,0-.39,0-.5,0-.84l1.89,0a12.9,12.9,0,0,0-.18,2.45,1,1,0,0,0,.23-.06l.55.65a5.69,5.69,0,0,0-.84.9l0,1a9.93,9.93,0,0,1,1.32-1.11c1.62-1.17,2.5-1.54,3.65-1.54,2.19,0,3.42,1.8,3.42,5a10.9,10.9,0,0,1-.2,2.16c.23.15.33.24,1,.73a2.81,2.81,0,0,1,.28.24l.18.13-.71,1.8a8.16,8.16,0,0,0-1.35-1.25,2.2,2.2,0,0,1-.69.9,3.87,3.87,0,0,1-2.33.74c-1.73,0-2.9-.93-2.9-2.31s1.14-2.29,2.79-2.29a5,5,0,0,1,2.06.45,5.93,5.93,0,0,0,.12-1.27c0-2.22-.63-3.32-1.9-3.32a4.31,4.31,0,0,0-2.43,1,19.13,19.13,0,0,0-2.29,2,57,57,0,0,0,.12,6.09h-2a31.37,31.37,0,0,0,.09-4.11c0-.22,0-.32,0-.55-.15.19-.45.55-.79.93-.71.78-.83.93-1.06,1.23l-.9-1.75a22.06,22.06,0,0,0,2.76-2.56c0-.93,0-.93,0-2.16a15.07,15.07,0,0,0-2.26.23Zm8.53,7c-.71,0-1.2.36-1.2.87s.52.78,1.23.78a2.08,2.08,0,0,0,1-.24,1.51,1.51,0,0,0,.6-.66.81.81,0,0,0,.09-.2A2.94,2.94,0,0,0,185.73,27Z"/><path class="cls-3" d="M192.19,20l.47,0c.36,0,1.18,0,1.93-.11,0-.88,0-1.12,0-1.79,0-.39,0-.5,0-.84l1.89,0a12.9,12.9,0,0,0-.18,2.45,1,1,0,0,0,.23-.06l.55.65a5.69,5.69,0,0,0-.84.9l0,1a9.93,9.93,0,0,1,1.32-1.11c1.62-1.17,2.5-1.54,3.65-1.54,2.19,0,3.42,1.8,3.42,5a10.9,10.9,0,0,1-.2,2.16c.23.15.33.24,1,.73a2.81,2.81,0,0,1,.28.24l.18.13-.71,1.8a8.16,8.16,0,0,0-1.35-1.25,2.2,2.2,0,0,1-.69.9,3.87,3.87,0,0,1-2.33.74c-1.73,0-2.9-.93-2.9-2.31s1.14-2.29,2.79-2.29a5,5,0,0,1,2.06.45,5.93,5.93,0,0,0,.12-1.27c0-2.22-.63-3.32-1.9-3.32a4.31,4.31,0,0,0-2.43,1,19.13,19.13,0,0,0-2.29,2,57,57,0,0,0,.12,6.09h-2a31.37,31.37,0,0,0,.09-4.11c0-.22,0-.32,0-.55-.15.19-.45.55-.79.93-.71.78-.83.93-1.06,1.23l-.9-1.75a22.06,22.06,0,0,0,2.76-2.56c0-.93,0-.93,0-2.16a15.07,15.07,0,0,0-2.26.23Zm8.53,7c-.71,0-1.2.36-1.2.87s.52.78,1.23.78a2.08,2.08,0,0,0,1-.24,1.51,1.51,0,0,0,.6-.66.81.81,0,0,0,.09-.2A2.94,2.94,0,0,0,200.73,27Z"/><path class="cls-3" d="M211.3,23.05V31h-4.48V29.35h2.7v-6.3Z"/></g></g></svg>